%FSLAX45Y45*%
G04 Gerber Fmt 4.5, Leading zero omitted, Abs format (unit mm)*
G04 Created by KiCad (PCBNEW 5.99.0+really5.1.10+dfsg1-1) date 2022-02-16 19:47:37*
%MOMM*%
%LPD*%
G01*
G04 APERTURE LIST*
%TA.AperFunction,Profile*%
%ADD10C,0.050000*%
%TD*%
%ADD11C,0.200000*%
%ADD12C,0.300000*%
G04 APERTURE END LIST*
D10*
X7900000Y-10600000D02*
X7900000Y-9000000D01*
X14300000Y-10600000D02*
X7900000Y-10600000D01*
X14300000Y-9000000D02*
X14300000Y-10600000D01*
X7900000Y-9000000D02*
X14300000Y-9000000D01*
D11*
X12840000Y-9240000D02*
X13160000Y-9560000D01*
X13160000Y-9240000D02*
X12840000Y-9560000D01*
D12*
X8183928Y-11068214D02*
X8183928Y-10768214D01*
X8255357Y-10768214D01*
X8298214Y-10782500D01*
X8326786Y-10811072D01*
X8341071Y-10839643D01*
X8355357Y-10896786D01*
X8355357Y-10939643D01*
X8341071Y-10996786D01*
X8326786Y-11025357D01*
X8298214Y-11053929D01*
X8255357Y-11068214D01*
X8183928Y-11068214D01*
X8483928Y-11068214D02*
X8483928Y-10868214D01*
X8483928Y-10925357D02*
X8498214Y-10896786D01*
X8512500Y-10882500D01*
X8541071Y-10868214D01*
X8569643Y-10868214D01*
X8669643Y-11068214D02*
X8669643Y-10868214D01*
X8669643Y-10768214D02*
X8655357Y-10782500D01*
X8669643Y-10796786D01*
X8683928Y-10782500D01*
X8669643Y-10768214D01*
X8669643Y-10796786D01*
X8855357Y-11068214D02*
X8826786Y-11053929D01*
X8812500Y-11025357D01*
X8812500Y-10768214D01*
X9012500Y-11068214D02*
X8983928Y-11053929D01*
X8969643Y-11025357D01*
X8969643Y-10768214D01*
X9355357Y-11068214D02*
X9355357Y-10768214D01*
X9455357Y-10982500D01*
X9555357Y-10768214D01*
X9555357Y-11068214D01*
X9826786Y-11068214D02*
X9826786Y-10911072D01*
X9812500Y-10882500D01*
X9783928Y-10868214D01*
X9726786Y-10868214D01*
X9698214Y-10882500D01*
X9826786Y-11053929D02*
X9798214Y-11068214D01*
X9726786Y-11068214D01*
X9698214Y-11053929D01*
X9683928Y-11025357D01*
X9683928Y-10996786D01*
X9698214Y-10968214D01*
X9726786Y-10953929D01*
X9798214Y-10953929D01*
X9826786Y-10939643D01*
X9969643Y-10868214D02*
X9969643Y-11168214D01*
X9969643Y-10882500D02*
X9998214Y-10868214D01*
X10055357Y-10868214D01*
X10083928Y-10882500D01*
X10098214Y-10896786D01*
X10112500Y-10925357D01*
X10112500Y-11011072D01*
X10098214Y-11039643D01*
X10083928Y-11053929D01*
X10055357Y-11068214D01*
X9998214Y-11068214D01*
X9969643Y-11053929D01*
X10241071Y-11039643D02*
X10255357Y-11053929D01*
X10241071Y-11068214D01*
X10226786Y-11053929D01*
X10241071Y-11039643D01*
X10241071Y-11068214D01*
X10241071Y-10882500D02*
X10255357Y-10896786D01*
X10241071Y-10911072D01*
X10226786Y-10896786D01*
X10241071Y-10882500D01*
X10241071Y-10911072D01*
X7577500Y-11402500D02*
X7897500Y-11722500D01*
X7897500Y-11402500D02*
X7577500Y-11722500D01*
X8155357Y-11398214D02*
X8341071Y-11398214D01*
X8241071Y-11512500D01*
X8283928Y-11512500D01*
X8312500Y-11526786D01*
X8326786Y-11541071D01*
X8341071Y-11569643D01*
X8341071Y-11641071D01*
X8326786Y-11669643D01*
X8312500Y-11683929D01*
X8283928Y-11698214D01*
X8198214Y-11698214D01*
X8169643Y-11683929D01*
X8155357Y-11669643D01*
X8469643Y-11669643D02*
X8483928Y-11683929D01*
X8469643Y-11698214D01*
X8455357Y-11683929D01*
X8469643Y-11669643D01*
X8469643Y-11698214D01*
X8598214Y-11426786D02*
X8612500Y-11412500D01*
X8641071Y-11398214D01*
X8712500Y-11398214D01*
X8741071Y-11412500D01*
X8755357Y-11426786D01*
X8769643Y-11455357D01*
X8769643Y-11483929D01*
X8755357Y-11526786D01*
X8583928Y-11698214D01*
X8769643Y-11698214D01*
X8955357Y-11398214D02*
X8983928Y-11398214D01*
X9012500Y-11412500D01*
X9026786Y-11426786D01*
X9041071Y-11455357D01*
X9055357Y-11512500D01*
X9055357Y-11583929D01*
X9041071Y-11641071D01*
X9026786Y-11669643D01*
X9012500Y-11683929D01*
X8983928Y-11698214D01*
X8955357Y-11698214D01*
X8926786Y-11683929D01*
X8912500Y-11669643D01*
X8898214Y-11641071D01*
X8883928Y-11583929D01*
X8883928Y-11512500D01*
X8898214Y-11455357D01*
X8912500Y-11426786D01*
X8926786Y-11412500D01*
X8955357Y-11398214D01*
X9241071Y-11398214D02*
X9269643Y-11398214D01*
X9298214Y-11412500D01*
X9312500Y-11426786D01*
X9326786Y-11455357D01*
X9341071Y-11512500D01*
X9341071Y-11583929D01*
X9326786Y-11641071D01*
X9312500Y-11669643D01*
X9298214Y-11683929D01*
X9269643Y-11698214D01*
X9241071Y-11698214D01*
X9212500Y-11683929D01*
X9198214Y-11669643D01*
X9183928Y-11641071D01*
X9169643Y-11583929D01*
X9169643Y-11512500D01*
X9183928Y-11455357D01*
X9198214Y-11426786D01*
X9212500Y-11412500D01*
X9241071Y-11398214D01*
X9469643Y-11698214D02*
X9469643Y-11498214D01*
X9469643Y-11526786D02*
X9483928Y-11512500D01*
X9512500Y-11498214D01*
X9555357Y-11498214D01*
X9583928Y-11512500D01*
X9598214Y-11541071D01*
X9598214Y-11698214D01*
X9598214Y-11541071D02*
X9612500Y-11512500D01*
X9641071Y-11498214D01*
X9683928Y-11498214D01*
X9712500Y-11512500D01*
X9726786Y-11541071D01*
X9726786Y-11698214D01*
X9869643Y-11698214D02*
X9869643Y-11498214D01*
X9869643Y-11526786D02*
X9883928Y-11512500D01*
X9912500Y-11498214D01*
X9955357Y-11498214D01*
X9983928Y-11512500D01*
X9998214Y-11541071D01*
X9998214Y-11698214D01*
X9998214Y-11541071D02*
X10012500Y-11512500D01*
X10041071Y-11498214D01*
X10083928Y-11498214D01*
X10112500Y-11512500D01*
X10126786Y-11541071D01*
X10126786Y-11698214D01*
X10712500Y-11383929D02*
X10455357Y-11769643D01*
X11098214Y-11398214D02*
X11126786Y-11398214D01*
X11155357Y-11412500D01*
X11169643Y-11426786D01*
X11183928Y-11455357D01*
X11198214Y-11512500D01*
X11198214Y-11583929D01*
X11183928Y-11641071D01*
X11169643Y-11669643D01*
X11155357Y-11683929D01*
X11126786Y-11698214D01*
X11098214Y-11698214D01*
X11069643Y-11683929D01*
X11055357Y-11669643D01*
X11041071Y-11641071D01*
X11026786Y-11583929D01*
X11026786Y-11512500D01*
X11041071Y-11455357D01*
X11055357Y-11426786D01*
X11069643Y-11412500D01*
X11098214Y-11398214D01*
X11326786Y-11669643D02*
X11341071Y-11683929D01*
X11326786Y-11698214D01*
X11312500Y-11683929D01*
X11326786Y-11669643D01*
X11326786Y-11698214D01*
X11626786Y-11698214D02*
X11455357Y-11698214D01*
X11541071Y-11698214D02*
X11541071Y-11398214D01*
X11512500Y-11441071D01*
X11483928Y-11469643D01*
X11455357Y-11483929D01*
X11741071Y-11426786D02*
X11755357Y-11412500D01*
X11783928Y-11398214D01*
X11855357Y-11398214D01*
X11883928Y-11412500D01*
X11898214Y-11426786D01*
X11912500Y-11455357D01*
X11912500Y-11483929D01*
X11898214Y-11526786D01*
X11726786Y-11698214D01*
X11912500Y-11698214D01*
X12169643Y-11398214D02*
X12112500Y-11398214D01*
X12083928Y-11412500D01*
X12069643Y-11426786D01*
X12041071Y-11469643D01*
X12026786Y-11526786D01*
X12026786Y-11641071D01*
X12041071Y-11669643D01*
X12055357Y-11683929D01*
X12083928Y-11698214D01*
X12141071Y-11698214D01*
X12169643Y-11683929D01*
X12183928Y-11669643D01*
X12198214Y-11641071D01*
X12198214Y-11569643D01*
X12183928Y-11541071D01*
X12169643Y-11526786D01*
X12141071Y-11512500D01*
X12083928Y-11512500D01*
X12055357Y-11526786D01*
X12041071Y-11541071D01*
X12026786Y-11569643D01*
X12383928Y-11398214D02*
X12412500Y-11398214D01*
X12441071Y-11412500D01*
X12455357Y-11426786D01*
X12469643Y-11455357D01*
X12483928Y-11512500D01*
X12483928Y-11583929D01*
X12469643Y-11641071D01*
X12455357Y-11669643D01*
X12441071Y-11683929D01*
X12412500Y-11698214D01*
X12383928Y-11698214D01*
X12355357Y-11683929D01*
X12341071Y-11669643D01*
X12326786Y-11641071D01*
X12312500Y-11583929D01*
X12312500Y-11512500D01*
X12326786Y-11455357D01*
X12341071Y-11426786D01*
X12355357Y-11412500D01*
X12383928Y-11398214D01*
X12598214Y-11398214D02*
X12598214Y-11455357D01*
X12712500Y-11398214D02*
X12712500Y-11455357D01*
X13155357Y-11812500D02*
X13141071Y-11798214D01*
X13112500Y-11755357D01*
X13098214Y-11726786D01*
X13083928Y-11683929D01*
X13069643Y-11612500D01*
X13069643Y-11555357D01*
X13083928Y-11483929D01*
X13098214Y-11441071D01*
X13112500Y-11412500D01*
X13141071Y-11369643D01*
X13155357Y-11355357D01*
X13426786Y-11698214D02*
X13255357Y-11698214D01*
X13341071Y-11698214D02*
X13341071Y-11398214D01*
X13312500Y-11441071D01*
X13283928Y-11469643D01*
X13255357Y-11483929D01*
X13783928Y-11698214D02*
X13783928Y-11398214D01*
X13912500Y-11698214D02*
X13912500Y-11541071D01*
X13898214Y-11512500D01*
X13869643Y-11498214D01*
X13826786Y-11498214D01*
X13798214Y-11512500D01*
X13783928Y-11526786D01*
X14098214Y-11698214D02*
X14069643Y-11683929D01*
X14055357Y-11669643D01*
X14041071Y-11641071D01*
X14041071Y-11555357D01*
X14055357Y-11526786D01*
X14069643Y-11512500D01*
X14098214Y-11498214D01*
X14141071Y-11498214D01*
X14169643Y-11512500D01*
X14183928Y-11526786D01*
X14198214Y-11555357D01*
X14198214Y-11641071D01*
X14183928Y-11669643D01*
X14169643Y-11683929D01*
X14141071Y-11698214D01*
X14098214Y-11698214D01*
X14369643Y-11698214D02*
X14341071Y-11683929D01*
X14326786Y-11655357D01*
X14326786Y-11398214D01*
X14598214Y-11683929D02*
X14569643Y-11698214D01*
X14512500Y-11698214D01*
X14483928Y-11683929D01*
X14469643Y-11655357D01*
X14469643Y-11541071D01*
X14483928Y-11512500D01*
X14512500Y-11498214D01*
X14569643Y-11498214D01*
X14598214Y-11512500D01*
X14612500Y-11541071D01*
X14612500Y-11569643D01*
X14469643Y-11598214D01*
X14712500Y-11812500D02*
X14726786Y-11798214D01*
X14755357Y-11755357D01*
X14769643Y-11726786D01*
X14783928Y-11683929D01*
X14798214Y-11612500D01*
X14798214Y-11555357D01*
X14783928Y-11483929D01*
X14769643Y-11441071D01*
X14755357Y-11412500D01*
X14726786Y-11369643D01*
X14712500Y-11355357D01*
X15255357Y-11812500D02*
X15241071Y-11798214D01*
X15212500Y-11755357D01*
X15198214Y-11726786D01*
X15183928Y-11683929D01*
X15169643Y-11612500D01*
X15169643Y-11555357D01*
X15183928Y-11483929D01*
X15198214Y-11441071D01*
X15212500Y-11412500D01*
X15241071Y-11369643D01*
X15255357Y-11355357D01*
X15369643Y-11498214D02*
X15369643Y-11698214D01*
X15369643Y-11526786D02*
X15383928Y-11512500D01*
X15412500Y-11498214D01*
X15455357Y-11498214D01*
X15483928Y-11512500D01*
X15498214Y-11541071D01*
X15498214Y-11698214D01*
X15683928Y-11698214D02*
X15655357Y-11683929D01*
X15641071Y-11669643D01*
X15626786Y-11641071D01*
X15626786Y-11555357D01*
X15641071Y-11526786D01*
X15655357Y-11512500D01*
X15683928Y-11498214D01*
X15726786Y-11498214D01*
X15755357Y-11512500D01*
X15769643Y-11526786D01*
X15783928Y-11555357D01*
X15783928Y-11641071D01*
X15769643Y-11669643D01*
X15755357Y-11683929D01*
X15726786Y-11698214D01*
X15683928Y-11698214D01*
X15869643Y-11498214D02*
X15983928Y-11498214D01*
X15912500Y-11398214D02*
X15912500Y-11655357D01*
X15926786Y-11683929D01*
X15955357Y-11698214D01*
X15983928Y-11698214D01*
X16312500Y-11498214D02*
X16312500Y-11798214D01*
X16312500Y-11512500D02*
X16341071Y-11498214D01*
X16398214Y-11498214D01*
X16426786Y-11512500D01*
X16441071Y-11526786D01*
X16455357Y-11555357D01*
X16455357Y-11641071D01*
X16441071Y-11669643D01*
X16426786Y-11683929D01*
X16398214Y-11698214D01*
X16341071Y-11698214D01*
X16312500Y-11683929D01*
X16626786Y-11698214D02*
X16598214Y-11683929D01*
X16583928Y-11655357D01*
X16583928Y-11398214D01*
X16869643Y-11698214D02*
X16869643Y-11541071D01*
X16855357Y-11512500D01*
X16826786Y-11498214D01*
X16769643Y-11498214D01*
X16741071Y-11512500D01*
X16869643Y-11683929D02*
X16841071Y-11698214D01*
X16769643Y-11698214D01*
X16741071Y-11683929D01*
X16726786Y-11655357D01*
X16726786Y-11626786D01*
X16741071Y-11598214D01*
X16769643Y-11583929D01*
X16841071Y-11583929D01*
X16869643Y-11569643D01*
X16969643Y-11498214D02*
X17083928Y-11498214D01*
X17012500Y-11398214D02*
X17012500Y-11655357D01*
X17026786Y-11683929D01*
X17055357Y-11698214D01*
X17083928Y-11698214D01*
X17298214Y-11683929D02*
X17269643Y-11698214D01*
X17212500Y-11698214D01*
X17183928Y-11683929D01*
X17169643Y-11655357D01*
X17169643Y-11541071D01*
X17183928Y-11512500D01*
X17212500Y-11498214D01*
X17269643Y-11498214D01*
X17298214Y-11512500D01*
X17312500Y-11541071D01*
X17312500Y-11569643D01*
X17169643Y-11598214D01*
X17569643Y-11698214D02*
X17569643Y-11398214D01*
X17569643Y-11683929D02*
X17541071Y-11698214D01*
X17483928Y-11698214D01*
X17455357Y-11683929D01*
X17441071Y-11669643D01*
X17426786Y-11641071D01*
X17426786Y-11555357D01*
X17441071Y-11526786D01*
X17455357Y-11512500D01*
X17483928Y-11498214D01*
X17541071Y-11498214D01*
X17569643Y-11512500D01*
X17683928Y-11812500D02*
X17698214Y-11798214D01*
X17726786Y-11755357D01*
X17741071Y-11726786D01*
X17755357Y-11683929D01*
X17769643Y-11612500D01*
X17769643Y-11555357D01*
X17755357Y-11483929D01*
X17741071Y-11441071D01*
X17726786Y-11412500D01*
X17698214Y-11369643D01*
X17683928Y-11355357D01*
M02*
