%TF.GenerationSoftware,KiCad,Pcbnew,5.99.0+really5.1.10+dfsg1-1*%
%TF.CreationDate,2022-02-16T19:45:23+00:00*%
%TF.ProjectId,mayor,6d61796f-722e-46b6-9963-61645f706362,rev?*%
%TF.SameCoordinates,Original*%
%TF.FileFunction,Copper,L1,Top*%
%TF.FilePolarity,Positive*%
%FSLAX46Y46*%
G04 Gerber Fmt 4.6, Leading zero omitted, Abs format (unit mm)*
G04 Created by KiCad (PCBNEW 5.99.0+really5.1.10+dfsg1-1) date 2022-02-16 19:45:23*
%MOMM*%
%LPD*%
G01*
G04 APERTURE LIST*
%TA.AperFunction,ComponentPad*%
%ADD10R,1.700000X1.700000*%
%TD*%
%TA.AperFunction,ComponentPad*%
%ADD11O,1.700000X1.700000*%
%TD*%
%TA.AperFunction,ComponentPad*%
%ADD12R,1.600000X1.600000*%
%TD*%
%TA.AperFunction,ComponentPad*%
%ADD13O,1.600000X1.600000*%
%TD*%
%TA.AperFunction,ComponentPad*%
%ADD14C,1.600000*%
%TD*%
%TA.AperFunction,ComponentPad*%
%ADD15R,3.500000X3.500000*%
%TD*%
%TA.AperFunction,ComponentPad*%
%ADD16O,1.750000X1.200000*%
%TD*%
%TA.AperFunction,ComponentPad*%
%ADD17C,1.500000*%
%TD*%
%TA.AperFunction,ComponentPad*%
%ADD18C,1.524000*%
%TD*%
%TA.AperFunction,Conductor*%
%ADD19C,1.000000*%
%TD*%
%TA.AperFunction,Conductor*%
%ADD20C,0.250000*%
%TD*%
%TA.AperFunction,Conductor*%
%ADD21C,0.254000*%
%TD*%
%TA.AperFunction,Conductor*%
%ADD22C,0.100000*%
%TD*%
G04 APERTURE END LIST*
D10*
%TO.P,J2,1*%
%TO.N,MISO*%
X120650000Y-95520000D03*
D11*
%TO.P,J2,2*%
%TO.N,+5V*%
X123190000Y-95520000D03*
%TO.P,J2,3*%
%TO.N,LED_Data*%
X120650000Y-98060000D03*
%TO.P,J2,4*%
%TO.N,MOSI*%
X123190000Y-98060000D03*
%TO.P,J2,5*%
%TO.N,~RESET*%
X120650000Y-100600000D03*
%TO.P,J2,6*%
%TO.N,GND*%
X123190000Y-100600000D03*
%TD*%
D12*
%TO.P,U1,1*%
%TO.N,~RESET*%
X109220000Y-94250000D03*
D13*
%TO.P,U1,5*%
%TO.N,MOSI*%
X116840000Y-101870000D03*
%TO.P,U1,2*%
%TO.N,Light*%
X109220000Y-96790000D03*
%TO.P,U1,6*%
%TO.N,MISO*%
X116840000Y-99330000D03*
%TO.P,U1,3*%
%TO.N,Tilt*%
X109220000Y-99330000D03*
%TO.P,U1,7*%
%TO.N,LED_Data*%
X116840000Y-96790000D03*
%TO.P,U1,4*%
%TO.N,GND*%
X109220000Y-101870000D03*
%TO.P,U1,8*%
%TO.N,+5V*%
X116840000Y-94250000D03*
%TD*%
D12*
%TO.P,C1,1*%
%TO.N,+5V*%
X130810000Y-101870000D03*
D14*
%TO.P,C1,2*%
%TO.N,GND*%
X128310000Y-101870000D03*
%TD*%
D15*
%TO.P,J1,1*%
%TO.N,+5V*%
X88550000Y-98060000D03*
%TO.P,J1,2*%
%TO.N,GND*%
%TA.AperFunction,ComponentPad*%
G36*
G01*
X81050000Y-99060000D02*
X81050000Y-97060000D01*
G75*
G02*
X81800000Y-96310000I750000J0D01*
G01*
X83300000Y-96310000D01*
G75*
G02*
X84050000Y-97060000I0J-750000D01*
G01*
X84050000Y-99060000D01*
G75*
G02*
X83300000Y-99810000I-750000J0D01*
G01*
X81800000Y-99810000D01*
G75*
G02*
X81050000Y-99060000I0J750000D01*
G01*
G37*
%TD.AperFunction*%
%TO.P,J1,3*%
%TO.N,N/C*%
%TA.AperFunction,ComponentPad*%
G36*
G01*
X83800000Y-103635000D02*
X83800000Y-101885000D01*
G75*
G02*
X84675000Y-101010000I875000J0D01*
G01*
X86425000Y-101010000D01*
G75*
G02*
X87300000Y-101885000I0J-875000D01*
G01*
X87300000Y-103635000D01*
G75*
G02*
X86425000Y-104510000I-875000J0D01*
G01*
X84675000Y-104510000D01*
G75*
G02*
X83800000Y-103635000I0J875000D01*
G01*
G37*
%TD.AperFunction*%
%TD*%
%TO.P,J3,1*%
%TO.N,+5V*%
%TA.AperFunction,ComponentPad*%
G36*
G01*
X136515001Y-101200000D02*
X135264999Y-101200000D01*
G75*
G02*
X135015000Y-100950001I0J249999D01*
G01*
X135015000Y-100249999D01*
G75*
G02*
X135264999Y-100000000I249999J0D01*
G01*
X136515001Y-100000000D01*
G75*
G02*
X136765000Y-100249999I0J-249999D01*
G01*
X136765000Y-100950001D01*
G75*
G02*
X136515001Y-101200000I-249999J0D01*
G01*
G37*
%TD.AperFunction*%
D16*
%TO.P,J3,2*%
%TO.N,LED_Data*%
X135890000Y-98600000D03*
%TO.P,J3,3*%
%TO.N,GND*%
X135890000Y-96600000D03*
%TD*%
D14*
%TO.P,R1,1*%
%TO.N,+5V*%
X104140000Y-92980000D03*
D13*
%TO.P,R1,2*%
%TO.N,Light*%
X104140000Y-103140000D03*
%TD*%
D17*
%TO.P,R2,1*%
%TO.N,Light*%
X92595001Y-100600000D03*
%TO.P,R2,2*%
%TO.N,GND*%
X95995001Y-100600000D03*
%TD*%
D13*
%TO.P,R3,2*%
%TO.N,Tilt*%
X100330000Y-103140000D03*
D14*
%TO.P,R3,1*%
%TO.N,+5V*%
X100330000Y-92980000D03*
%TD*%
D18*
%TO.P,SW1,1*%
%TO.N,Tilt*%
X95250000Y-96790000D03*
X95250000Y-94250000D03*
%TO.P,SW1,2*%
%TO.N,GND*%
X92710000Y-96790000D03*
X92710000Y-94250000D03*
%TD*%
D10*
%TO.P,J4,1*%
%TO.N,+5V*%
X86995000Y-92345000D03*
D11*
%TO.P,J4,2*%
%TO.N,GND*%
X84455000Y-92345000D03*
%TD*%
D10*
%TO.P,J5,1*%
%TO.N,+5V*%
X139700000Y-101235000D03*
D11*
%TO.P,J5,2*%
%TO.N,LED_Data*%
X139700000Y-98695000D03*
%TO.P,J5,3*%
%TO.N,GND*%
X139700000Y-96155000D03*
%TD*%
D19*
%TO.N,+5V*%
X86995000Y-96505000D02*
X88550000Y-98060000D01*
X86995000Y-92345000D02*
X86995000Y-96505000D01*
X99695000Y-92345000D02*
X100330000Y-92980000D01*
X86995000Y-92345000D02*
X99695000Y-92345000D01*
X100330000Y-92980000D02*
X104140000Y-92980000D01*
X114770001Y-92180001D02*
X116840000Y-94250000D01*
X104939999Y-92180001D02*
X114770001Y-92180001D01*
X104140000Y-92980000D02*
X104939999Y-92180001D01*
X123190000Y-94317919D02*
X123190000Y-95520000D01*
X122322082Y-93450001D02*
X123190000Y-94317919D01*
X117639999Y-93450001D02*
X122322082Y-93450001D01*
X116840000Y-94250000D02*
X117639999Y-93450001D01*
X124460000Y-95520000D02*
X130810000Y-101870000D01*
X123190000Y-95520000D02*
X124460000Y-95520000D01*
X134620000Y-101870000D02*
X135890000Y-100600000D01*
X130810000Y-101870000D02*
X134620000Y-101870000D01*
X139065000Y-100600000D02*
X139700000Y-101235000D01*
X135890000Y-100600000D02*
X139065000Y-100600000D01*
D20*
%TO.N,MISO*%
X115714999Y-98204999D02*
X116840000Y-99330000D01*
X115714999Y-96249999D02*
X115714999Y-98204999D01*
X116444998Y-95520000D02*
X115714999Y-96249999D01*
X120650000Y-95520000D02*
X116444998Y-95520000D01*
%TO.N,LED_Data*%
X119380000Y-96790000D02*
X120650000Y-98060000D01*
X116840000Y-96790000D02*
X119380000Y-96790000D01*
X140875001Y-99870001D02*
X139700000Y-98695000D01*
X140875001Y-102345001D02*
X140875001Y-99870001D01*
X140225001Y-102995001D02*
X140875001Y-102345001D01*
X127769999Y-102995001D02*
X140225001Y-102995001D01*
X127184999Y-102410001D02*
X127769999Y-102995001D01*
X127184999Y-100315997D02*
X127184999Y-102410001D01*
X123754001Y-96884999D02*
X127184999Y-100315997D01*
X121825001Y-96884999D02*
X123754001Y-96884999D01*
X120650000Y-98060000D02*
X121825001Y-96884999D01*
X135985000Y-98695000D02*
X135890000Y-98600000D01*
X139700000Y-98695000D02*
X135985000Y-98695000D01*
%TO.N,MOSI*%
X119474999Y-99235001D02*
X116840000Y-101870000D01*
X122014999Y-99235001D02*
X119474999Y-99235001D01*
X123190000Y-98060000D02*
X122014999Y-99235001D01*
%TO.N,~RESET*%
X110345001Y-95375001D02*
X109220000Y-94250000D01*
X110345001Y-97040003D02*
X110345001Y-95375001D01*
X116299999Y-102995001D02*
X110345001Y-97040003D01*
X118254999Y-102995001D02*
X116299999Y-102995001D01*
X120650000Y-100600000D02*
X118254999Y-102995001D01*
%TO.N,Light*%
X103014999Y-104265001D02*
X104140000Y-103140000D01*
X96260002Y-104265001D02*
X103014999Y-104265001D01*
X92595001Y-100600000D02*
X96260002Y-104265001D01*
X110345001Y-97915001D02*
X109220000Y-96790000D01*
X110345001Y-102410001D02*
X110345001Y-97915001D01*
X109615002Y-103140000D02*
X110345001Y-102410001D01*
X104140000Y-103140000D02*
X109615002Y-103140000D01*
%TO.N,Tilt*%
X95250000Y-94250000D02*
X95250000Y-96790000D01*
X95250000Y-98060000D02*
X100330000Y-103140000D01*
X95250000Y-96790000D02*
X95250000Y-98060000D01*
X104140000Y-99330000D02*
X109220000Y-99330000D01*
X100330000Y-103140000D02*
X104140000Y-99330000D01*
%TD*%
D21*
%TO.N,+5V*%
X142598001Y-105598000D02*
X79402000Y-105598000D01*
X79402000Y-101885000D01*
X83421176Y-101885000D01*
X83421176Y-103635000D01*
X83445268Y-103879609D01*
X83516618Y-104114818D01*
X83632483Y-104331587D01*
X83788413Y-104521587D01*
X83978413Y-104677517D01*
X84195182Y-104793382D01*
X84430391Y-104864732D01*
X84675000Y-104888824D01*
X86425000Y-104888824D01*
X86669609Y-104864732D01*
X86904818Y-104793382D01*
X87121587Y-104677517D01*
X87311587Y-104521587D01*
X87467517Y-104331587D01*
X87583382Y-104114818D01*
X87654732Y-103879609D01*
X87678824Y-103635000D01*
X87678824Y-101885000D01*
X87654732Y-101640391D01*
X87583382Y-101405182D01*
X87467517Y-101188413D01*
X87311587Y-100998413D01*
X87121587Y-100842483D01*
X86904818Y-100726618D01*
X86669609Y-100655268D01*
X86425000Y-100631176D01*
X84675000Y-100631176D01*
X84430391Y-100655268D01*
X84195182Y-100726618D01*
X83978413Y-100842483D01*
X83788413Y-100998413D01*
X83632483Y-101188413D01*
X83516618Y-101405182D01*
X83445268Y-101640391D01*
X83421176Y-101885000D01*
X79402000Y-101885000D01*
X79402000Y-100489000D01*
X91468001Y-100489000D01*
X91468001Y-100711000D01*
X91511311Y-100928734D01*
X91596267Y-101133835D01*
X91719603Y-101318421D01*
X91876580Y-101475398D01*
X92061166Y-101598734D01*
X92266267Y-101683690D01*
X92484001Y-101727000D01*
X92706001Y-101727000D01*
X92923735Y-101683690D01*
X92955570Y-101670503D01*
X95887605Y-104602539D01*
X95903318Y-104621685D01*
X95979757Y-104684418D01*
X96066966Y-104731032D01*
X96161593Y-104759737D01*
X96235349Y-104767001D01*
X96235358Y-104767001D01*
X96260001Y-104769428D01*
X96284644Y-104767001D01*
X102990356Y-104767001D01*
X103014999Y-104769428D01*
X103039642Y-104767001D01*
X103039652Y-104767001D01*
X103113408Y-104759737D01*
X103208035Y-104731032D01*
X103295244Y-104684418D01*
X103371683Y-104621685D01*
X103387400Y-104602534D01*
X103741163Y-104248772D01*
X103796682Y-104271769D01*
X104024076Y-104317000D01*
X104255924Y-104317000D01*
X104483318Y-104271769D01*
X104697519Y-104183044D01*
X104890294Y-104054236D01*
X105054236Y-103890294D01*
X105183044Y-103697519D01*
X105206041Y-103642000D01*
X109590359Y-103642000D01*
X109615002Y-103644427D01*
X109639645Y-103642000D01*
X109639655Y-103642000D01*
X109713411Y-103634736D01*
X109808038Y-103606031D01*
X109895247Y-103559417D01*
X109971686Y-103496684D01*
X109987403Y-103477533D01*
X110682539Y-102782398D01*
X110701685Y-102766685D01*
X110717401Y-102747536D01*
X110764417Y-102690247D01*
X110764418Y-102690246D01*
X110811032Y-102603037D01*
X110839737Y-102508410D01*
X110847001Y-102434654D01*
X110847001Y-102434645D01*
X110849428Y-102410002D01*
X110847001Y-102385359D01*
X110847001Y-98251937D01*
X115927602Y-103332539D01*
X115943315Y-103351685D01*
X116019754Y-103414418D01*
X116106963Y-103461032D01*
X116201590Y-103489737D01*
X116275346Y-103497001D01*
X116275356Y-103497001D01*
X116299999Y-103499428D01*
X116324642Y-103497001D01*
X118230356Y-103497001D01*
X118254999Y-103499428D01*
X118279642Y-103497001D01*
X118279652Y-103497001D01*
X118353408Y-103489737D01*
X118448035Y-103461032D01*
X118535244Y-103414418D01*
X118611683Y-103351685D01*
X118627401Y-103332534D01*
X120212895Y-101747040D01*
X120292097Y-101779847D01*
X120529151Y-101827000D01*
X120770849Y-101827000D01*
X121007903Y-101779847D01*
X121231202Y-101687353D01*
X121432167Y-101553073D01*
X121603073Y-101382167D01*
X121737353Y-101181202D01*
X121829847Y-100957903D01*
X121877000Y-100720849D01*
X121877000Y-100479151D01*
X121963000Y-100479151D01*
X121963000Y-100720849D01*
X122010153Y-100957903D01*
X122102647Y-101181202D01*
X122236927Y-101382167D01*
X122407833Y-101553073D01*
X122608798Y-101687353D01*
X122832097Y-101779847D01*
X123069151Y-101827000D01*
X123310849Y-101827000D01*
X123547903Y-101779847D01*
X123771202Y-101687353D01*
X123972167Y-101553073D01*
X124143073Y-101382167D01*
X124277353Y-101181202D01*
X124369847Y-100957903D01*
X124417000Y-100720849D01*
X124417000Y-100479151D01*
X124369847Y-100242097D01*
X124277353Y-100018798D01*
X124143073Y-99817833D01*
X123972167Y-99646927D01*
X123771202Y-99512647D01*
X123547903Y-99420153D01*
X123310849Y-99373000D01*
X123069151Y-99373000D01*
X122832097Y-99420153D01*
X122608798Y-99512647D01*
X122407833Y-99646927D01*
X122236927Y-99817833D01*
X122102647Y-100018798D01*
X122010153Y-100242097D01*
X121963000Y-100479151D01*
X121877000Y-100479151D01*
X121829847Y-100242097D01*
X121737353Y-100018798D01*
X121603073Y-99817833D01*
X121522241Y-99737001D01*
X121990356Y-99737001D01*
X122014999Y-99739428D01*
X122039642Y-99737001D01*
X122039652Y-99737001D01*
X122113408Y-99729737D01*
X122208035Y-99701032D01*
X122295244Y-99654418D01*
X122371683Y-99591685D01*
X122387400Y-99572534D01*
X122752894Y-99207040D01*
X122832097Y-99239847D01*
X123069151Y-99287000D01*
X123310849Y-99287000D01*
X123547903Y-99239847D01*
X123771202Y-99147353D01*
X123972167Y-99013073D01*
X124143073Y-98842167D01*
X124277353Y-98641202D01*
X124369847Y-98417903D01*
X124404211Y-98245143D01*
X126682999Y-100523932D01*
X126683000Y-102385348D01*
X126680572Y-102410001D01*
X126690264Y-102508410D01*
X126718969Y-102603037D01*
X126765583Y-102690246D01*
X126812600Y-102747536D01*
X126812601Y-102747537D01*
X126828316Y-102766685D01*
X126847462Y-102782398D01*
X127397602Y-103332539D01*
X127413315Y-103351685D01*
X127489754Y-103414418D01*
X127576963Y-103461032D01*
X127671590Y-103489737D01*
X127745346Y-103497001D01*
X127745356Y-103497001D01*
X127769999Y-103499428D01*
X127794642Y-103497001D01*
X140200358Y-103497001D01*
X140225001Y-103499428D01*
X140249644Y-103497001D01*
X140249654Y-103497001D01*
X140323410Y-103489737D01*
X140418037Y-103461032D01*
X140505246Y-103414418D01*
X140581685Y-103351685D01*
X140597402Y-103332534D01*
X141212544Y-102717394D01*
X141231685Y-102701685D01*
X141247393Y-102682545D01*
X141247401Y-102682537D01*
X141294417Y-102625247D01*
X141294418Y-102625246D01*
X141341032Y-102538037D01*
X141369737Y-102443410D01*
X141377001Y-102369654D01*
X141377001Y-102369644D01*
X141379428Y-102345001D01*
X141377001Y-102320358D01*
X141377001Y-99894643D01*
X141379428Y-99870000D01*
X141377001Y-99845357D01*
X141377001Y-99845348D01*
X141369737Y-99771592D01*
X141341032Y-99676965D01*
X141294418Y-99589756D01*
X141231685Y-99513317D01*
X141212539Y-99497604D01*
X140847040Y-99132105D01*
X140879847Y-99052903D01*
X140927000Y-98815849D01*
X140927000Y-98574151D01*
X140879847Y-98337097D01*
X140787353Y-98113798D01*
X140653073Y-97912833D01*
X140482167Y-97741927D01*
X140281202Y-97607647D01*
X140057903Y-97515153D01*
X139820849Y-97468000D01*
X139579151Y-97468000D01*
X139342097Y-97515153D01*
X139118798Y-97607647D01*
X138917833Y-97741927D01*
X138746927Y-97912833D01*
X138612647Y-98113798D01*
X138579840Y-98193000D01*
X137055262Y-98193000D01*
X136981276Y-98054582D01*
X136859186Y-97905814D01*
X136710418Y-97783724D01*
X136540691Y-97693003D01*
X136356525Y-97637137D01*
X136212993Y-97623000D01*
X135567007Y-97623000D01*
X135423475Y-97637137D01*
X135239309Y-97693003D01*
X135069582Y-97783724D01*
X134920814Y-97905814D01*
X134798724Y-98054582D01*
X134708003Y-98224309D01*
X134652137Y-98408475D01*
X134633273Y-98600000D01*
X134652137Y-98791525D01*
X134708003Y-98975691D01*
X134798724Y-99145418D01*
X134920814Y-99294186D01*
X135004606Y-99362952D01*
X134890518Y-99374188D01*
X134770820Y-99410498D01*
X134660506Y-99469463D01*
X134563815Y-99548815D01*
X134484463Y-99645506D01*
X134425498Y-99755820D01*
X134389188Y-99875518D01*
X134376928Y-100000000D01*
X134380000Y-100314250D01*
X134538750Y-100473000D01*
X135763000Y-100473000D01*
X135763000Y-100453000D01*
X136017000Y-100453000D01*
X136017000Y-100473000D01*
X137241250Y-100473000D01*
X137400000Y-100314250D01*
X137403072Y-100000000D01*
X137390812Y-99875518D01*
X137354502Y-99755820D01*
X137295537Y-99645506D01*
X137216185Y-99548815D01*
X137119494Y-99469463D01*
X137009180Y-99410498D01*
X136889482Y-99374188D01*
X136775394Y-99362952D01*
X136859186Y-99294186D01*
X136938944Y-99197000D01*
X138579840Y-99197000D01*
X138612647Y-99276202D01*
X138746927Y-99477167D01*
X138917833Y-99648073D01*
X139067553Y-99748112D01*
X138850000Y-99746928D01*
X138725518Y-99759188D01*
X138605820Y-99795498D01*
X138495506Y-99854463D01*
X138398815Y-99933815D01*
X138319463Y-100030506D01*
X138260498Y-100140820D01*
X138224188Y-100260518D01*
X138211928Y-100385000D01*
X138215000Y-100949250D01*
X138373750Y-101108000D01*
X139573000Y-101108000D01*
X139573000Y-101088000D01*
X139827000Y-101088000D01*
X139827000Y-101108000D01*
X139847000Y-101108000D01*
X139847000Y-101362000D01*
X139827000Y-101362000D01*
X139827000Y-101382000D01*
X139573000Y-101382000D01*
X139573000Y-101362000D01*
X138373750Y-101362000D01*
X138215000Y-101520750D01*
X138211928Y-102085000D01*
X138224188Y-102209482D01*
X138260498Y-102329180D01*
X138319463Y-102439494D01*
X138363375Y-102493001D01*
X132247015Y-102493001D01*
X132245000Y-102155750D01*
X132086250Y-101997000D01*
X130937000Y-101997000D01*
X130937000Y-102017000D01*
X130683000Y-102017000D01*
X130683000Y-101997000D01*
X130663000Y-101997000D01*
X130663000Y-101743000D01*
X130683000Y-101743000D01*
X130683000Y-100593750D01*
X130937000Y-100593750D01*
X130937000Y-101743000D01*
X132086250Y-101743000D01*
X132245000Y-101584250D01*
X132247295Y-101200000D01*
X134376928Y-101200000D01*
X134389188Y-101324482D01*
X134425498Y-101444180D01*
X134484463Y-101554494D01*
X134563815Y-101651185D01*
X134660506Y-101730537D01*
X134770820Y-101789502D01*
X134890518Y-101825812D01*
X135015000Y-101838072D01*
X135604250Y-101835000D01*
X135763000Y-101676250D01*
X135763000Y-100727000D01*
X136017000Y-100727000D01*
X136017000Y-101676250D01*
X136175750Y-101835000D01*
X136765000Y-101838072D01*
X136889482Y-101825812D01*
X137009180Y-101789502D01*
X137119494Y-101730537D01*
X137216185Y-101651185D01*
X137295537Y-101554494D01*
X137354502Y-101444180D01*
X137390812Y-101324482D01*
X137403072Y-101200000D01*
X137400000Y-100885750D01*
X137241250Y-100727000D01*
X136017000Y-100727000D01*
X135763000Y-100727000D01*
X134538750Y-100727000D01*
X134380000Y-100885750D01*
X134376928Y-101200000D01*
X132247295Y-101200000D01*
X132248072Y-101070000D01*
X132235812Y-100945518D01*
X132199502Y-100825820D01*
X132140537Y-100715506D01*
X132061185Y-100618815D01*
X131964494Y-100539463D01*
X131854180Y-100480498D01*
X131734482Y-100444188D01*
X131610000Y-100431928D01*
X131095750Y-100435000D01*
X130937000Y-100593750D01*
X130683000Y-100593750D01*
X130524250Y-100435000D01*
X130010000Y-100431928D01*
X129885518Y-100444188D01*
X129765820Y-100480498D01*
X129655506Y-100539463D01*
X129558815Y-100618815D01*
X129479463Y-100715506D01*
X129420498Y-100825820D01*
X129384188Y-100945518D01*
X129371928Y-101070000D01*
X129373674Y-101362286D01*
X129353044Y-101312481D01*
X129224236Y-101119706D01*
X129060294Y-100955764D01*
X128867519Y-100826956D01*
X128653318Y-100738231D01*
X128425924Y-100693000D01*
X128194076Y-100693000D01*
X127966682Y-100738231D01*
X127752481Y-100826956D01*
X127686999Y-100870710D01*
X127686999Y-100340640D01*
X127689426Y-100315997D01*
X127686999Y-100291354D01*
X127686999Y-100291344D01*
X127679735Y-100217588D01*
X127651030Y-100122961D01*
X127604416Y-100035752D01*
X127541683Y-99959313D01*
X127522537Y-99943600D01*
X124188511Y-96609575D01*
X124199133Y-96600000D01*
X134633273Y-96600000D01*
X134652137Y-96791525D01*
X134708003Y-96975691D01*
X134798724Y-97145418D01*
X134920814Y-97294186D01*
X135069582Y-97416276D01*
X135239309Y-97506997D01*
X135423475Y-97562863D01*
X135567007Y-97577000D01*
X136212993Y-97577000D01*
X136356525Y-97562863D01*
X136540691Y-97506997D01*
X136710418Y-97416276D01*
X136859186Y-97294186D01*
X136981276Y-97145418D01*
X137071997Y-96975691D01*
X137127863Y-96791525D01*
X137146727Y-96600000D01*
X137127863Y-96408475D01*
X137071997Y-96224309D01*
X136981276Y-96054582D01*
X136964509Y-96034151D01*
X138473000Y-96034151D01*
X138473000Y-96275849D01*
X138520153Y-96512903D01*
X138612647Y-96736202D01*
X138746927Y-96937167D01*
X138917833Y-97108073D01*
X139118798Y-97242353D01*
X139342097Y-97334847D01*
X139579151Y-97382000D01*
X139820849Y-97382000D01*
X140057903Y-97334847D01*
X140281202Y-97242353D01*
X140482167Y-97108073D01*
X140653073Y-96937167D01*
X140787353Y-96736202D01*
X140879847Y-96512903D01*
X140927000Y-96275849D01*
X140927000Y-96034151D01*
X140879847Y-95797097D01*
X140787353Y-95573798D01*
X140653073Y-95372833D01*
X140482167Y-95201927D01*
X140281202Y-95067647D01*
X140057903Y-94975153D01*
X139820849Y-94928000D01*
X139579151Y-94928000D01*
X139342097Y-94975153D01*
X139118798Y-95067647D01*
X138917833Y-95201927D01*
X138746927Y-95372833D01*
X138612647Y-95573798D01*
X138520153Y-95797097D01*
X138473000Y-96034151D01*
X136964509Y-96034151D01*
X136859186Y-95905814D01*
X136710418Y-95783724D01*
X136540691Y-95693003D01*
X136356525Y-95637137D01*
X136212993Y-95623000D01*
X135567007Y-95623000D01*
X135423475Y-95637137D01*
X135239309Y-95693003D01*
X135069582Y-95783724D01*
X134920814Y-95905814D01*
X134798724Y-96054582D01*
X134708003Y-96224309D01*
X134652137Y-96408475D01*
X134633273Y-96600000D01*
X124199133Y-96600000D01*
X124287588Y-96520269D01*
X124461641Y-96286920D01*
X124586825Y-96024099D01*
X124631476Y-95876890D01*
X124510155Y-95647000D01*
X123317000Y-95647000D01*
X123317000Y-95667000D01*
X123063000Y-95667000D01*
X123063000Y-95647000D01*
X123043000Y-95647000D01*
X123043000Y-95393000D01*
X123063000Y-95393000D01*
X123063000Y-94199186D01*
X123317000Y-94199186D01*
X123317000Y-95393000D01*
X124510155Y-95393000D01*
X124631476Y-95163110D01*
X124586825Y-95015901D01*
X124461641Y-94753080D01*
X124287588Y-94519731D01*
X124071355Y-94324822D01*
X123821252Y-94175843D01*
X123546891Y-94078519D01*
X123317000Y-94199186D01*
X123063000Y-94199186D01*
X122833109Y-94078519D01*
X122558748Y-94175843D01*
X122308645Y-94324822D01*
X122092412Y-94519731D01*
X121918359Y-94753080D01*
X121878824Y-94836083D01*
X121878824Y-94670000D01*
X121871545Y-94596095D01*
X121849988Y-94525030D01*
X121814981Y-94459537D01*
X121767869Y-94402131D01*
X121710463Y-94355019D01*
X121644970Y-94320012D01*
X121573905Y-94298455D01*
X121500000Y-94291176D01*
X119800000Y-94291176D01*
X119726095Y-94298455D01*
X119655030Y-94320012D01*
X119589537Y-94355019D01*
X119532131Y-94402131D01*
X119485019Y-94459537D01*
X119450012Y-94525030D01*
X119428455Y-94596095D01*
X119421176Y-94670000D01*
X119421176Y-95018000D01*
X118048370Y-95018000D01*
X118071037Y-94987420D01*
X118191246Y-94733087D01*
X118231904Y-94599039D01*
X118109915Y-94377000D01*
X116967000Y-94377000D01*
X116967000Y-94397000D01*
X116713000Y-94397000D01*
X116713000Y-94377000D01*
X115570085Y-94377000D01*
X115448096Y-94599039D01*
X115488754Y-94733087D01*
X115608963Y-94987420D01*
X115776481Y-95213414D01*
X115915544Y-95339519D01*
X115377466Y-95877598D01*
X115358315Y-95893315D01*
X115295582Y-95969754D01*
X115248968Y-96056964D01*
X115220263Y-96151591D01*
X115212999Y-96225347D01*
X115212999Y-96225356D01*
X115210572Y-96249999D01*
X115212999Y-96274642D01*
X115213000Y-98180346D01*
X115210572Y-98204999D01*
X115220264Y-98303408D01*
X115248969Y-98398035D01*
X115295583Y-98485244D01*
X115342600Y-98542534D01*
X115342603Y-98542537D01*
X115358316Y-98561683D01*
X115377462Y-98577396D01*
X115731228Y-98931163D01*
X115708231Y-98986682D01*
X115663000Y-99214076D01*
X115663000Y-99445924D01*
X115708231Y-99673318D01*
X115796956Y-99887519D01*
X115925764Y-100080294D01*
X116089706Y-100244236D01*
X116282481Y-100373044D01*
X116496682Y-100461769D01*
X116724076Y-100507000D01*
X116955924Y-100507000D01*
X117183318Y-100461769D01*
X117397519Y-100373044D01*
X117590294Y-100244236D01*
X117754236Y-100080294D01*
X117883044Y-99887519D01*
X117971769Y-99673318D01*
X118017000Y-99445924D01*
X118017000Y-99214076D01*
X117971769Y-98986682D01*
X117883044Y-98772481D01*
X117754236Y-98579706D01*
X117590294Y-98415764D01*
X117397519Y-98286956D01*
X117183318Y-98198231D01*
X116955924Y-98153000D01*
X116724076Y-98153000D01*
X116496682Y-98198231D01*
X116441163Y-98221228D01*
X116216999Y-97997065D01*
X116216999Y-97789290D01*
X116282481Y-97833044D01*
X116496682Y-97921769D01*
X116724076Y-97967000D01*
X116955924Y-97967000D01*
X117183318Y-97921769D01*
X117397519Y-97833044D01*
X117590294Y-97704236D01*
X117754236Y-97540294D01*
X117883044Y-97347519D01*
X117906041Y-97292000D01*
X119172066Y-97292000D01*
X119502960Y-97622894D01*
X119470153Y-97702097D01*
X119423000Y-97939151D01*
X119423000Y-98180849D01*
X119470153Y-98417903D01*
X119562647Y-98641202D01*
X119623985Y-98733001D01*
X119499641Y-98733001D01*
X119474998Y-98730574D01*
X119450355Y-98733001D01*
X119450346Y-98733001D01*
X119376590Y-98740265D01*
X119281963Y-98768970D01*
X119194754Y-98815584D01*
X119118315Y-98878317D01*
X119102602Y-98897463D01*
X117238838Y-100761228D01*
X117183318Y-100738231D01*
X116955924Y-100693000D01*
X116724076Y-100693000D01*
X116496682Y-100738231D01*
X116282481Y-100826956D01*
X116089706Y-100955764D01*
X115925764Y-101119706D01*
X115796956Y-101312481D01*
X115708231Y-101526682D01*
X115680588Y-101665655D01*
X110847001Y-96832069D01*
X110847001Y-95399644D01*
X110849428Y-95375001D01*
X110847001Y-95350358D01*
X110847001Y-95350348D01*
X110839737Y-95276592D01*
X110811032Y-95181965D01*
X110785779Y-95134719D01*
X110764418Y-95094755D01*
X110717401Y-95037465D01*
X110717393Y-95037457D01*
X110701685Y-95018317D01*
X110682544Y-95002608D01*
X110398824Y-94718889D01*
X110398824Y-93900961D01*
X115448096Y-93900961D01*
X115570085Y-94123000D01*
X116713000Y-94123000D01*
X116713000Y-92979376D01*
X116967000Y-92979376D01*
X116967000Y-94123000D01*
X118109915Y-94123000D01*
X118231904Y-93900961D01*
X118202884Y-93805282D01*
X128023000Y-93805282D01*
X128023000Y-94194718D01*
X128098975Y-94576670D01*
X128248005Y-94936461D01*
X128464364Y-95260264D01*
X128739736Y-95535636D01*
X129063539Y-95751995D01*
X129423330Y-95901025D01*
X129805282Y-95977000D01*
X130194718Y-95977000D01*
X130576670Y-95901025D01*
X130936461Y-95751995D01*
X131260264Y-95535636D01*
X131535636Y-95260264D01*
X131751995Y-94936461D01*
X131901025Y-94576670D01*
X131977000Y-94194718D01*
X131977000Y-93805282D01*
X131901025Y-93423330D01*
X131751995Y-93063539D01*
X131535636Y-92739736D01*
X131260264Y-92464364D01*
X130936461Y-92248005D01*
X130576670Y-92098975D01*
X130194718Y-92023000D01*
X129805282Y-92023000D01*
X129423330Y-92098975D01*
X129063539Y-92248005D01*
X128739736Y-92464364D01*
X128464364Y-92739736D01*
X128248005Y-93063539D01*
X128098975Y-93423330D01*
X128023000Y-93805282D01*
X118202884Y-93805282D01*
X118191246Y-93766913D01*
X118071037Y-93512580D01*
X117903519Y-93286586D01*
X117695131Y-93097615D01*
X117453881Y-92952930D01*
X117189040Y-92858091D01*
X116967000Y-92979376D01*
X116713000Y-92979376D01*
X116490960Y-92858091D01*
X116226119Y-92952930D01*
X115984869Y-93097615D01*
X115776481Y-93286586D01*
X115608963Y-93512580D01*
X115488754Y-93766913D01*
X115448096Y-93900961D01*
X110398824Y-93900961D01*
X110398824Y-93450000D01*
X110391545Y-93376095D01*
X110369988Y-93305030D01*
X110334981Y-93239537D01*
X110287869Y-93182131D01*
X110230463Y-93135019D01*
X110164970Y-93100012D01*
X110093905Y-93078455D01*
X110020000Y-93071176D01*
X108420000Y-93071176D01*
X108346095Y-93078455D01*
X108275030Y-93100012D01*
X108209537Y-93135019D01*
X108152131Y-93182131D01*
X108105019Y-93239537D01*
X108070012Y-93305030D01*
X108048455Y-93376095D01*
X108041176Y-93450000D01*
X108041176Y-95050000D01*
X108048455Y-95123905D01*
X108070012Y-95194970D01*
X108105019Y-95260463D01*
X108152131Y-95317869D01*
X108209537Y-95364981D01*
X108275030Y-95399988D01*
X108346095Y-95421545D01*
X108420000Y-95428824D01*
X109688889Y-95428824D01*
X109843002Y-95582938D01*
X109843002Y-95790710D01*
X109777519Y-95746956D01*
X109563318Y-95658231D01*
X109335924Y-95613000D01*
X109104076Y-95613000D01*
X108876682Y-95658231D01*
X108662481Y-95746956D01*
X108469706Y-95875764D01*
X108305764Y-96039706D01*
X108176956Y-96232481D01*
X108088231Y-96446682D01*
X108043000Y-96674076D01*
X108043000Y-96905924D01*
X108088231Y-97133318D01*
X108176956Y-97347519D01*
X108305764Y-97540294D01*
X108469706Y-97704236D01*
X108662481Y-97833044D01*
X108876682Y-97921769D01*
X109104076Y-97967000D01*
X109335924Y-97967000D01*
X109563318Y-97921769D01*
X109618837Y-97898772D01*
X109843002Y-98122938D01*
X109843002Y-98330710D01*
X109777519Y-98286956D01*
X109563318Y-98198231D01*
X109335924Y-98153000D01*
X109104076Y-98153000D01*
X108876682Y-98198231D01*
X108662481Y-98286956D01*
X108469706Y-98415764D01*
X108305764Y-98579706D01*
X108176956Y-98772481D01*
X108153959Y-98828000D01*
X104164643Y-98828000D01*
X104140000Y-98825573D01*
X104115357Y-98828000D01*
X104115347Y-98828000D01*
X104041591Y-98835264D01*
X103946964Y-98863969D01*
X103920121Y-98878317D01*
X103859754Y-98910583D01*
X103802464Y-98957600D01*
X103802456Y-98957608D01*
X103783316Y-98973316D01*
X103767607Y-98992457D01*
X100728838Y-102031228D01*
X100673318Y-102008231D01*
X100445924Y-101963000D01*
X100214076Y-101963000D01*
X99986682Y-102008231D01*
X99931163Y-102031228D01*
X95752000Y-97852066D01*
X95752000Y-97814910D01*
X95789519Y-97799369D01*
X95976070Y-97674719D01*
X96134719Y-97516070D01*
X96259369Y-97329519D01*
X96345229Y-97122234D01*
X96389000Y-96902182D01*
X96389000Y-96677818D01*
X96345229Y-96457766D01*
X96259369Y-96250481D01*
X96134719Y-96063930D01*
X95976070Y-95905281D01*
X95789519Y-95780631D01*
X95752000Y-95765090D01*
X95752000Y-95274910D01*
X95789519Y-95259369D01*
X95976070Y-95134719D01*
X96134719Y-94976070D01*
X96259369Y-94789519D01*
X96345229Y-94582234D01*
X96389000Y-94362182D01*
X96389000Y-94137818D01*
X96356157Y-93972702D01*
X99516903Y-93972702D01*
X99588486Y-94216671D01*
X99843996Y-94337571D01*
X100118184Y-94406300D01*
X100400512Y-94420217D01*
X100680130Y-94378787D01*
X100946292Y-94283603D01*
X101071514Y-94216671D01*
X101143097Y-93972702D01*
X103326903Y-93972702D01*
X103398486Y-94216671D01*
X103653996Y-94337571D01*
X103928184Y-94406300D01*
X104210512Y-94420217D01*
X104490130Y-94378787D01*
X104756292Y-94283603D01*
X104881514Y-94216671D01*
X104953097Y-93972702D01*
X104140000Y-93159605D01*
X103326903Y-93972702D01*
X101143097Y-93972702D01*
X100330000Y-93159605D01*
X99516903Y-93972702D01*
X96356157Y-93972702D01*
X96345229Y-93917766D01*
X96259369Y-93710481D01*
X96134719Y-93523930D01*
X95976070Y-93365281D01*
X95789519Y-93240631D01*
X95582234Y-93154771D01*
X95362182Y-93111000D01*
X95137818Y-93111000D01*
X94917766Y-93154771D01*
X94710481Y-93240631D01*
X94523930Y-93365281D01*
X94365281Y-93523930D01*
X94240631Y-93710481D01*
X94154771Y-93917766D01*
X94111000Y-94137818D01*
X94111000Y-94362182D01*
X94154771Y-94582234D01*
X94240631Y-94789519D01*
X94365281Y-94976070D01*
X94523930Y-95134719D01*
X94710481Y-95259369D01*
X94748000Y-95274910D01*
X94748001Y-95765090D01*
X94710481Y-95780631D01*
X94523930Y-95905281D01*
X94365281Y-96063930D01*
X94240631Y-96250481D01*
X94154771Y-96457766D01*
X94111000Y-96677818D01*
X94111000Y-96902182D01*
X94154771Y-97122234D01*
X94240631Y-97329519D01*
X94365281Y-97516070D01*
X94523930Y-97674719D01*
X94710481Y-97799369D01*
X94748001Y-97814910D01*
X94748001Y-98035347D01*
X94745573Y-98060000D01*
X94755265Y-98158409D01*
X94783970Y-98253036D01*
X94830584Y-98340245D01*
X94877601Y-98397535D01*
X94877602Y-98397536D01*
X94893317Y-98416684D01*
X94912463Y-98432397D01*
X95953066Y-99473000D01*
X95884001Y-99473000D01*
X95666267Y-99516310D01*
X95461166Y-99601266D01*
X95276580Y-99724602D01*
X95119603Y-99881579D01*
X94996267Y-100066165D01*
X94911311Y-100271266D01*
X94868001Y-100489000D01*
X94868001Y-100711000D01*
X94911311Y-100928734D01*
X94996267Y-101133835D01*
X95119603Y-101318421D01*
X95276580Y-101475398D01*
X95461166Y-101598734D01*
X95666267Y-101683690D01*
X95884001Y-101727000D01*
X96106001Y-101727000D01*
X96323735Y-101683690D01*
X96528836Y-101598734D01*
X96713422Y-101475398D01*
X96870399Y-101318421D01*
X96993735Y-101133835D01*
X97078691Y-100928734D01*
X97122001Y-100711000D01*
X97122001Y-100641935D01*
X99221228Y-102741163D01*
X99198231Y-102796682D01*
X99153000Y-103024076D01*
X99153000Y-103255924D01*
X99198231Y-103483318D01*
X99286956Y-103697519D01*
X99330710Y-103763001D01*
X96467937Y-103763001D01*
X93665504Y-100960569D01*
X93678691Y-100928734D01*
X93722001Y-100711000D01*
X93722001Y-100489000D01*
X93678691Y-100271266D01*
X93593735Y-100066165D01*
X93470399Y-99881579D01*
X93313422Y-99724602D01*
X93128836Y-99601266D01*
X92923735Y-99516310D01*
X92706001Y-99473000D01*
X92484001Y-99473000D01*
X92266267Y-99516310D01*
X92061166Y-99601266D01*
X91876580Y-99724602D01*
X91719603Y-99881579D01*
X91596267Y-100066165D01*
X91511311Y-100271266D01*
X91468001Y-100489000D01*
X79402000Y-100489000D01*
X79402000Y-97060000D01*
X80671176Y-97060000D01*
X80671176Y-99060000D01*
X80692866Y-99280223D01*
X80757103Y-99491982D01*
X80861417Y-99687141D01*
X81001801Y-99858199D01*
X81172859Y-99998583D01*
X81368018Y-100102897D01*
X81579777Y-100167134D01*
X81800000Y-100188824D01*
X83300000Y-100188824D01*
X83520223Y-100167134D01*
X83731982Y-100102897D01*
X83927141Y-99998583D01*
X84098199Y-99858199D01*
X84137754Y-99810000D01*
X86161928Y-99810000D01*
X86174188Y-99934482D01*
X86210498Y-100054180D01*
X86269463Y-100164494D01*
X86348815Y-100261185D01*
X86445506Y-100340537D01*
X86555820Y-100399502D01*
X86675518Y-100435812D01*
X86800000Y-100448072D01*
X88264250Y-100445000D01*
X88423000Y-100286250D01*
X88423000Y-98187000D01*
X88677000Y-98187000D01*
X88677000Y-100286250D01*
X88835750Y-100445000D01*
X90300000Y-100448072D01*
X90424482Y-100435812D01*
X90544180Y-100399502D01*
X90654494Y-100340537D01*
X90751185Y-100261185D01*
X90830537Y-100164494D01*
X90889502Y-100054180D01*
X90925812Y-99934482D01*
X90938072Y-99810000D01*
X90935000Y-98345750D01*
X90776250Y-98187000D01*
X88677000Y-98187000D01*
X88423000Y-98187000D01*
X86323750Y-98187000D01*
X86165000Y-98345750D01*
X86161928Y-99810000D01*
X84137754Y-99810000D01*
X84238583Y-99687141D01*
X84342897Y-99491982D01*
X84407134Y-99280223D01*
X84428824Y-99060000D01*
X84428824Y-97060000D01*
X84407134Y-96839777D01*
X84342897Y-96628018D01*
X84238583Y-96432859D01*
X84137755Y-96310000D01*
X86161928Y-96310000D01*
X86165000Y-97774250D01*
X86323750Y-97933000D01*
X88423000Y-97933000D01*
X88423000Y-95833750D01*
X88677000Y-95833750D01*
X88677000Y-97933000D01*
X90776250Y-97933000D01*
X90935000Y-97774250D01*
X90937300Y-96677818D01*
X91571000Y-96677818D01*
X91571000Y-96902182D01*
X91614771Y-97122234D01*
X91700631Y-97329519D01*
X91825281Y-97516070D01*
X91983930Y-97674719D01*
X92170481Y-97799369D01*
X92377766Y-97885229D01*
X92597818Y-97929000D01*
X92822182Y-97929000D01*
X93042234Y-97885229D01*
X93249519Y-97799369D01*
X93436070Y-97674719D01*
X93594719Y-97516070D01*
X93719369Y-97329519D01*
X93805229Y-97122234D01*
X93849000Y-96902182D01*
X93849000Y-96677818D01*
X93805229Y-96457766D01*
X93719369Y-96250481D01*
X93594719Y-96063930D01*
X93436070Y-95905281D01*
X93249519Y-95780631D01*
X93042234Y-95694771D01*
X92822182Y-95651000D01*
X92597818Y-95651000D01*
X92377766Y-95694771D01*
X92170481Y-95780631D01*
X91983930Y-95905281D01*
X91825281Y-96063930D01*
X91700631Y-96250481D01*
X91614771Y-96457766D01*
X91571000Y-96677818D01*
X90937300Y-96677818D01*
X90938072Y-96310000D01*
X90925812Y-96185518D01*
X90889502Y-96065820D01*
X90830537Y-95955506D01*
X90751185Y-95858815D01*
X90654494Y-95779463D01*
X90544180Y-95720498D01*
X90424482Y-95684188D01*
X90300000Y-95671928D01*
X88835750Y-95675000D01*
X88677000Y-95833750D01*
X88423000Y-95833750D01*
X88264250Y-95675000D01*
X86800000Y-95671928D01*
X86675518Y-95684188D01*
X86555820Y-95720498D01*
X86445506Y-95779463D01*
X86348815Y-95858815D01*
X86269463Y-95955506D01*
X86210498Y-96065820D01*
X86174188Y-96185518D01*
X86161928Y-96310000D01*
X84137755Y-96310000D01*
X84098199Y-96261801D01*
X83927141Y-96121417D01*
X83731982Y-96017103D01*
X83520223Y-95952866D01*
X83300000Y-95931176D01*
X81800000Y-95931176D01*
X81579777Y-95952866D01*
X81368018Y-96017103D01*
X81172859Y-96121417D01*
X81001801Y-96261801D01*
X80861417Y-96432859D01*
X80757103Y-96628018D01*
X80692866Y-96839777D01*
X80671176Y-97060000D01*
X79402000Y-97060000D01*
X79402000Y-94137818D01*
X91571000Y-94137818D01*
X91571000Y-94362182D01*
X91614771Y-94582234D01*
X91700631Y-94789519D01*
X91825281Y-94976070D01*
X91983930Y-95134719D01*
X92170481Y-95259369D01*
X92377766Y-95345229D01*
X92597818Y-95389000D01*
X92822182Y-95389000D01*
X93042234Y-95345229D01*
X93249519Y-95259369D01*
X93436070Y-95134719D01*
X93594719Y-94976070D01*
X93719369Y-94789519D01*
X93805229Y-94582234D01*
X93849000Y-94362182D01*
X93849000Y-94137818D01*
X93805229Y-93917766D01*
X93719369Y-93710481D01*
X93594719Y-93523930D01*
X93436070Y-93365281D01*
X93249519Y-93240631D01*
X93042234Y-93154771D01*
X92822182Y-93111000D01*
X92597818Y-93111000D01*
X92377766Y-93154771D01*
X92170481Y-93240631D01*
X91983930Y-93365281D01*
X91825281Y-93523930D01*
X91700631Y-93710481D01*
X91614771Y-93917766D01*
X91571000Y-94137818D01*
X79402000Y-94137818D01*
X79402000Y-92224151D01*
X83228000Y-92224151D01*
X83228000Y-92465849D01*
X83275153Y-92702903D01*
X83367647Y-92926202D01*
X83501927Y-93127167D01*
X83672833Y-93298073D01*
X83873798Y-93432353D01*
X84097097Y-93524847D01*
X84334151Y-93572000D01*
X84575849Y-93572000D01*
X84812903Y-93524847D01*
X85036202Y-93432353D01*
X85237167Y-93298073D01*
X85408073Y-93127167D01*
X85508112Y-92977447D01*
X85506928Y-93195000D01*
X85519188Y-93319482D01*
X85555498Y-93439180D01*
X85614463Y-93549494D01*
X85693815Y-93646185D01*
X85790506Y-93725537D01*
X85900820Y-93784502D01*
X86020518Y-93820812D01*
X86145000Y-93833072D01*
X86709250Y-93830000D01*
X86868000Y-93671250D01*
X86868000Y-92472000D01*
X87122000Y-92472000D01*
X87122000Y-93671250D01*
X87280750Y-93830000D01*
X87845000Y-93833072D01*
X87969482Y-93820812D01*
X88089180Y-93784502D01*
X88199494Y-93725537D01*
X88296185Y-93646185D01*
X88375537Y-93549494D01*
X88434502Y-93439180D01*
X88470812Y-93319482D01*
X88483072Y-93195000D01*
X88482286Y-93050512D01*
X98889783Y-93050512D01*
X98931213Y-93330130D01*
X99026397Y-93596292D01*
X99093329Y-93721514D01*
X99337298Y-93793097D01*
X100150395Y-92980000D01*
X100509605Y-92980000D01*
X101322702Y-93793097D01*
X101566671Y-93721514D01*
X101687571Y-93466004D01*
X101756300Y-93191816D01*
X101763265Y-93050512D01*
X102699783Y-93050512D01*
X102741213Y-93330130D01*
X102836397Y-93596292D01*
X102903329Y-93721514D01*
X103147298Y-93793097D01*
X103960395Y-92980000D01*
X104319605Y-92980000D01*
X105132702Y-93793097D01*
X105376671Y-93721514D01*
X105497571Y-93466004D01*
X105566300Y-93191816D01*
X105580217Y-92909488D01*
X105538787Y-92629870D01*
X105443603Y-92363708D01*
X105376671Y-92238486D01*
X105132702Y-92166903D01*
X104319605Y-92980000D01*
X103960395Y-92980000D01*
X103147298Y-92166903D01*
X102903329Y-92238486D01*
X102782429Y-92493996D01*
X102713700Y-92768184D01*
X102699783Y-93050512D01*
X101763265Y-93050512D01*
X101770217Y-92909488D01*
X101728787Y-92629870D01*
X101633603Y-92363708D01*
X101566671Y-92238486D01*
X101322702Y-92166903D01*
X100509605Y-92980000D01*
X100150395Y-92980000D01*
X99337298Y-92166903D01*
X99093329Y-92238486D01*
X98972429Y-92493996D01*
X98903700Y-92768184D01*
X98889783Y-93050512D01*
X88482286Y-93050512D01*
X88480000Y-92630750D01*
X88321250Y-92472000D01*
X87122000Y-92472000D01*
X86868000Y-92472000D01*
X86848000Y-92472000D01*
X86848000Y-92218000D01*
X86868000Y-92218000D01*
X86868000Y-91018750D01*
X87122000Y-91018750D01*
X87122000Y-92218000D01*
X88321250Y-92218000D01*
X88480000Y-92059250D01*
X88480391Y-91987298D01*
X99516903Y-91987298D01*
X100330000Y-92800395D01*
X101143097Y-91987298D01*
X103326903Y-91987298D01*
X104140000Y-92800395D01*
X104953097Y-91987298D01*
X104881514Y-91743329D01*
X104626004Y-91622429D01*
X104351816Y-91553700D01*
X104069488Y-91539783D01*
X103789870Y-91581213D01*
X103523708Y-91676397D01*
X103398486Y-91743329D01*
X103326903Y-91987298D01*
X101143097Y-91987298D01*
X101071514Y-91743329D01*
X100816004Y-91622429D01*
X100541816Y-91553700D01*
X100259488Y-91539783D01*
X99979870Y-91581213D01*
X99713708Y-91676397D01*
X99588486Y-91743329D01*
X99516903Y-91987298D01*
X88480391Y-91987298D01*
X88483072Y-91495000D01*
X88470812Y-91370518D01*
X88434502Y-91250820D01*
X88375537Y-91140506D01*
X88296185Y-91043815D01*
X88199494Y-90964463D01*
X88089180Y-90905498D01*
X87969482Y-90869188D01*
X87845000Y-90856928D01*
X87280750Y-90860000D01*
X87122000Y-91018750D01*
X86868000Y-91018750D01*
X86709250Y-90860000D01*
X86145000Y-90856928D01*
X86020518Y-90869188D01*
X85900820Y-90905498D01*
X85790506Y-90964463D01*
X85693815Y-91043815D01*
X85614463Y-91140506D01*
X85555498Y-91250820D01*
X85519188Y-91370518D01*
X85506928Y-91495000D01*
X85508112Y-91712553D01*
X85408073Y-91562833D01*
X85237167Y-91391927D01*
X85036202Y-91257647D01*
X84812903Y-91165153D01*
X84575849Y-91118000D01*
X84334151Y-91118000D01*
X84097097Y-91165153D01*
X83873798Y-91257647D01*
X83672833Y-91391927D01*
X83501927Y-91562833D01*
X83367647Y-91763798D01*
X83275153Y-91987097D01*
X83228000Y-92224151D01*
X79402000Y-92224151D01*
X79402000Y-90402000D01*
X142598000Y-90402000D01*
X142598001Y-105598000D01*
%TA.AperFunction,Conductor*%
D22*
G36*
X142598001Y-105598000D02*
G01*
X79402000Y-105598000D01*
X79402000Y-101885000D01*
X83421176Y-101885000D01*
X83421176Y-103635000D01*
X83445268Y-103879609D01*
X83516618Y-104114818D01*
X83632483Y-104331587D01*
X83788413Y-104521587D01*
X83978413Y-104677517D01*
X84195182Y-104793382D01*
X84430391Y-104864732D01*
X84675000Y-104888824D01*
X86425000Y-104888824D01*
X86669609Y-104864732D01*
X86904818Y-104793382D01*
X87121587Y-104677517D01*
X87311587Y-104521587D01*
X87467517Y-104331587D01*
X87583382Y-104114818D01*
X87654732Y-103879609D01*
X87678824Y-103635000D01*
X87678824Y-101885000D01*
X87654732Y-101640391D01*
X87583382Y-101405182D01*
X87467517Y-101188413D01*
X87311587Y-100998413D01*
X87121587Y-100842483D01*
X86904818Y-100726618D01*
X86669609Y-100655268D01*
X86425000Y-100631176D01*
X84675000Y-100631176D01*
X84430391Y-100655268D01*
X84195182Y-100726618D01*
X83978413Y-100842483D01*
X83788413Y-100998413D01*
X83632483Y-101188413D01*
X83516618Y-101405182D01*
X83445268Y-101640391D01*
X83421176Y-101885000D01*
X79402000Y-101885000D01*
X79402000Y-100489000D01*
X91468001Y-100489000D01*
X91468001Y-100711000D01*
X91511311Y-100928734D01*
X91596267Y-101133835D01*
X91719603Y-101318421D01*
X91876580Y-101475398D01*
X92061166Y-101598734D01*
X92266267Y-101683690D01*
X92484001Y-101727000D01*
X92706001Y-101727000D01*
X92923735Y-101683690D01*
X92955570Y-101670503D01*
X95887605Y-104602539D01*
X95903318Y-104621685D01*
X95979757Y-104684418D01*
X96066966Y-104731032D01*
X96161593Y-104759737D01*
X96235349Y-104767001D01*
X96235358Y-104767001D01*
X96260001Y-104769428D01*
X96284644Y-104767001D01*
X102990356Y-104767001D01*
X103014999Y-104769428D01*
X103039642Y-104767001D01*
X103039652Y-104767001D01*
X103113408Y-104759737D01*
X103208035Y-104731032D01*
X103295244Y-104684418D01*
X103371683Y-104621685D01*
X103387400Y-104602534D01*
X103741163Y-104248772D01*
X103796682Y-104271769D01*
X104024076Y-104317000D01*
X104255924Y-104317000D01*
X104483318Y-104271769D01*
X104697519Y-104183044D01*
X104890294Y-104054236D01*
X105054236Y-103890294D01*
X105183044Y-103697519D01*
X105206041Y-103642000D01*
X109590359Y-103642000D01*
X109615002Y-103644427D01*
X109639645Y-103642000D01*
X109639655Y-103642000D01*
X109713411Y-103634736D01*
X109808038Y-103606031D01*
X109895247Y-103559417D01*
X109971686Y-103496684D01*
X109987403Y-103477533D01*
X110682539Y-102782398D01*
X110701685Y-102766685D01*
X110717401Y-102747536D01*
X110764417Y-102690247D01*
X110764418Y-102690246D01*
X110811032Y-102603037D01*
X110839737Y-102508410D01*
X110847001Y-102434654D01*
X110847001Y-102434645D01*
X110849428Y-102410002D01*
X110847001Y-102385359D01*
X110847001Y-98251937D01*
X115927602Y-103332539D01*
X115943315Y-103351685D01*
X116019754Y-103414418D01*
X116106963Y-103461032D01*
X116201590Y-103489737D01*
X116275346Y-103497001D01*
X116275356Y-103497001D01*
X116299999Y-103499428D01*
X116324642Y-103497001D01*
X118230356Y-103497001D01*
X118254999Y-103499428D01*
X118279642Y-103497001D01*
X118279652Y-103497001D01*
X118353408Y-103489737D01*
X118448035Y-103461032D01*
X118535244Y-103414418D01*
X118611683Y-103351685D01*
X118627401Y-103332534D01*
X120212895Y-101747040D01*
X120292097Y-101779847D01*
X120529151Y-101827000D01*
X120770849Y-101827000D01*
X121007903Y-101779847D01*
X121231202Y-101687353D01*
X121432167Y-101553073D01*
X121603073Y-101382167D01*
X121737353Y-101181202D01*
X121829847Y-100957903D01*
X121877000Y-100720849D01*
X121877000Y-100479151D01*
X121963000Y-100479151D01*
X121963000Y-100720849D01*
X122010153Y-100957903D01*
X122102647Y-101181202D01*
X122236927Y-101382167D01*
X122407833Y-101553073D01*
X122608798Y-101687353D01*
X122832097Y-101779847D01*
X123069151Y-101827000D01*
X123310849Y-101827000D01*
X123547903Y-101779847D01*
X123771202Y-101687353D01*
X123972167Y-101553073D01*
X124143073Y-101382167D01*
X124277353Y-101181202D01*
X124369847Y-100957903D01*
X124417000Y-100720849D01*
X124417000Y-100479151D01*
X124369847Y-100242097D01*
X124277353Y-100018798D01*
X124143073Y-99817833D01*
X123972167Y-99646927D01*
X123771202Y-99512647D01*
X123547903Y-99420153D01*
X123310849Y-99373000D01*
X123069151Y-99373000D01*
X122832097Y-99420153D01*
X122608798Y-99512647D01*
X122407833Y-99646927D01*
X122236927Y-99817833D01*
X122102647Y-100018798D01*
X122010153Y-100242097D01*
X121963000Y-100479151D01*
X121877000Y-100479151D01*
X121829847Y-100242097D01*
X121737353Y-100018798D01*
X121603073Y-99817833D01*
X121522241Y-99737001D01*
X121990356Y-99737001D01*
X122014999Y-99739428D01*
X122039642Y-99737001D01*
X122039652Y-99737001D01*
X122113408Y-99729737D01*
X122208035Y-99701032D01*
X122295244Y-99654418D01*
X122371683Y-99591685D01*
X122387400Y-99572534D01*
X122752894Y-99207040D01*
X122832097Y-99239847D01*
X123069151Y-99287000D01*
X123310849Y-99287000D01*
X123547903Y-99239847D01*
X123771202Y-99147353D01*
X123972167Y-99013073D01*
X124143073Y-98842167D01*
X124277353Y-98641202D01*
X124369847Y-98417903D01*
X124404211Y-98245143D01*
X126682999Y-100523932D01*
X126683000Y-102385348D01*
X126680572Y-102410001D01*
X126690264Y-102508410D01*
X126718969Y-102603037D01*
X126765583Y-102690246D01*
X126812600Y-102747536D01*
X126812601Y-102747537D01*
X126828316Y-102766685D01*
X126847462Y-102782398D01*
X127397602Y-103332539D01*
X127413315Y-103351685D01*
X127489754Y-103414418D01*
X127576963Y-103461032D01*
X127671590Y-103489737D01*
X127745346Y-103497001D01*
X127745356Y-103497001D01*
X127769999Y-103499428D01*
X127794642Y-103497001D01*
X140200358Y-103497001D01*
X140225001Y-103499428D01*
X140249644Y-103497001D01*
X140249654Y-103497001D01*
X140323410Y-103489737D01*
X140418037Y-103461032D01*
X140505246Y-103414418D01*
X140581685Y-103351685D01*
X140597402Y-103332534D01*
X141212544Y-102717394D01*
X141231685Y-102701685D01*
X141247393Y-102682545D01*
X141247401Y-102682537D01*
X141294417Y-102625247D01*
X141294418Y-102625246D01*
X141341032Y-102538037D01*
X141369737Y-102443410D01*
X141377001Y-102369654D01*
X141377001Y-102369644D01*
X141379428Y-102345001D01*
X141377001Y-102320358D01*
X141377001Y-99894643D01*
X141379428Y-99870000D01*
X141377001Y-99845357D01*
X141377001Y-99845348D01*
X141369737Y-99771592D01*
X141341032Y-99676965D01*
X141294418Y-99589756D01*
X141231685Y-99513317D01*
X141212539Y-99497604D01*
X140847040Y-99132105D01*
X140879847Y-99052903D01*
X140927000Y-98815849D01*
X140927000Y-98574151D01*
X140879847Y-98337097D01*
X140787353Y-98113798D01*
X140653073Y-97912833D01*
X140482167Y-97741927D01*
X140281202Y-97607647D01*
X140057903Y-97515153D01*
X139820849Y-97468000D01*
X139579151Y-97468000D01*
X139342097Y-97515153D01*
X139118798Y-97607647D01*
X138917833Y-97741927D01*
X138746927Y-97912833D01*
X138612647Y-98113798D01*
X138579840Y-98193000D01*
X137055262Y-98193000D01*
X136981276Y-98054582D01*
X136859186Y-97905814D01*
X136710418Y-97783724D01*
X136540691Y-97693003D01*
X136356525Y-97637137D01*
X136212993Y-97623000D01*
X135567007Y-97623000D01*
X135423475Y-97637137D01*
X135239309Y-97693003D01*
X135069582Y-97783724D01*
X134920814Y-97905814D01*
X134798724Y-98054582D01*
X134708003Y-98224309D01*
X134652137Y-98408475D01*
X134633273Y-98600000D01*
X134652137Y-98791525D01*
X134708003Y-98975691D01*
X134798724Y-99145418D01*
X134920814Y-99294186D01*
X135004606Y-99362952D01*
X134890518Y-99374188D01*
X134770820Y-99410498D01*
X134660506Y-99469463D01*
X134563815Y-99548815D01*
X134484463Y-99645506D01*
X134425498Y-99755820D01*
X134389188Y-99875518D01*
X134376928Y-100000000D01*
X134380000Y-100314250D01*
X134538750Y-100473000D01*
X135763000Y-100473000D01*
X135763000Y-100453000D01*
X136017000Y-100453000D01*
X136017000Y-100473000D01*
X137241250Y-100473000D01*
X137400000Y-100314250D01*
X137403072Y-100000000D01*
X137390812Y-99875518D01*
X137354502Y-99755820D01*
X137295537Y-99645506D01*
X137216185Y-99548815D01*
X137119494Y-99469463D01*
X137009180Y-99410498D01*
X136889482Y-99374188D01*
X136775394Y-99362952D01*
X136859186Y-99294186D01*
X136938944Y-99197000D01*
X138579840Y-99197000D01*
X138612647Y-99276202D01*
X138746927Y-99477167D01*
X138917833Y-99648073D01*
X139067553Y-99748112D01*
X138850000Y-99746928D01*
X138725518Y-99759188D01*
X138605820Y-99795498D01*
X138495506Y-99854463D01*
X138398815Y-99933815D01*
X138319463Y-100030506D01*
X138260498Y-100140820D01*
X138224188Y-100260518D01*
X138211928Y-100385000D01*
X138215000Y-100949250D01*
X138373750Y-101108000D01*
X139573000Y-101108000D01*
X139573000Y-101088000D01*
X139827000Y-101088000D01*
X139827000Y-101108000D01*
X139847000Y-101108000D01*
X139847000Y-101362000D01*
X139827000Y-101362000D01*
X139827000Y-101382000D01*
X139573000Y-101382000D01*
X139573000Y-101362000D01*
X138373750Y-101362000D01*
X138215000Y-101520750D01*
X138211928Y-102085000D01*
X138224188Y-102209482D01*
X138260498Y-102329180D01*
X138319463Y-102439494D01*
X138363375Y-102493001D01*
X132247015Y-102493001D01*
X132245000Y-102155750D01*
X132086250Y-101997000D01*
X130937000Y-101997000D01*
X130937000Y-102017000D01*
X130683000Y-102017000D01*
X130683000Y-101997000D01*
X130663000Y-101997000D01*
X130663000Y-101743000D01*
X130683000Y-101743000D01*
X130683000Y-100593750D01*
X130937000Y-100593750D01*
X130937000Y-101743000D01*
X132086250Y-101743000D01*
X132245000Y-101584250D01*
X132247295Y-101200000D01*
X134376928Y-101200000D01*
X134389188Y-101324482D01*
X134425498Y-101444180D01*
X134484463Y-101554494D01*
X134563815Y-101651185D01*
X134660506Y-101730537D01*
X134770820Y-101789502D01*
X134890518Y-101825812D01*
X135015000Y-101838072D01*
X135604250Y-101835000D01*
X135763000Y-101676250D01*
X135763000Y-100727000D01*
X136017000Y-100727000D01*
X136017000Y-101676250D01*
X136175750Y-101835000D01*
X136765000Y-101838072D01*
X136889482Y-101825812D01*
X137009180Y-101789502D01*
X137119494Y-101730537D01*
X137216185Y-101651185D01*
X137295537Y-101554494D01*
X137354502Y-101444180D01*
X137390812Y-101324482D01*
X137403072Y-101200000D01*
X137400000Y-100885750D01*
X137241250Y-100727000D01*
X136017000Y-100727000D01*
X135763000Y-100727000D01*
X134538750Y-100727000D01*
X134380000Y-100885750D01*
X134376928Y-101200000D01*
X132247295Y-101200000D01*
X132248072Y-101070000D01*
X132235812Y-100945518D01*
X132199502Y-100825820D01*
X132140537Y-100715506D01*
X132061185Y-100618815D01*
X131964494Y-100539463D01*
X131854180Y-100480498D01*
X131734482Y-100444188D01*
X131610000Y-100431928D01*
X131095750Y-100435000D01*
X130937000Y-100593750D01*
X130683000Y-100593750D01*
X130524250Y-100435000D01*
X130010000Y-100431928D01*
X129885518Y-100444188D01*
X129765820Y-100480498D01*
X129655506Y-100539463D01*
X129558815Y-100618815D01*
X129479463Y-100715506D01*
X129420498Y-100825820D01*
X129384188Y-100945518D01*
X129371928Y-101070000D01*
X129373674Y-101362286D01*
X129353044Y-101312481D01*
X129224236Y-101119706D01*
X129060294Y-100955764D01*
X128867519Y-100826956D01*
X128653318Y-100738231D01*
X128425924Y-100693000D01*
X128194076Y-100693000D01*
X127966682Y-100738231D01*
X127752481Y-100826956D01*
X127686999Y-100870710D01*
X127686999Y-100340640D01*
X127689426Y-100315997D01*
X127686999Y-100291354D01*
X127686999Y-100291344D01*
X127679735Y-100217588D01*
X127651030Y-100122961D01*
X127604416Y-100035752D01*
X127541683Y-99959313D01*
X127522537Y-99943600D01*
X124188511Y-96609575D01*
X124199133Y-96600000D01*
X134633273Y-96600000D01*
X134652137Y-96791525D01*
X134708003Y-96975691D01*
X134798724Y-97145418D01*
X134920814Y-97294186D01*
X135069582Y-97416276D01*
X135239309Y-97506997D01*
X135423475Y-97562863D01*
X135567007Y-97577000D01*
X136212993Y-97577000D01*
X136356525Y-97562863D01*
X136540691Y-97506997D01*
X136710418Y-97416276D01*
X136859186Y-97294186D01*
X136981276Y-97145418D01*
X137071997Y-96975691D01*
X137127863Y-96791525D01*
X137146727Y-96600000D01*
X137127863Y-96408475D01*
X137071997Y-96224309D01*
X136981276Y-96054582D01*
X136964509Y-96034151D01*
X138473000Y-96034151D01*
X138473000Y-96275849D01*
X138520153Y-96512903D01*
X138612647Y-96736202D01*
X138746927Y-96937167D01*
X138917833Y-97108073D01*
X139118798Y-97242353D01*
X139342097Y-97334847D01*
X139579151Y-97382000D01*
X139820849Y-97382000D01*
X140057903Y-97334847D01*
X140281202Y-97242353D01*
X140482167Y-97108073D01*
X140653073Y-96937167D01*
X140787353Y-96736202D01*
X140879847Y-96512903D01*
X140927000Y-96275849D01*
X140927000Y-96034151D01*
X140879847Y-95797097D01*
X140787353Y-95573798D01*
X140653073Y-95372833D01*
X140482167Y-95201927D01*
X140281202Y-95067647D01*
X140057903Y-94975153D01*
X139820849Y-94928000D01*
X139579151Y-94928000D01*
X139342097Y-94975153D01*
X139118798Y-95067647D01*
X138917833Y-95201927D01*
X138746927Y-95372833D01*
X138612647Y-95573798D01*
X138520153Y-95797097D01*
X138473000Y-96034151D01*
X136964509Y-96034151D01*
X136859186Y-95905814D01*
X136710418Y-95783724D01*
X136540691Y-95693003D01*
X136356525Y-95637137D01*
X136212993Y-95623000D01*
X135567007Y-95623000D01*
X135423475Y-95637137D01*
X135239309Y-95693003D01*
X135069582Y-95783724D01*
X134920814Y-95905814D01*
X134798724Y-96054582D01*
X134708003Y-96224309D01*
X134652137Y-96408475D01*
X134633273Y-96600000D01*
X124199133Y-96600000D01*
X124287588Y-96520269D01*
X124461641Y-96286920D01*
X124586825Y-96024099D01*
X124631476Y-95876890D01*
X124510155Y-95647000D01*
X123317000Y-95647000D01*
X123317000Y-95667000D01*
X123063000Y-95667000D01*
X123063000Y-95647000D01*
X123043000Y-95647000D01*
X123043000Y-95393000D01*
X123063000Y-95393000D01*
X123063000Y-94199186D01*
X123317000Y-94199186D01*
X123317000Y-95393000D01*
X124510155Y-95393000D01*
X124631476Y-95163110D01*
X124586825Y-95015901D01*
X124461641Y-94753080D01*
X124287588Y-94519731D01*
X124071355Y-94324822D01*
X123821252Y-94175843D01*
X123546891Y-94078519D01*
X123317000Y-94199186D01*
X123063000Y-94199186D01*
X122833109Y-94078519D01*
X122558748Y-94175843D01*
X122308645Y-94324822D01*
X122092412Y-94519731D01*
X121918359Y-94753080D01*
X121878824Y-94836083D01*
X121878824Y-94670000D01*
X121871545Y-94596095D01*
X121849988Y-94525030D01*
X121814981Y-94459537D01*
X121767869Y-94402131D01*
X121710463Y-94355019D01*
X121644970Y-94320012D01*
X121573905Y-94298455D01*
X121500000Y-94291176D01*
X119800000Y-94291176D01*
X119726095Y-94298455D01*
X119655030Y-94320012D01*
X119589537Y-94355019D01*
X119532131Y-94402131D01*
X119485019Y-94459537D01*
X119450012Y-94525030D01*
X119428455Y-94596095D01*
X119421176Y-94670000D01*
X119421176Y-95018000D01*
X118048370Y-95018000D01*
X118071037Y-94987420D01*
X118191246Y-94733087D01*
X118231904Y-94599039D01*
X118109915Y-94377000D01*
X116967000Y-94377000D01*
X116967000Y-94397000D01*
X116713000Y-94397000D01*
X116713000Y-94377000D01*
X115570085Y-94377000D01*
X115448096Y-94599039D01*
X115488754Y-94733087D01*
X115608963Y-94987420D01*
X115776481Y-95213414D01*
X115915544Y-95339519D01*
X115377466Y-95877598D01*
X115358315Y-95893315D01*
X115295582Y-95969754D01*
X115248968Y-96056964D01*
X115220263Y-96151591D01*
X115212999Y-96225347D01*
X115212999Y-96225356D01*
X115210572Y-96249999D01*
X115212999Y-96274642D01*
X115213000Y-98180346D01*
X115210572Y-98204999D01*
X115220264Y-98303408D01*
X115248969Y-98398035D01*
X115295583Y-98485244D01*
X115342600Y-98542534D01*
X115342603Y-98542537D01*
X115358316Y-98561683D01*
X115377462Y-98577396D01*
X115731228Y-98931163D01*
X115708231Y-98986682D01*
X115663000Y-99214076D01*
X115663000Y-99445924D01*
X115708231Y-99673318D01*
X115796956Y-99887519D01*
X115925764Y-100080294D01*
X116089706Y-100244236D01*
X116282481Y-100373044D01*
X116496682Y-100461769D01*
X116724076Y-100507000D01*
X116955924Y-100507000D01*
X117183318Y-100461769D01*
X117397519Y-100373044D01*
X117590294Y-100244236D01*
X117754236Y-100080294D01*
X117883044Y-99887519D01*
X117971769Y-99673318D01*
X118017000Y-99445924D01*
X118017000Y-99214076D01*
X117971769Y-98986682D01*
X117883044Y-98772481D01*
X117754236Y-98579706D01*
X117590294Y-98415764D01*
X117397519Y-98286956D01*
X117183318Y-98198231D01*
X116955924Y-98153000D01*
X116724076Y-98153000D01*
X116496682Y-98198231D01*
X116441163Y-98221228D01*
X116216999Y-97997065D01*
X116216999Y-97789290D01*
X116282481Y-97833044D01*
X116496682Y-97921769D01*
X116724076Y-97967000D01*
X116955924Y-97967000D01*
X117183318Y-97921769D01*
X117397519Y-97833044D01*
X117590294Y-97704236D01*
X117754236Y-97540294D01*
X117883044Y-97347519D01*
X117906041Y-97292000D01*
X119172066Y-97292000D01*
X119502960Y-97622894D01*
X119470153Y-97702097D01*
X119423000Y-97939151D01*
X119423000Y-98180849D01*
X119470153Y-98417903D01*
X119562647Y-98641202D01*
X119623985Y-98733001D01*
X119499641Y-98733001D01*
X119474998Y-98730574D01*
X119450355Y-98733001D01*
X119450346Y-98733001D01*
X119376590Y-98740265D01*
X119281963Y-98768970D01*
X119194754Y-98815584D01*
X119118315Y-98878317D01*
X119102602Y-98897463D01*
X117238838Y-100761228D01*
X117183318Y-100738231D01*
X116955924Y-100693000D01*
X116724076Y-100693000D01*
X116496682Y-100738231D01*
X116282481Y-100826956D01*
X116089706Y-100955764D01*
X115925764Y-101119706D01*
X115796956Y-101312481D01*
X115708231Y-101526682D01*
X115680588Y-101665655D01*
X110847001Y-96832069D01*
X110847001Y-95399644D01*
X110849428Y-95375001D01*
X110847001Y-95350358D01*
X110847001Y-95350348D01*
X110839737Y-95276592D01*
X110811032Y-95181965D01*
X110785779Y-95134719D01*
X110764418Y-95094755D01*
X110717401Y-95037465D01*
X110717393Y-95037457D01*
X110701685Y-95018317D01*
X110682544Y-95002608D01*
X110398824Y-94718889D01*
X110398824Y-93900961D01*
X115448096Y-93900961D01*
X115570085Y-94123000D01*
X116713000Y-94123000D01*
X116713000Y-92979376D01*
X116967000Y-92979376D01*
X116967000Y-94123000D01*
X118109915Y-94123000D01*
X118231904Y-93900961D01*
X118202884Y-93805282D01*
X128023000Y-93805282D01*
X128023000Y-94194718D01*
X128098975Y-94576670D01*
X128248005Y-94936461D01*
X128464364Y-95260264D01*
X128739736Y-95535636D01*
X129063539Y-95751995D01*
X129423330Y-95901025D01*
X129805282Y-95977000D01*
X130194718Y-95977000D01*
X130576670Y-95901025D01*
X130936461Y-95751995D01*
X131260264Y-95535636D01*
X131535636Y-95260264D01*
X131751995Y-94936461D01*
X131901025Y-94576670D01*
X131977000Y-94194718D01*
X131977000Y-93805282D01*
X131901025Y-93423330D01*
X131751995Y-93063539D01*
X131535636Y-92739736D01*
X131260264Y-92464364D01*
X130936461Y-92248005D01*
X130576670Y-92098975D01*
X130194718Y-92023000D01*
X129805282Y-92023000D01*
X129423330Y-92098975D01*
X129063539Y-92248005D01*
X128739736Y-92464364D01*
X128464364Y-92739736D01*
X128248005Y-93063539D01*
X128098975Y-93423330D01*
X128023000Y-93805282D01*
X118202884Y-93805282D01*
X118191246Y-93766913D01*
X118071037Y-93512580D01*
X117903519Y-93286586D01*
X117695131Y-93097615D01*
X117453881Y-92952930D01*
X117189040Y-92858091D01*
X116967000Y-92979376D01*
X116713000Y-92979376D01*
X116490960Y-92858091D01*
X116226119Y-92952930D01*
X115984869Y-93097615D01*
X115776481Y-93286586D01*
X115608963Y-93512580D01*
X115488754Y-93766913D01*
X115448096Y-93900961D01*
X110398824Y-93900961D01*
X110398824Y-93450000D01*
X110391545Y-93376095D01*
X110369988Y-93305030D01*
X110334981Y-93239537D01*
X110287869Y-93182131D01*
X110230463Y-93135019D01*
X110164970Y-93100012D01*
X110093905Y-93078455D01*
X110020000Y-93071176D01*
X108420000Y-93071176D01*
X108346095Y-93078455D01*
X108275030Y-93100012D01*
X108209537Y-93135019D01*
X108152131Y-93182131D01*
X108105019Y-93239537D01*
X108070012Y-93305030D01*
X108048455Y-93376095D01*
X108041176Y-93450000D01*
X108041176Y-95050000D01*
X108048455Y-95123905D01*
X108070012Y-95194970D01*
X108105019Y-95260463D01*
X108152131Y-95317869D01*
X108209537Y-95364981D01*
X108275030Y-95399988D01*
X108346095Y-95421545D01*
X108420000Y-95428824D01*
X109688889Y-95428824D01*
X109843002Y-95582938D01*
X109843002Y-95790710D01*
X109777519Y-95746956D01*
X109563318Y-95658231D01*
X109335924Y-95613000D01*
X109104076Y-95613000D01*
X108876682Y-95658231D01*
X108662481Y-95746956D01*
X108469706Y-95875764D01*
X108305764Y-96039706D01*
X108176956Y-96232481D01*
X108088231Y-96446682D01*
X108043000Y-96674076D01*
X108043000Y-96905924D01*
X108088231Y-97133318D01*
X108176956Y-97347519D01*
X108305764Y-97540294D01*
X108469706Y-97704236D01*
X108662481Y-97833044D01*
X108876682Y-97921769D01*
X109104076Y-97967000D01*
X109335924Y-97967000D01*
X109563318Y-97921769D01*
X109618837Y-97898772D01*
X109843002Y-98122938D01*
X109843002Y-98330710D01*
X109777519Y-98286956D01*
X109563318Y-98198231D01*
X109335924Y-98153000D01*
X109104076Y-98153000D01*
X108876682Y-98198231D01*
X108662481Y-98286956D01*
X108469706Y-98415764D01*
X108305764Y-98579706D01*
X108176956Y-98772481D01*
X108153959Y-98828000D01*
X104164643Y-98828000D01*
X104140000Y-98825573D01*
X104115357Y-98828000D01*
X104115347Y-98828000D01*
X104041591Y-98835264D01*
X103946964Y-98863969D01*
X103920121Y-98878317D01*
X103859754Y-98910583D01*
X103802464Y-98957600D01*
X103802456Y-98957608D01*
X103783316Y-98973316D01*
X103767607Y-98992457D01*
X100728838Y-102031228D01*
X100673318Y-102008231D01*
X100445924Y-101963000D01*
X100214076Y-101963000D01*
X99986682Y-102008231D01*
X99931163Y-102031228D01*
X95752000Y-97852066D01*
X95752000Y-97814910D01*
X95789519Y-97799369D01*
X95976070Y-97674719D01*
X96134719Y-97516070D01*
X96259369Y-97329519D01*
X96345229Y-97122234D01*
X96389000Y-96902182D01*
X96389000Y-96677818D01*
X96345229Y-96457766D01*
X96259369Y-96250481D01*
X96134719Y-96063930D01*
X95976070Y-95905281D01*
X95789519Y-95780631D01*
X95752000Y-95765090D01*
X95752000Y-95274910D01*
X95789519Y-95259369D01*
X95976070Y-95134719D01*
X96134719Y-94976070D01*
X96259369Y-94789519D01*
X96345229Y-94582234D01*
X96389000Y-94362182D01*
X96389000Y-94137818D01*
X96356157Y-93972702D01*
X99516903Y-93972702D01*
X99588486Y-94216671D01*
X99843996Y-94337571D01*
X100118184Y-94406300D01*
X100400512Y-94420217D01*
X100680130Y-94378787D01*
X100946292Y-94283603D01*
X101071514Y-94216671D01*
X101143097Y-93972702D01*
X103326903Y-93972702D01*
X103398486Y-94216671D01*
X103653996Y-94337571D01*
X103928184Y-94406300D01*
X104210512Y-94420217D01*
X104490130Y-94378787D01*
X104756292Y-94283603D01*
X104881514Y-94216671D01*
X104953097Y-93972702D01*
X104140000Y-93159605D01*
X103326903Y-93972702D01*
X101143097Y-93972702D01*
X100330000Y-93159605D01*
X99516903Y-93972702D01*
X96356157Y-93972702D01*
X96345229Y-93917766D01*
X96259369Y-93710481D01*
X96134719Y-93523930D01*
X95976070Y-93365281D01*
X95789519Y-93240631D01*
X95582234Y-93154771D01*
X95362182Y-93111000D01*
X95137818Y-93111000D01*
X94917766Y-93154771D01*
X94710481Y-93240631D01*
X94523930Y-93365281D01*
X94365281Y-93523930D01*
X94240631Y-93710481D01*
X94154771Y-93917766D01*
X94111000Y-94137818D01*
X94111000Y-94362182D01*
X94154771Y-94582234D01*
X94240631Y-94789519D01*
X94365281Y-94976070D01*
X94523930Y-95134719D01*
X94710481Y-95259369D01*
X94748000Y-95274910D01*
X94748001Y-95765090D01*
X94710481Y-95780631D01*
X94523930Y-95905281D01*
X94365281Y-96063930D01*
X94240631Y-96250481D01*
X94154771Y-96457766D01*
X94111000Y-96677818D01*
X94111000Y-96902182D01*
X94154771Y-97122234D01*
X94240631Y-97329519D01*
X94365281Y-97516070D01*
X94523930Y-97674719D01*
X94710481Y-97799369D01*
X94748001Y-97814910D01*
X94748001Y-98035347D01*
X94745573Y-98060000D01*
X94755265Y-98158409D01*
X94783970Y-98253036D01*
X94830584Y-98340245D01*
X94877601Y-98397535D01*
X94877602Y-98397536D01*
X94893317Y-98416684D01*
X94912463Y-98432397D01*
X95953066Y-99473000D01*
X95884001Y-99473000D01*
X95666267Y-99516310D01*
X95461166Y-99601266D01*
X95276580Y-99724602D01*
X95119603Y-99881579D01*
X94996267Y-100066165D01*
X94911311Y-100271266D01*
X94868001Y-100489000D01*
X94868001Y-100711000D01*
X94911311Y-100928734D01*
X94996267Y-101133835D01*
X95119603Y-101318421D01*
X95276580Y-101475398D01*
X95461166Y-101598734D01*
X95666267Y-101683690D01*
X95884001Y-101727000D01*
X96106001Y-101727000D01*
X96323735Y-101683690D01*
X96528836Y-101598734D01*
X96713422Y-101475398D01*
X96870399Y-101318421D01*
X96993735Y-101133835D01*
X97078691Y-100928734D01*
X97122001Y-100711000D01*
X97122001Y-100641935D01*
X99221228Y-102741163D01*
X99198231Y-102796682D01*
X99153000Y-103024076D01*
X99153000Y-103255924D01*
X99198231Y-103483318D01*
X99286956Y-103697519D01*
X99330710Y-103763001D01*
X96467937Y-103763001D01*
X93665504Y-100960569D01*
X93678691Y-100928734D01*
X93722001Y-100711000D01*
X93722001Y-100489000D01*
X93678691Y-100271266D01*
X93593735Y-100066165D01*
X93470399Y-99881579D01*
X93313422Y-99724602D01*
X93128836Y-99601266D01*
X92923735Y-99516310D01*
X92706001Y-99473000D01*
X92484001Y-99473000D01*
X92266267Y-99516310D01*
X92061166Y-99601266D01*
X91876580Y-99724602D01*
X91719603Y-99881579D01*
X91596267Y-100066165D01*
X91511311Y-100271266D01*
X91468001Y-100489000D01*
X79402000Y-100489000D01*
X79402000Y-97060000D01*
X80671176Y-97060000D01*
X80671176Y-99060000D01*
X80692866Y-99280223D01*
X80757103Y-99491982D01*
X80861417Y-99687141D01*
X81001801Y-99858199D01*
X81172859Y-99998583D01*
X81368018Y-100102897D01*
X81579777Y-100167134D01*
X81800000Y-100188824D01*
X83300000Y-100188824D01*
X83520223Y-100167134D01*
X83731982Y-100102897D01*
X83927141Y-99998583D01*
X84098199Y-99858199D01*
X84137754Y-99810000D01*
X86161928Y-99810000D01*
X86174188Y-99934482D01*
X86210498Y-100054180D01*
X86269463Y-100164494D01*
X86348815Y-100261185D01*
X86445506Y-100340537D01*
X86555820Y-100399502D01*
X86675518Y-100435812D01*
X86800000Y-100448072D01*
X88264250Y-100445000D01*
X88423000Y-100286250D01*
X88423000Y-98187000D01*
X88677000Y-98187000D01*
X88677000Y-100286250D01*
X88835750Y-100445000D01*
X90300000Y-100448072D01*
X90424482Y-100435812D01*
X90544180Y-100399502D01*
X90654494Y-100340537D01*
X90751185Y-100261185D01*
X90830537Y-100164494D01*
X90889502Y-100054180D01*
X90925812Y-99934482D01*
X90938072Y-99810000D01*
X90935000Y-98345750D01*
X90776250Y-98187000D01*
X88677000Y-98187000D01*
X88423000Y-98187000D01*
X86323750Y-98187000D01*
X86165000Y-98345750D01*
X86161928Y-99810000D01*
X84137754Y-99810000D01*
X84238583Y-99687141D01*
X84342897Y-99491982D01*
X84407134Y-99280223D01*
X84428824Y-99060000D01*
X84428824Y-97060000D01*
X84407134Y-96839777D01*
X84342897Y-96628018D01*
X84238583Y-96432859D01*
X84137755Y-96310000D01*
X86161928Y-96310000D01*
X86165000Y-97774250D01*
X86323750Y-97933000D01*
X88423000Y-97933000D01*
X88423000Y-95833750D01*
X88677000Y-95833750D01*
X88677000Y-97933000D01*
X90776250Y-97933000D01*
X90935000Y-97774250D01*
X90937300Y-96677818D01*
X91571000Y-96677818D01*
X91571000Y-96902182D01*
X91614771Y-97122234D01*
X91700631Y-97329519D01*
X91825281Y-97516070D01*
X91983930Y-97674719D01*
X92170481Y-97799369D01*
X92377766Y-97885229D01*
X92597818Y-97929000D01*
X92822182Y-97929000D01*
X93042234Y-97885229D01*
X93249519Y-97799369D01*
X93436070Y-97674719D01*
X93594719Y-97516070D01*
X93719369Y-97329519D01*
X93805229Y-97122234D01*
X93849000Y-96902182D01*
X93849000Y-96677818D01*
X93805229Y-96457766D01*
X93719369Y-96250481D01*
X93594719Y-96063930D01*
X93436070Y-95905281D01*
X93249519Y-95780631D01*
X93042234Y-95694771D01*
X92822182Y-95651000D01*
X92597818Y-95651000D01*
X92377766Y-95694771D01*
X92170481Y-95780631D01*
X91983930Y-95905281D01*
X91825281Y-96063930D01*
X91700631Y-96250481D01*
X91614771Y-96457766D01*
X91571000Y-96677818D01*
X90937300Y-96677818D01*
X90938072Y-96310000D01*
X90925812Y-96185518D01*
X90889502Y-96065820D01*
X90830537Y-95955506D01*
X90751185Y-95858815D01*
X90654494Y-95779463D01*
X90544180Y-95720498D01*
X90424482Y-95684188D01*
X90300000Y-95671928D01*
X88835750Y-95675000D01*
X88677000Y-95833750D01*
X88423000Y-95833750D01*
X88264250Y-95675000D01*
X86800000Y-95671928D01*
X86675518Y-95684188D01*
X86555820Y-95720498D01*
X86445506Y-95779463D01*
X86348815Y-95858815D01*
X86269463Y-95955506D01*
X86210498Y-96065820D01*
X86174188Y-96185518D01*
X86161928Y-96310000D01*
X84137755Y-96310000D01*
X84098199Y-96261801D01*
X83927141Y-96121417D01*
X83731982Y-96017103D01*
X83520223Y-95952866D01*
X83300000Y-95931176D01*
X81800000Y-95931176D01*
X81579777Y-95952866D01*
X81368018Y-96017103D01*
X81172859Y-96121417D01*
X81001801Y-96261801D01*
X80861417Y-96432859D01*
X80757103Y-96628018D01*
X80692866Y-96839777D01*
X80671176Y-97060000D01*
X79402000Y-97060000D01*
X79402000Y-94137818D01*
X91571000Y-94137818D01*
X91571000Y-94362182D01*
X91614771Y-94582234D01*
X91700631Y-94789519D01*
X91825281Y-94976070D01*
X91983930Y-95134719D01*
X92170481Y-95259369D01*
X92377766Y-95345229D01*
X92597818Y-95389000D01*
X92822182Y-95389000D01*
X93042234Y-95345229D01*
X93249519Y-95259369D01*
X93436070Y-95134719D01*
X93594719Y-94976070D01*
X93719369Y-94789519D01*
X93805229Y-94582234D01*
X93849000Y-94362182D01*
X93849000Y-94137818D01*
X93805229Y-93917766D01*
X93719369Y-93710481D01*
X93594719Y-93523930D01*
X93436070Y-93365281D01*
X93249519Y-93240631D01*
X93042234Y-93154771D01*
X92822182Y-93111000D01*
X92597818Y-93111000D01*
X92377766Y-93154771D01*
X92170481Y-93240631D01*
X91983930Y-93365281D01*
X91825281Y-93523930D01*
X91700631Y-93710481D01*
X91614771Y-93917766D01*
X91571000Y-94137818D01*
X79402000Y-94137818D01*
X79402000Y-92224151D01*
X83228000Y-92224151D01*
X83228000Y-92465849D01*
X83275153Y-92702903D01*
X83367647Y-92926202D01*
X83501927Y-93127167D01*
X83672833Y-93298073D01*
X83873798Y-93432353D01*
X84097097Y-93524847D01*
X84334151Y-93572000D01*
X84575849Y-93572000D01*
X84812903Y-93524847D01*
X85036202Y-93432353D01*
X85237167Y-93298073D01*
X85408073Y-93127167D01*
X85508112Y-92977447D01*
X85506928Y-93195000D01*
X85519188Y-93319482D01*
X85555498Y-93439180D01*
X85614463Y-93549494D01*
X85693815Y-93646185D01*
X85790506Y-93725537D01*
X85900820Y-93784502D01*
X86020518Y-93820812D01*
X86145000Y-93833072D01*
X86709250Y-93830000D01*
X86868000Y-93671250D01*
X86868000Y-92472000D01*
X87122000Y-92472000D01*
X87122000Y-93671250D01*
X87280750Y-93830000D01*
X87845000Y-93833072D01*
X87969482Y-93820812D01*
X88089180Y-93784502D01*
X88199494Y-93725537D01*
X88296185Y-93646185D01*
X88375537Y-93549494D01*
X88434502Y-93439180D01*
X88470812Y-93319482D01*
X88483072Y-93195000D01*
X88482286Y-93050512D01*
X98889783Y-93050512D01*
X98931213Y-93330130D01*
X99026397Y-93596292D01*
X99093329Y-93721514D01*
X99337298Y-93793097D01*
X100150395Y-92980000D01*
X100509605Y-92980000D01*
X101322702Y-93793097D01*
X101566671Y-93721514D01*
X101687571Y-93466004D01*
X101756300Y-93191816D01*
X101763265Y-93050512D01*
X102699783Y-93050512D01*
X102741213Y-93330130D01*
X102836397Y-93596292D01*
X102903329Y-93721514D01*
X103147298Y-93793097D01*
X103960395Y-92980000D01*
X104319605Y-92980000D01*
X105132702Y-93793097D01*
X105376671Y-93721514D01*
X105497571Y-93466004D01*
X105566300Y-93191816D01*
X105580217Y-92909488D01*
X105538787Y-92629870D01*
X105443603Y-92363708D01*
X105376671Y-92238486D01*
X105132702Y-92166903D01*
X104319605Y-92980000D01*
X103960395Y-92980000D01*
X103147298Y-92166903D01*
X102903329Y-92238486D01*
X102782429Y-92493996D01*
X102713700Y-92768184D01*
X102699783Y-93050512D01*
X101763265Y-93050512D01*
X101770217Y-92909488D01*
X101728787Y-92629870D01*
X101633603Y-92363708D01*
X101566671Y-92238486D01*
X101322702Y-92166903D01*
X100509605Y-92980000D01*
X100150395Y-92980000D01*
X99337298Y-92166903D01*
X99093329Y-92238486D01*
X98972429Y-92493996D01*
X98903700Y-92768184D01*
X98889783Y-93050512D01*
X88482286Y-93050512D01*
X88480000Y-92630750D01*
X88321250Y-92472000D01*
X87122000Y-92472000D01*
X86868000Y-92472000D01*
X86848000Y-92472000D01*
X86848000Y-92218000D01*
X86868000Y-92218000D01*
X86868000Y-91018750D01*
X87122000Y-91018750D01*
X87122000Y-92218000D01*
X88321250Y-92218000D01*
X88480000Y-92059250D01*
X88480391Y-91987298D01*
X99516903Y-91987298D01*
X100330000Y-92800395D01*
X101143097Y-91987298D01*
X103326903Y-91987298D01*
X104140000Y-92800395D01*
X104953097Y-91987298D01*
X104881514Y-91743329D01*
X104626004Y-91622429D01*
X104351816Y-91553700D01*
X104069488Y-91539783D01*
X103789870Y-91581213D01*
X103523708Y-91676397D01*
X103398486Y-91743329D01*
X103326903Y-91987298D01*
X101143097Y-91987298D01*
X101071514Y-91743329D01*
X100816004Y-91622429D01*
X100541816Y-91553700D01*
X100259488Y-91539783D01*
X99979870Y-91581213D01*
X99713708Y-91676397D01*
X99588486Y-91743329D01*
X99516903Y-91987298D01*
X88480391Y-91987298D01*
X88483072Y-91495000D01*
X88470812Y-91370518D01*
X88434502Y-91250820D01*
X88375537Y-91140506D01*
X88296185Y-91043815D01*
X88199494Y-90964463D01*
X88089180Y-90905498D01*
X87969482Y-90869188D01*
X87845000Y-90856928D01*
X87280750Y-90860000D01*
X87122000Y-91018750D01*
X86868000Y-91018750D01*
X86709250Y-90860000D01*
X86145000Y-90856928D01*
X86020518Y-90869188D01*
X85900820Y-90905498D01*
X85790506Y-90964463D01*
X85693815Y-91043815D01*
X85614463Y-91140506D01*
X85555498Y-91250820D01*
X85519188Y-91370518D01*
X85506928Y-91495000D01*
X85508112Y-91712553D01*
X85408073Y-91562833D01*
X85237167Y-91391927D01*
X85036202Y-91257647D01*
X84812903Y-91165153D01*
X84575849Y-91118000D01*
X84334151Y-91118000D01*
X84097097Y-91165153D01*
X83873798Y-91257647D01*
X83672833Y-91391927D01*
X83501927Y-91562833D01*
X83367647Y-91763798D01*
X83275153Y-91987097D01*
X83228000Y-92224151D01*
X79402000Y-92224151D01*
X79402000Y-90402000D01*
X142598000Y-90402000D01*
X142598001Y-105598000D01*
G37*
%TD.AperFunction*%
%TD*%
M02*
