%TF.GenerationSoftware,KiCad,Pcbnew,5.99.0+really5.1.10+dfsg1-1*%
%TF.CreationDate,2022-02-16T19:45:23+00:00*%
%TF.ProjectId,mayor,6d61796f-722e-46b6-9963-61645f706362,rev?*%
%TF.SameCoordinates,Original*%
%TF.FileFunction,Soldermask,Top*%
%TF.FilePolarity,Negative*%
%FSLAX46Y46*%
G04 Gerber Fmt 4.6, Leading zero omitted, Abs format (unit mm)*
G04 Created by KiCad (PCBNEW 5.99.0+really5.1.10+dfsg1-1) date 2022-02-16 19:45:23*
%MOMM*%
%LPD*%
G01*
G04 APERTURE LIST*
%ADD10C,3.200000*%
%ADD11R,1.700000X1.700000*%
%ADD12O,1.700000X1.700000*%
%ADD13R,1.600000X1.600000*%
%ADD14O,1.600000X1.600000*%
%ADD15C,1.600000*%
%ADD16R,3.500000X3.500000*%
%ADD17O,1.750000X1.200000*%
%ADD18C,1.500000*%
%ADD19C,1.524000*%
G04 APERTURE END LIST*
D10*
%TO.C,REF\u002A\u002A*%
X130000000Y-94000000D03*
%TD*%
D11*
%TO.C,J2*%
X120650000Y-95520000D03*
D12*
X123190000Y-95520000D03*
X120650000Y-98060000D03*
X123190000Y-98060000D03*
X120650000Y-100600000D03*
X123190000Y-100600000D03*
%TD*%
D13*
%TO.C,U1*%
X109220000Y-94250000D03*
D14*
X116840000Y-101870000D03*
X109220000Y-96790000D03*
X116840000Y-99330000D03*
X109220000Y-99330000D03*
X116840000Y-96790000D03*
X109220000Y-101870000D03*
X116840000Y-94250000D03*
%TD*%
D13*
%TO.C,C1*%
X130810000Y-101870000D03*
D15*
X128310000Y-101870000D03*
%TD*%
D16*
%TO.C,J1*%
X88550000Y-98060000D03*
G36*
G01*
X81050000Y-99060000D02*
X81050000Y-97060000D01*
G75*
G02*
X81800000Y-96310000I750000J0D01*
G01*
X83300000Y-96310000D01*
G75*
G02*
X84050000Y-97060000I0J-750000D01*
G01*
X84050000Y-99060000D01*
G75*
G02*
X83300000Y-99810000I-750000J0D01*
G01*
X81800000Y-99810000D01*
G75*
G02*
X81050000Y-99060000I0J750000D01*
G01*
G37*
G36*
G01*
X83800000Y-103635000D02*
X83800000Y-101885000D01*
G75*
G02*
X84675000Y-101010000I875000J0D01*
G01*
X86425000Y-101010000D01*
G75*
G02*
X87300000Y-101885000I0J-875000D01*
G01*
X87300000Y-103635000D01*
G75*
G02*
X86425000Y-104510000I-875000J0D01*
G01*
X84675000Y-104510000D01*
G75*
G02*
X83800000Y-103635000I0J875000D01*
G01*
G37*
%TD*%
%TO.C,J3*%
G36*
G01*
X136515001Y-101200000D02*
X135264999Y-101200000D01*
G75*
G02*
X135015000Y-100950001I0J249999D01*
G01*
X135015000Y-100249999D01*
G75*
G02*
X135264999Y-100000000I249999J0D01*
G01*
X136515001Y-100000000D01*
G75*
G02*
X136765000Y-100249999I0J-249999D01*
G01*
X136765000Y-100950001D01*
G75*
G02*
X136515001Y-101200000I-249999J0D01*
G01*
G37*
D17*
X135890000Y-98600000D03*
X135890000Y-96600000D03*
%TD*%
D15*
%TO.C,R1*%
X104140000Y-92980000D03*
D14*
X104140000Y-103140000D03*
%TD*%
D18*
%TO.C,R2*%
X92595001Y-100600000D03*
X95995001Y-100600000D03*
%TD*%
D14*
%TO.C,R3*%
X100330000Y-103140000D03*
D15*
X100330000Y-92980000D03*
%TD*%
D19*
%TO.C,SW1*%
X95250000Y-96790000D03*
X95250000Y-94250000D03*
X92710000Y-96790000D03*
X92710000Y-94250000D03*
%TD*%
D11*
%TO.C,J4*%
X86995000Y-92345000D03*
D12*
X84455000Y-92345000D03*
%TD*%
D11*
%TO.C,J5*%
X139700000Y-101235000D03*
D12*
X139700000Y-98695000D03*
X139700000Y-96155000D03*
%TD*%
M02*
