%TF.GenerationSoftware,KiCad,Pcbnew,5.99.0+really5.1.10+dfsg1-1*%
%TF.CreationDate,2022-02-16T19:45:23+00:00*%
%TF.ProjectId,mayor,6d61796f-722e-46b6-9963-61645f706362,rev?*%
%TF.SameCoordinates,Original*%
%TF.FileFunction,Copper,L2,Bot*%
%TF.FilePolarity,Positive*%
%FSLAX46Y46*%
G04 Gerber Fmt 4.6, Leading zero omitted, Abs format (unit mm)*
G04 Created by KiCad (PCBNEW 5.99.0+really5.1.10+dfsg1-1) date 2022-02-16 19:45:23*
%MOMM*%
%LPD*%
G01*
G04 APERTURE LIST*
%TA.AperFunction,ComponentPad*%
%ADD10R,1.700000X1.700000*%
%TD*%
%TA.AperFunction,ComponentPad*%
%ADD11O,1.700000X1.700000*%
%TD*%
%TA.AperFunction,ComponentPad*%
%ADD12R,1.600000X1.600000*%
%TD*%
%TA.AperFunction,ComponentPad*%
%ADD13O,1.600000X1.600000*%
%TD*%
%TA.AperFunction,ComponentPad*%
%ADD14C,1.600000*%
%TD*%
%TA.AperFunction,ComponentPad*%
%ADD15R,3.500000X3.500000*%
%TD*%
%TA.AperFunction,ComponentPad*%
%ADD16O,1.750000X1.200000*%
%TD*%
%TA.AperFunction,ComponentPad*%
%ADD17C,1.500000*%
%TD*%
%TA.AperFunction,ComponentPad*%
%ADD18C,1.524000*%
%TD*%
%TA.AperFunction,Conductor*%
%ADD19C,0.254000*%
%TD*%
%TA.AperFunction,Conductor*%
%ADD20C,0.100000*%
%TD*%
G04 APERTURE END LIST*
D10*
%TO.P,J2,1*%
%TO.N,MISO*%
X120650000Y-95520000D03*
D11*
%TO.P,J2,2*%
%TO.N,+5V*%
X123190000Y-95520000D03*
%TO.P,J2,3*%
%TO.N,LED_Data*%
X120650000Y-98060000D03*
%TO.P,J2,4*%
%TO.N,MOSI*%
X123190000Y-98060000D03*
%TO.P,J2,5*%
%TO.N,~RESET*%
X120650000Y-100600000D03*
%TO.P,J2,6*%
%TO.N,GND*%
X123190000Y-100600000D03*
%TD*%
D12*
%TO.P,U1,1*%
%TO.N,~RESET*%
X109220000Y-94250000D03*
D13*
%TO.P,U1,5*%
%TO.N,MOSI*%
X116840000Y-101870000D03*
%TO.P,U1,2*%
%TO.N,Light*%
X109220000Y-96790000D03*
%TO.P,U1,6*%
%TO.N,MISO*%
X116840000Y-99330000D03*
%TO.P,U1,3*%
%TO.N,Tilt*%
X109220000Y-99330000D03*
%TO.P,U1,7*%
%TO.N,LED_Data*%
X116840000Y-96790000D03*
%TO.P,U1,4*%
%TO.N,GND*%
X109220000Y-101870000D03*
%TO.P,U1,8*%
%TO.N,+5V*%
X116840000Y-94250000D03*
%TD*%
D12*
%TO.P,C1,1*%
%TO.N,+5V*%
X130810000Y-101870000D03*
D14*
%TO.P,C1,2*%
%TO.N,GND*%
X128310000Y-101870000D03*
%TD*%
D15*
%TO.P,J1,1*%
%TO.N,+5V*%
X88550000Y-98060000D03*
%TO.P,J1,2*%
%TO.N,GND*%
%TA.AperFunction,ComponentPad*%
G36*
G01*
X81050000Y-99060000D02*
X81050000Y-97060000D01*
G75*
G02*
X81800000Y-96310000I750000J0D01*
G01*
X83300000Y-96310000D01*
G75*
G02*
X84050000Y-97060000I0J-750000D01*
G01*
X84050000Y-99060000D01*
G75*
G02*
X83300000Y-99810000I-750000J0D01*
G01*
X81800000Y-99810000D01*
G75*
G02*
X81050000Y-99060000I0J750000D01*
G01*
G37*
%TD.AperFunction*%
%TO.P,J1,3*%
%TO.N,N/C*%
%TA.AperFunction,ComponentPad*%
G36*
G01*
X83800000Y-103635000D02*
X83800000Y-101885000D01*
G75*
G02*
X84675000Y-101010000I875000J0D01*
G01*
X86425000Y-101010000D01*
G75*
G02*
X87300000Y-101885000I0J-875000D01*
G01*
X87300000Y-103635000D01*
G75*
G02*
X86425000Y-104510000I-875000J0D01*
G01*
X84675000Y-104510000D01*
G75*
G02*
X83800000Y-103635000I0J875000D01*
G01*
G37*
%TD.AperFunction*%
%TD*%
%TO.P,J3,1*%
%TO.N,+5V*%
%TA.AperFunction,ComponentPad*%
G36*
G01*
X136515001Y-101200000D02*
X135264999Y-101200000D01*
G75*
G02*
X135015000Y-100950001I0J249999D01*
G01*
X135015000Y-100249999D01*
G75*
G02*
X135264999Y-100000000I249999J0D01*
G01*
X136515001Y-100000000D01*
G75*
G02*
X136765000Y-100249999I0J-249999D01*
G01*
X136765000Y-100950001D01*
G75*
G02*
X136515001Y-101200000I-249999J0D01*
G01*
G37*
%TD.AperFunction*%
D16*
%TO.P,J3,2*%
%TO.N,LED_Data*%
X135890000Y-98600000D03*
%TO.P,J3,3*%
%TO.N,GND*%
X135890000Y-96600000D03*
%TD*%
D14*
%TO.P,R1,1*%
%TO.N,+5V*%
X104140000Y-92980000D03*
D13*
%TO.P,R1,2*%
%TO.N,Light*%
X104140000Y-103140000D03*
%TD*%
D17*
%TO.P,R2,1*%
%TO.N,Light*%
X92595001Y-100600000D03*
%TO.P,R2,2*%
%TO.N,GND*%
X95995001Y-100600000D03*
%TD*%
D13*
%TO.P,R3,2*%
%TO.N,Tilt*%
X100330000Y-103140000D03*
D14*
%TO.P,R3,1*%
%TO.N,+5V*%
X100330000Y-92980000D03*
%TD*%
D18*
%TO.P,SW1,1*%
%TO.N,Tilt*%
X95250000Y-96790000D03*
X95250000Y-94250000D03*
%TO.P,SW1,2*%
%TO.N,GND*%
X92710000Y-96790000D03*
X92710000Y-94250000D03*
%TD*%
D10*
%TO.P,J4,1*%
%TO.N,+5V*%
X86995000Y-92345000D03*
D11*
%TO.P,J4,2*%
%TO.N,GND*%
X84455000Y-92345000D03*
%TD*%
D10*
%TO.P,J5,1*%
%TO.N,+5V*%
X139700000Y-101235000D03*
D11*
%TO.P,J5,2*%
%TO.N,LED_Data*%
X139700000Y-98695000D03*
%TO.P,J5,3*%
%TO.N,GND*%
X139700000Y-96155000D03*
%TD*%
D19*
%TO.N,GND*%
X142598001Y-105598000D02*
X79402000Y-105598000D01*
X79402000Y-101885000D01*
X83421176Y-101885000D01*
X83421176Y-103635000D01*
X83445268Y-103879609D01*
X83516618Y-104114818D01*
X83632483Y-104331587D01*
X83788413Y-104521587D01*
X83978413Y-104677517D01*
X84195182Y-104793382D01*
X84430391Y-104864732D01*
X84675000Y-104888824D01*
X86425000Y-104888824D01*
X86669609Y-104864732D01*
X86904818Y-104793382D01*
X87121587Y-104677517D01*
X87311587Y-104521587D01*
X87467517Y-104331587D01*
X87583382Y-104114818D01*
X87654732Y-103879609D01*
X87678824Y-103635000D01*
X87678824Y-103024076D01*
X99153000Y-103024076D01*
X99153000Y-103255924D01*
X99198231Y-103483318D01*
X99286956Y-103697519D01*
X99415764Y-103890294D01*
X99579706Y-104054236D01*
X99772481Y-104183044D01*
X99986682Y-104271769D01*
X100214076Y-104317000D01*
X100445924Y-104317000D01*
X100673318Y-104271769D01*
X100887519Y-104183044D01*
X101080294Y-104054236D01*
X101244236Y-103890294D01*
X101373044Y-103697519D01*
X101461769Y-103483318D01*
X101507000Y-103255924D01*
X101507000Y-103024076D01*
X102963000Y-103024076D01*
X102963000Y-103255924D01*
X103008231Y-103483318D01*
X103096956Y-103697519D01*
X103225764Y-103890294D01*
X103389706Y-104054236D01*
X103582481Y-104183044D01*
X103796682Y-104271769D01*
X104024076Y-104317000D01*
X104255924Y-104317000D01*
X104483318Y-104271769D01*
X104697519Y-104183044D01*
X104890294Y-104054236D01*
X105054236Y-103890294D01*
X105183044Y-103697519D01*
X105271769Y-103483318D01*
X105317000Y-103255924D01*
X105317000Y-103024076D01*
X105271769Y-102796682D01*
X105183044Y-102582481D01*
X105054236Y-102389706D01*
X104890294Y-102225764D01*
X104880230Y-102219039D01*
X107828096Y-102219039D01*
X107868754Y-102353087D01*
X107988963Y-102607420D01*
X108156481Y-102833414D01*
X108364869Y-103022385D01*
X108606119Y-103167070D01*
X108870960Y-103261909D01*
X109093000Y-103140624D01*
X109093000Y-101997000D01*
X109347000Y-101997000D01*
X109347000Y-103140624D01*
X109569040Y-103261909D01*
X109833881Y-103167070D01*
X110075131Y-103022385D01*
X110283519Y-102833414D01*
X110451037Y-102607420D01*
X110571246Y-102353087D01*
X110611904Y-102219039D01*
X110489915Y-101997000D01*
X109347000Y-101997000D01*
X109093000Y-101997000D01*
X107950085Y-101997000D01*
X107828096Y-102219039D01*
X104880230Y-102219039D01*
X104697519Y-102096956D01*
X104483318Y-102008231D01*
X104255924Y-101963000D01*
X104024076Y-101963000D01*
X103796682Y-102008231D01*
X103582481Y-102096956D01*
X103389706Y-102225764D01*
X103225764Y-102389706D01*
X103096956Y-102582481D01*
X103008231Y-102796682D01*
X102963000Y-103024076D01*
X101507000Y-103024076D01*
X101461769Y-102796682D01*
X101373044Y-102582481D01*
X101244236Y-102389706D01*
X101080294Y-102225764D01*
X100887519Y-102096956D01*
X100673318Y-102008231D01*
X100445924Y-101963000D01*
X100214076Y-101963000D01*
X99986682Y-102008231D01*
X99772481Y-102096956D01*
X99579706Y-102225764D01*
X99415764Y-102389706D01*
X99286956Y-102582481D01*
X99198231Y-102796682D01*
X99153000Y-103024076D01*
X87678824Y-103024076D01*
X87678824Y-101885000D01*
X87654732Y-101640391D01*
X87583382Y-101405182D01*
X87467517Y-101188413D01*
X87311587Y-100998413D01*
X87121587Y-100842483D01*
X86904818Y-100726618D01*
X86669609Y-100655268D01*
X86425000Y-100631176D01*
X84675000Y-100631176D01*
X84430391Y-100655268D01*
X84195182Y-100726618D01*
X83978413Y-100842483D01*
X83788413Y-100998413D01*
X83632483Y-101188413D01*
X83516618Y-101405182D01*
X83445268Y-101640391D01*
X83421176Y-101885000D01*
X79402000Y-101885000D01*
X79402000Y-100489000D01*
X91468001Y-100489000D01*
X91468001Y-100711000D01*
X91511311Y-100928734D01*
X91596267Y-101133835D01*
X91719603Y-101318421D01*
X91876580Y-101475398D01*
X92061166Y-101598734D01*
X92266267Y-101683690D01*
X92484001Y-101727000D01*
X92706001Y-101727000D01*
X92923735Y-101683690D01*
X93128836Y-101598734D01*
X93191306Y-101556993D01*
X95217613Y-101556993D01*
X95283138Y-101795860D01*
X95530117Y-101911760D01*
X95794961Y-101977250D01*
X96067493Y-101989812D01*
X96337239Y-101948965D01*
X96593833Y-101856277D01*
X96706864Y-101795860D01*
X96718326Y-101754076D01*
X115663000Y-101754076D01*
X115663000Y-101985924D01*
X115708231Y-102213318D01*
X115796956Y-102427519D01*
X115925764Y-102620294D01*
X116089706Y-102784236D01*
X116282481Y-102913044D01*
X116496682Y-103001769D01*
X116724076Y-103047000D01*
X116955924Y-103047000D01*
X117183318Y-103001769D01*
X117397519Y-102913044D01*
X117472861Y-102862702D01*
X127496903Y-102862702D01*
X127568486Y-103106671D01*
X127823996Y-103227571D01*
X128098184Y-103296300D01*
X128380512Y-103310217D01*
X128660130Y-103268787D01*
X128926292Y-103173603D01*
X129051514Y-103106671D01*
X129123097Y-102862702D01*
X128310000Y-102049605D01*
X127496903Y-102862702D01*
X117472861Y-102862702D01*
X117590294Y-102784236D01*
X117754236Y-102620294D01*
X117883044Y-102427519D01*
X117971769Y-102213318D01*
X118017000Y-101985924D01*
X118017000Y-101754076D01*
X117971769Y-101526682D01*
X117883044Y-101312481D01*
X117754236Y-101119706D01*
X117590294Y-100955764D01*
X117397519Y-100826956D01*
X117183318Y-100738231D01*
X116955924Y-100693000D01*
X116724076Y-100693000D01*
X116496682Y-100738231D01*
X116282481Y-100826956D01*
X116089706Y-100955764D01*
X115925764Y-101119706D01*
X115796956Y-101312481D01*
X115708231Y-101526682D01*
X115663000Y-101754076D01*
X96718326Y-101754076D01*
X96772389Y-101556993D01*
X96736357Y-101520961D01*
X107828096Y-101520961D01*
X107950085Y-101743000D01*
X109093000Y-101743000D01*
X109093000Y-101723000D01*
X109347000Y-101723000D01*
X109347000Y-101743000D01*
X110489915Y-101743000D01*
X110611904Y-101520961D01*
X110571246Y-101386913D01*
X110451037Y-101132580D01*
X110283519Y-100906586D01*
X110075131Y-100717615D01*
X109833881Y-100572930D01*
X109569040Y-100478091D01*
X109347002Y-100599375D01*
X109347002Y-100504796D01*
X109563318Y-100461769D01*
X109777519Y-100373044D01*
X109970294Y-100244236D01*
X110134236Y-100080294D01*
X110263044Y-99887519D01*
X110351769Y-99673318D01*
X110397000Y-99445924D01*
X110397000Y-99214076D01*
X115663000Y-99214076D01*
X115663000Y-99445924D01*
X115708231Y-99673318D01*
X115796956Y-99887519D01*
X115925764Y-100080294D01*
X116089706Y-100244236D01*
X116282481Y-100373044D01*
X116496682Y-100461769D01*
X116724076Y-100507000D01*
X116955924Y-100507000D01*
X117095931Y-100479151D01*
X119423000Y-100479151D01*
X119423000Y-100720849D01*
X119470153Y-100957903D01*
X119562647Y-101181202D01*
X119696927Y-101382167D01*
X119867833Y-101553073D01*
X120068798Y-101687353D01*
X120292097Y-101779847D01*
X120529151Y-101827000D01*
X120770849Y-101827000D01*
X121007903Y-101779847D01*
X121231202Y-101687353D01*
X121432167Y-101553073D01*
X121603073Y-101382167D01*
X121737353Y-101181202D01*
X121783078Y-101070812D01*
X121793175Y-101104099D01*
X121918359Y-101366920D01*
X122092412Y-101600269D01*
X122308645Y-101795178D01*
X122558748Y-101944157D01*
X122833109Y-102041481D01*
X123063000Y-101920814D01*
X123063000Y-100727000D01*
X123317000Y-100727000D01*
X123317000Y-101920814D01*
X123546891Y-102041481D01*
X123821252Y-101944157D01*
X123827371Y-101940512D01*
X126869783Y-101940512D01*
X126911213Y-102220130D01*
X127006397Y-102486292D01*
X127073329Y-102611514D01*
X127317298Y-102683097D01*
X128130395Y-101870000D01*
X128489605Y-101870000D01*
X129302702Y-102683097D01*
X129546671Y-102611514D01*
X129631176Y-102432921D01*
X129631176Y-102670000D01*
X129638455Y-102743905D01*
X129660012Y-102814970D01*
X129695019Y-102880463D01*
X129742131Y-102937869D01*
X129799537Y-102984981D01*
X129865030Y-103019988D01*
X129936095Y-103041545D01*
X130010000Y-103048824D01*
X131610000Y-103048824D01*
X131683905Y-103041545D01*
X131754970Y-103019988D01*
X131820463Y-102984981D01*
X131877869Y-102937869D01*
X131924981Y-102880463D01*
X131959988Y-102814970D01*
X131981545Y-102743905D01*
X131988824Y-102670000D01*
X131988824Y-101070000D01*
X131981545Y-100996095D01*
X131959988Y-100925030D01*
X131924981Y-100859537D01*
X131877869Y-100802131D01*
X131820463Y-100755019D01*
X131754970Y-100720012D01*
X131683905Y-100698455D01*
X131610000Y-100691176D01*
X130010000Y-100691176D01*
X129936095Y-100698455D01*
X129865030Y-100720012D01*
X129799537Y-100755019D01*
X129742131Y-100802131D01*
X129695019Y-100859537D01*
X129660012Y-100925030D01*
X129638455Y-100996095D01*
X129631176Y-101070000D01*
X129631176Y-101302847D01*
X129613603Y-101253708D01*
X129546671Y-101128486D01*
X129302702Y-101056903D01*
X128489605Y-101870000D01*
X128130395Y-101870000D01*
X127317298Y-101056903D01*
X127073329Y-101128486D01*
X126952429Y-101383996D01*
X126883700Y-101658184D01*
X126869783Y-101940512D01*
X123827371Y-101940512D01*
X124071355Y-101795178D01*
X124287588Y-101600269D01*
X124461641Y-101366920D01*
X124586825Y-101104099D01*
X124631476Y-100956890D01*
X124589473Y-100877298D01*
X127496903Y-100877298D01*
X128310000Y-101690395D01*
X129123097Y-100877298D01*
X129051514Y-100633329D01*
X128796004Y-100512429D01*
X128521816Y-100443700D01*
X128239488Y-100429783D01*
X127959870Y-100471213D01*
X127693708Y-100566397D01*
X127568486Y-100633329D01*
X127496903Y-100877298D01*
X124589473Y-100877298D01*
X124510155Y-100727000D01*
X123317000Y-100727000D01*
X123063000Y-100727000D01*
X123043000Y-100727000D01*
X123043000Y-100473000D01*
X123063000Y-100473000D01*
X123063000Y-100453000D01*
X123317000Y-100453000D01*
X123317000Y-100473000D01*
X124510155Y-100473000D01*
X124627840Y-100249999D01*
X134636176Y-100249999D01*
X134636176Y-100950001D01*
X134648259Y-101072678D01*
X134684042Y-101190641D01*
X134742152Y-101299356D01*
X134820354Y-101394646D01*
X134915644Y-101472848D01*
X135024359Y-101530958D01*
X135142322Y-101566741D01*
X135264999Y-101578824D01*
X136515001Y-101578824D01*
X136637678Y-101566741D01*
X136755641Y-101530958D01*
X136864356Y-101472848D01*
X136959646Y-101394646D01*
X137037848Y-101299356D01*
X137095958Y-101190641D01*
X137131741Y-101072678D01*
X137143824Y-100950001D01*
X137143824Y-100385000D01*
X138471176Y-100385000D01*
X138471176Y-102085000D01*
X138478455Y-102158905D01*
X138500012Y-102229970D01*
X138535019Y-102295463D01*
X138582131Y-102352869D01*
X138639537Y-102399981D01*
X138705030Y-102434988D01*
X138776095Y-102456545D01*
X138850000Y-102463824D01*
X140550000Y-102463824D01*
X140623905Y-102456545D01*
X140694970Y-102434988D01*
X140760463Y-102399981D01*
X140817869Y-102352869D01*
X140864981Y-102295463D01*
X140899988Y-102229970D01*
X140921545Y-102158905D01*
X140928824Y-102085000D01*
X140928824Y-100385000D01*
X140921545Y-100311095D01*
X140899988Y-100240030D01*
X140864981Y-100174537D01*
X140817869Y-100117131D01*
X140760463Y-100070019D01*
X140694970Y-100035012D01*
X140623905Y-100013455D01*
X140550000Y-100006176D01*
X138850000Y-100006176D01*
X138776095Y-100013455D01*
X138705030Y-100035012D01*
X138639537Y-100070019D01*
X138582131Y-100117131D01*
X138535019Y-100174537D01*
X138500012Y-100240030D01*
X138478455Y-100311095D01*
X138471176Y-100385000D01*
X137143824Y-100385000D01*
X137143824Y-100249999D01*
X137131741Y-100127322D01*
X137095958Y-100009359D01*
X137037848Y-99900644D01*
X136959646Y-99805354D01*
X136864356Y-99727152D01*
X136755641Y-99669042D01*
X136637678Y-99633259D01*
X136515001Y-99621176D01*
X135264999Y-99621176D01*
X135142322Y-99633259D01*
X135024359Y-99669042D01*
X134915644Y-99727152D01*
X134820354Y-99805354D01*
X134742152Y-99900644D01*
X134684042Y-100009359D01*
X134648259Y-100127322D01*
X134636176Y-100249999D01*
X124627840Y-100249999D01*
X124631476Y-100243110D01*
X124586825Y-100095901D01*
X124461641Y-99833080D01*
X124287588Y-99599731D01*
X124071355Y-99404822D01*
X123821252Y-99255843D01*
X123653202Y-99196231D01*
X123771202Y-99147353D01*
X123972167Y-99013073D01*
X124143073Y-98842167D01*
X124277353Y-98641202D01*
X124369847Y-98417903D01*
X124417000Y-98180849D01*
X124417000Y-97939151D01*
X124369847Y-97702097D01*
X124277353Y-97478798D01*
X124143073Y-97277833D01*
X123972167Y-97106927D01*
X123771202Y-96972647D01*
X123638330Y-96917609D01*
X134421538Y-96917609D01*
X134425409Y-96955282D01*
X134517579Y-97180533D01*
X134651922Y-97383474D01*
X134823275Y-97556307D01*
X135025054Y-97692390D01*
X135145769Y-97743001D01*
X135069582Y-97783724D01*
X134920814Y-97905814D01*
X134798724Y-98054582D01*
X134708003Y-98224309D01*
X134652137Y-98408475D01*
X134633273Y-98600000D01*
X134652137Y-98791525D01*
X134708003Y-98975691D01*
X134798724Y-99145418D01*
X134920814Y-99294186D01*
X135069582Y-99416276D01*
X135239309Y-99506997D01*
X135423475Y-99562863D01*
X135567007Y-99577000D01*
X136212993Y-99577000D01*
X136356525Y-99562863D01*
X136540691Y-99506997D01*
X136710418Y-99416276D01*
X136859186Y-99294186D01*
X136981276Y-99145418D01*
X137071997Y-98975691D01*
X137127863Y-98791525D01*
X137146727Y-98600000D01*
X137127863Y-98408475D01*
X137071997Y-98224309D01*
X136981276Y-98054582D01*
X136859186Y-97905814D01*
X136710418Y-97783724D01*
X136634231Y-97743001D01*
X136754946Y-97692390D01*
X136956725Y-97556307D01*
X137128078Y-97383474D01*
X137262421Y-97180533D01*
X137354591Y-96955282D01*
X137358462Y-96917609D01*
X137233731Y-96727000D01*
X136017000Y-96727000D01*
X136017000Y-96747000D01*
X135763000Y-96747000D01*
X135763000Y-96727000D01*
X134546269Y-96727000D01*
X134421538Y-96917609D01*
X123638330Y-96917609D01*
X123547903Y-96880153D01*
X123310849Y-96833000D01*
X123069151Y-96833000D01*
X122832097Y-96880153D01*
X122608798Y-96972647D01*
X122407833Y-97106927D01*
X122236927Y-97277833D01*
X122102647Y-97478798D01*
X122010153Y-97702097D01*
X121963000Y-97939151D01*
X121963000Y-98180849D01*
X122010153Y-98417903D01*
X122102647Y-98641202D01*
X122236927Y-98842167D01*
X122407833Y-99013073D01*
X122608798Y-99147353D01*
X122726798Y-99196231D01*
X122558748Y-99255843D01*
X122308645Y-99404822D01*
X122092412Y-99599731D01*
X121918359Y-99833080D01*
X121793175Y-100095901D01*
X121783078Y-100129188D01*
X121737353Y-100018798D01*
X121603073Y-99817833D01*
X121432167Y-99646927D01*
X121231202Y-99512647D01*
X121007903Y-99420153D01*
X120770849Y-99373000D01*
X120529151Y-99373000D01*
X120292097Y-99420153D01*
X120068798Y-99512647D01*
X119867833Y-99646927D01*
X119696927Y-99817833D01*
X119562647Y-100018798D01*
X119470153Y-100242097D01*
X119423000Y-100479151D01*
X117095931Y-100479151D01*
X117183318Y-100461769D01*
X117397519Y-100373044D01*
X117590294Y-100244236D01*
X117754236Y-100080294D01*
X117883044Y-99887519D01*
X117971769Y-99673318D01*
X118017000Y-99445924D01*
X118017000Y-99214076D01*
X117971769Y-98986682D01*
X117883044Y-98772481D01*
X117754236Y-98579706D01*
X117590294Y-98415764D01*
X117397519Y-98286956D01*
X117183318Y-98198231D01*
X116955924Y-98153000D01*
X116724076Y-98153000D01*
X116496682Y-98198231D01*
X116282481Y-98286956D01*
X116089706Y-98415764D01*
X115925764Y-98579706D01*
X115796956Y-98772481D01*
X115708231Y-98986682D01*
X115663000Y-99214076D01*
X110397000Y-99214076D01*
X110351769Y-98986682D01*
X110263044Y-98772481D01*
X110134236Y-98579706D01*
X109970294Y-98415764D01*
X109777519Y-98286956D01*
X109563318Y-98198231D01*
X109335924Y-98153000D01*
X109104076Y-98153000D01*
X108876682Y-98198231D01*
X108662481Y-98286956D01*
X108469706Y-98415764D01*
X108305764Y-98579706D01*
X108176956Y-98772481D01*
X108088231Y-98986682D01*
X108043000Y-99214076D01*
X108043000Y-99445924D01*
X108088231Y-99673318D01*
X108176956Y-99887519D01*
X108305764Y-100080294D01*
X108469706Y-100244236D01*
X108662481Y-100373044D01*
X108876682Y-100461769D01*
X109092998Y-100504796D01*
X109092998Y-100599375D01*
X108870960Y-100478091D01*
X108606119Y-100572930D01*
X108364869Y-100717615D01*
X108156481Y-100906586D01*
X107988963Y-101132580D01*
X107868754Y-101386913D01*
X107828096Y-101520961D01*
X96736357Y-101520961D01*
X95995001Y-100779605D01*
X95217613Y-101556993D01*
X93191306Y-101556993D01*
X93313422Y-101475398D01*
X93470399Y-101318421D01*
X93593735Y-101133835D01*
X93678691Y-100928734D01*
X93722001Y-100711000D01*
X93722001Y-100672492D01*
X94605189Y-100672492D01*
X94646036Y-100942238D01*
X94738724Y-101198832D01*
X94799141Y-101311863D01*
X95038008Y-101377388D01*
X95815396Y-100600000D01*
X96174606Y-100600000D01*
X96951994Y-101377388D01*
X97190861Y-101311863D01*
X97306761Y-101064884D01*
X97372251Y-100800040D01*
X97384813Y-100527508D01*
X97343966Y-100257762D01*
X97251278Y-100001168D01*
X97190861Y-99888137D01*
X96951994Y-99822612D01*
X96174606Y-100600000D01*
X95815396Y-100600000D01*
X95038008Y-99822612D01*
X94799141Y-99888137D01*
X94683241Y-100135116D01*
X94617751Y-100399960D01*
X94605189Y-100672492D01*
X93722001Y-100672492D01*
X93722001Y-100489000D01*
X93678691Y-100271266D01*
X93593735Y-100066165D01*
X93470399Y-99881579D01*
X93313422Y-99724602D01*
X93191307Y-99643007D01*
X95217613Y-99643007D01*
X95995001Y-100420395D01*
X96772389Y-99643007D01*
X96706864Y-99404140D01*
X96459885Y-99288240D01*
X96195041Y-99222750D01*
X95922509Y-99210188D01*
X95652763Y-99251035D01*
X95396169Y-99343723D01*
X95283138Y-99404140D01*
X95217613Y-99643007D01*
X93191307Y-99643007D01*
X93128836Y-99601266D01*
X92923735Y-99516310D01*
X92706001Y-99473000D01*
X92484001Y-99473000D01*
X92266267Y-99516310D01*
X92061166Y-99601266D01*
X91876580Y-99724602D01*
X91719603Y-99881579D01*
X91596267Y-100066165D01*
X91511311Y-100271266D01*
X91468001Y-100489000D01*
X79402000Y-100489000D01*
X79402000Y-99810000D01*
X80411928Y-99810000D01*
X80424188Y-99934482D01*
X80460498Y-100054180D01*
X80519463Y-100164494D01*
X80598815Y-100261185D01*
X80695506Y-100340537D01*
X80805820Y-100399502D01*
X80925518Y-100435812D01*
X81050000Y-100448072D01*
X82264250Y-100445000D01*
X82423000Y-100286250D01*
X82423000Y-98187000D01*
X82677000Y-98187000D01*
X82677000Y-100286250D01*
X82835750Y-100445000D01*
X84050000Y-100448072D01*
X84174482Y-100435812D01*
X84294180Y-100399502D01*
X84404494Y-100340537D01*
X84501185Y-100261185D01*
X84580537Y-100164494D01*
X84639502Y-100054180D01*
X84675812Y-99934482D01*
X84688072Y-99810000D01*
X84685000Y-98345750D01*
X84526250Y-98187000D01*
X82677000Y-98187000D01*
X82423000Y-98187000D01*
X80573750Y-98187000D01*
X80415000Y-98345750D01*
X80411928Y-99810000D01*
X79402000Y-99810000D01*
X79402000Y-96310000D01*
X80411928Y-96310000D01*
X80415000Y-97774250D01*
X80573750Y-97933000D01*
X82423000Y-97933000D01*
X82423000Y-95833750D01*
X82677000Y-95833750D01*
X82677000Y-97933000D01*
X84526250Y-97933000D01*
X84685000Y-97774250D01*
X84688072Y-96310000D01*
X86421176Y-96310000D01*
X86421176Y-99810000D01*
X86428455Y-99883905D01*
X86450012Y-99954970D01*
X86485019Y-100020463D01*
X86532131Y-100077869D01*
X86589537Y-100124981D01*
X86655030Y-100159988D01*
X86726095Y-100181545D01*
X86800000Y-100188824D01*
X90300000Y-100188824D01*
X90373905Y-100181545D01*
X90444970Y-100159988D01*
X90510463Y-100124981D01*
X90567869Y-100077869D01*
X90614981Y-100020463D01*
X90649988Y-99954970D01*
X90671545Y-99883905D01*
X90678824Y-99810000D01*
X90678824Y-97755565D01*
X91924040Y-97755565D01*
X91991020Y-97995656D01*
X92240048Y-98112756D01*
X92507135Y-98179023D01*
X92782017Y-98191910D01*
X93054133Y-98150922D01*
X93313023Y-98057636D01*
X93428980Y-97995656D01*
X93495960Y-97755565D01*
X92710000Y-96969605D01*
X91924040Y-97755565D01*
X90678824Y-97755565D01*
X90678824Y-96862017D01*
X91308090Y-96862017D01*
X91349078Y-97134133D01*
X91442364Y-97393023D01*
X91504344Y-97508980D01*
X91744435Y-97575960D01*
X92530395Y-96790000D01*
X92889605Y-96790000D01*
X93675565Y-97575960D01*
X93915656Y-97508980D01*
X94032756Y-97259952D01*
X94099023Y-96992865D01*
X94111000Y-96737393D01*
X94111000Y-96902182D01*
X94154771Y-97122234D01*
X94240631Y-97329519D01*
X94365281Y-97516070D01*
X94523930Y-97674719D01*
X94710481Y-97799369D01*
X94917766Y-97885229D01*
X95137818Y-97929000D01*
X95362182Y-97929000D01*
X95582234Y-97885229D01*
X95789519Y-97799369D01*
X95976070Y-97674719D01*
X96134719Y-97516070D01*
X96259369Y-97329519D01*
X96345229Y-97122234D01*
X96389000Y-96902182D01*
X96389000Y-96677818D01*
X96388256Y-96674076D01*
X108043000Y-96674076D01*
X108043000Y-96905924D01*
X108088231Y-97133318D01*
X108176956Y-97347519D01*
X108305764Y-97540294D01*
X108469706Y-97704236D01*
X108662481Y-97833044D01*
X108876682Y-97921769D01*
X109104076Y-97967000D01*
X109335924Y-97967000D01*
X109563318Y-97921769D01*
X109777519Y-97833044D01*
X109970294Y-97704236D01*
X110134236Y-97540294D01*
X110263044Y-97347519D01*
X110351769Y-97133318D01*
X110397000Y-96905924D01*
X110397000Y-96674076D01*
X115663000Y-96674076D01*
X115663000Y-96905924D01*
X115708231Y-97133318D01*
X115796956Y-97347519D01*
X115925764Y-97540294D01*
X116089706Y-97704236D01*
X116282481Y-97833044D01*
X116496682Y-97921769D01*
X116724076Y-97967000D01*
X116955924Y-97967000D01*
X117095931Y-97939151D01*
X119423000Y-97939151D01*
X119423000Y-98180849D01*
X119470153Y-98417903D01*
X119562647Y-98641202D01*
X119696927Y-98842167D01*
X119867833Y-99013073D01*
X120068798Y-99147353D01*
X120292097Y-99239847D01*
X120529151Y-99287000D01*
X120770849Y-99287000D01*
X121007903Y-99239847D01*
X121231202Y-99147353D01*
X121432167Y-99013073D01*
X121603073Y-98842167D01*
X121737353Y-98641202D01*
X121829847Y-98417903D01*
X121877000Y-98180849D01*
X121877000Y-97939151D01*
X121829847Y-97702097D01*
X121737353Y-97478798D01*
X121603073Y-97277833D01*
X121432167Y-97106927D01*
X121231202Y-96972647D01*
X121007903Y-96880153D01*
X120770849Y-96833000D01*
X120529151Y-96833000D01*
X120292097Y-96880153D01*
X120068798Y-96972647D01*
X119867833Y-97106927D01*
X119696927Y-97277833D01*
X119562647Y-97478798D01*
X119470153Y-97702097D01*
X119423000Y-97939151D01*
X117095931Y-97939151D01*
X117183318Y-97921769D01*
X117397519Y-97833044D01*
X117590294Y-97704236D01*
X117754236Y-97540294D01*
X117883044Y-97347519D01*
X117971769Y-97133318D01*
X118017000Y-96905924D01*
X118017000Y-96674076D01*
X117971769Y-96446682D01*
X117883044Y-96232481D01*
X117754236Y-96039706D01*
X117590294Y-95875764D01*
X117397519Y-95746956D01*
X117183318Y-95658231D01*
X116955924Y-95613000D01*
X116724076Y-95613000D01*
X116496682Y-95658231D01*
X116282481Y-95746956D01*
X116089706Y-95875764D01*
X115925764Y-96039706D01*
X115796956Y-96232481D01*
X115708231Y-96446682D01*
X115663000Y-96674076D01*
X110397000Y-96674076D01*
X110351769Y-96446682D01*
X110263044Y-96232481D01*
X110134236Y-96039706D01*
X109970294Y-95875764D01*
X109777519Y-95746956D01*
X109563318Y-95658231D01*
X109335924Y-95613000D01*
X109104076Y-95613000D01*
X108876682Y-95658231D01*
X108662481Y-95746956D01*
X108469706Y-95875764D01*
X108305764Y-96039706D01*
X108176956Y-96232481D01*
X108088231Y-96446682D01*
X108043000Y-96674076D01*
X96388256Y-96674076D01*
X96345229Y-96457766D01*
X96259369Y-96250481D01*
X96134719Y-96063930D01*
X95976070Y-95905281D01*
X95789519Y-95780631D01*
X95582234Y-95694771D01*
X95362182Y-95651000D01*
X95137818Y-95651000D01*
X94917766Y-95694771D01*
X94710481Y-95780631D01*
X94523930Y-95905281D01*
X94365281Y-96063930D01*
X94240631Y-96250481D01*
X94154771Y-96457766D01*
X94111000Y-96677818D01*
X94111000Y-96711942D01*
X94070922Y-96445867D01*
X93977636Y-96186977D01*
X93915656Y-96071020D01*
X93675565Y-96004040D01*
X92889605Y-96790000D01*
X92530395Y-96790000D01*
X91744435Y-96004040D01*
X91504344Y-96071020D01*
X91387244Y-96320048D01*
X91320977Y-96587135D01*
X91308090Y-96862017D01*
X90678824Y-96862017D01*
X90678824Y-96310000D01*
X90671545Y-96236095D01*
X90649988Y-96165030D01*
X90614981Y-96099537D01*
X90567869Y-96042131D01*
X90510463Y-95995019D01*
X90444970Y-95960012D01*
X90373905Y-95938455D01*
X90300000Y-95931176D01*
X86800000Y-95931176D01*
X86726095Y-95938455D01*
X86655030Y-95960012D01*
X86589537Y-95995019D01*
X86532131Y-96042131D01*
X86485019Y-96099537D01*
X86450012Y-96165030D01*
X86428455Y-96236095D01*
X86421176Y-96310000D01*
X84688072Y-96310000D01*
X84675812Y-96185518D01*
X84639502Y-96065820D01*
X84580537Y-95955506D01*
X84501185Y-95858815D01*
X84404494Y-95779463D01*
X84294180Y-95720498D01*
X84174482Y-95684188D01*
X84050000Y-95671928D01*
X82835750Y-95675000D01*
X82677000Y-95833750D01*
X82423000Y-95833750D01*
X82264250Y-95675000D01*
X81050000Y-95671928D01*
X80925518Y-95684188D01*
X80805820Y-95720498D01*
X80695506Y-95779463D01*
X80598815Y-95858815D01*
X80519463Y-95955506D01*
X80460498Y-96065820D01*
X80424188Y-96185518D01*
X80411928Y-96310000D01*
X79402000Y-96310000D01*
X79402000Y-95215565D01*
X91924040Y-95215565D01*
X91991020Y-95455656D01*
X92121644Y-95517079D01*
X92106977Y-95522364D01*
X91991020Y-95584344D01*
X91924040Y-95824435D01*
X92710000Y-96610395D01*
X93495960Y-95824435D01*
X93428980Y-95584344D01*
X93298356Y-95522921D01*
X93313023Y-95517636D01*
X93428980Y-95455656D01*
X93495960Y-95215565D01*
X92710000Y-94429605D01*
X91924040Y-95215565D01*
X79402000Y-95215565D01*
X79402000Y-94322017D01*
X91308090Y-94322017D01*
X91349078Y-94594133D01*
X91442364Y-94853023D01*
X91504344Y-94968980D01*
X91744435Y-95035960D01*
X92530395Y-94250000D01*
X92889605Y-94250000D01*
X93675565Y-95035960D01*
X93915656Y-94968980D01*
X94032756Y-94719952D01*
X94099023Y-94452865D01*
X94111000Y-94197393D01*
X94111000Y-94362182D01*
X94154771Y-94582234D01*
X94240631Y-94789519D01*
X94365281Y-94976070D01*
X94523930Y-95134719D01*
X94710481Y-95259369D01*
X94917766Y-95345229D01*
X95137818Y-95389000D01*
X95362182Y-95389000D01*
X95582234Y-95345229D01*
X95789519Y-95259369D01*
X95976070Y-95134719D01*
X96134719Y-94976070D01*
X96259369Y-94789519D01*
X96345229Y-94582234D01*
X96389000Y-94362182D01*
X96389000Y-94137818D01*
X96345229Y-93917766D01*
X96259369Y-93710481D01*
X96134719Y-93523930D01*
X95976070Y-93365281D01*
X95789519Y-93240631D01*
X95582234Y-93154771D01*
X95362182Y-93111000D01*
X95137818Y-93111000D01*
X94917766Y-93154771D01*
X94710481Y-93240631D01*
X94523930Y-93365281D01*
X94365281Y-93523930D01*
X94240631Y-93710481D01*
X94154771Y-93917766D01*
X94111000Y-94137818D01*
X94111000Y-94171942D01*
X94070922Y-93905867D01*
X93977636Y-93646977D01*
X93915656Y-93531020D01*
X93675565Y-93464040D01*
X92889605Y-94250000D01*
X92530395Y-94250000D01*
X91744435Y-93464040D01*
X91504344Y-93531020D01*
X91387244Y-93780048D01*
X91320977Y-94047135D01*
X91308090Y-94322017D01*
X79402000Y-94322017D01*
X79402000Y-92701891D01*
X83013519Y-92701891D01*
X83110843Y-92976252D01*
X83259822Y-93226355D01*
X83454731Y-93442588D01*
X83688080Y-93616641D01*
X83950901Y-93741825D01*
X84098110Y-93786476D01*
X84328000Y-93665155D01*
X84328000Y-92472000D01*
X83134186Y-92472000D01*
X83013519Y-92701891D01*
X79402000Y-92701891D01*
X79402000Y-91988109D01*
X83013519Y-91988109D01*
X83134186Y-92218000D01*
X84328000Y-92218000D01*
X84328000Y-91024845D01*
X84582000Y-91024845D01*
X84582000Y-92218000D01*
X84602000Y-92218000D01*
X84602000Y-92472000D01*
X84582000Y-92472000D01*
X84582000Y-93665155D01*
X84811890Y-93786476D01*
X84959099Y-93741825D01*
X85221920Y-93616641D01*
X85455269Y-93442588D01*
X85650178Y-93226355D01*
X85766176Y-93031620D01*
X85766176Y-93195000D01*
X85773455Y-93268905D01*
X85795012Y-93339970D01*
X85830019Y-93405463D01*
X85877131Y-93462869D01*
X85934537Y-93509981D01*
X86000030Y-93544988D01*
X86071095Y-93566545D01*
X86145000Y-93573824D01*
X87845000Y-93573824D01*
X87918905Y-93566545D01*
X87989970Y-93544988D01*
X88055463Y-93509981D01*
X88112869Y-93462869D01*
X88159981Y-93405463D01*
X88194988Y-93339970D01*
X88211834Y-93284435D01*
X91924040Y-93284435D01*
X92710000Y-94070395D01*
X93495960Y-93284435D01*
X93428980Y-93044344D01*
X93179952Y-92927244D01*
X92925356Y-92864076D01*
X99153000Y-92864076D01*
X99153000Y-93095924D01*
X99198231Y-93323318D01*
X99286956Y-93537519D01*
X99415764Y-93730294D01*
X99579706Y-93894236D01*
X99772481Y-94023044D01*
X99986682Y-94111769D01*
X100214076Y-94157000D01*
X100445924Y-94157000D01*
X100673318Y-94111769D01*
X100887519Y-94023044D01*
X101080294Y-93894236D01*
X101244236Y-93730294D01*
X101373044Y-93537519D01*
X101461769Y-93323318D01*
X101507000Y-93095924D01*
X101507000Y-92864076D01*
X102963000Y-92864076D01*
X102963000Y-93095924D01*
X103008231Y-93323318D01*
X103096956Y-93537519D01*
X103225764Y-93730294D01*
X103389706Y-93894236D01*
X103582481Y-94023044D01*
X103796682Y-94111769D01*
X104024076Y-94157000D01*
X104255924Y-94157000D01*
X104483318Y-94111769D01*
X104697519Y-94023044D01*
X104890294Y-93894236D01*
X105054236Y-93730294D01*
X105183044Y-93537519D01*
X105219295Y-93450000D01*
X108041176Y-93450000D01*
X108041176Y-95050000D01*
X108048455Y-95123905D01*
X108070012Y-95194970D01*
X108105019Y-95260463D01*
X108152131Y-95317869D01*
X108209537Y-95364981D01*
X108275030Y-95399988D01*
X108346095Y-95421545D01*
X108420000Y-95428824D01*
X110020000Y-95428824D01*
X110093905Y-95421545D01*
X110164970Y-95399988D01*
X110230463Y-95364981D01*
X110287869Y-95317869D01*
X110334981Y-95260463D01*
X110369988Y-95194970D01*
X110391545Y-95123905D01*
X110398824Y-95050000D01*
X110398824Y-94134076D01*
X115663000Y-94134076D01*
X115663000Y-94365924D01*
X115708231Y-94593318D01*
X115796956Y-94807519D01*
X115925764Y-95000294D01*
X116089706Y-95164236D01*
X116282481Y-95293044D01*
X116496682Y-95381769D01*
X116724076Y-95427000D01*
X116955924Y-95427000D01*
X117183318Y-95381769D01*
X117397519Y-95293044D01*
X117590294Y-95164236D01*
X117754236Y-95000294D01*
X117883044Y-94807519D01*
X117940006Y-94670000D01*
X119421176Y-94670000D01*
X119421176Y-96370000D01*
X119428455Y-96443905D01*
X119450012Y-96514970D01*
X119485019Y-96580463D01*
X119532131Y-96637869D01*
X119589537Y-96684981D01*
X119655030Y-96719988D01*
X119726095Y-96741545D01*
X119800000Y-96748824D01*
X121500000Y-96748824D01*
X121573905Y-96741545D01*
X121644970Y-96719988D01*
X121710463Y-96684981D01*
X121767869Y-96637869D01*
X121814981Y-96580463D01*
X121849988Y-96514970D01*
X121871545Y-96443905D01*
X121878824Y-96370000D01*
X121878824Y-95399151D01*
X121963000Y-95399151D01*
X121963000Y-95640849D01*
X122010153Y-95877903D01*
X122102647Y-96101202D01*
X122236927Y-96302167D01*
X122407833Y-96473073D01*
X122608798Y-96607353D01*
X122832097Y-96699847D01*
X123069151Y-96747000D01*
X123310849Y-96747000D01*
X123547903Y-96699847D01*
X123771202Y-96607353D01*
X123914073Y-96511890D01*
X138258524Y-96511890D01*
X138303175Y-96659099D01*
X138428359Y-96921920D01*
X138602412Y-97155269D01*
X138818645Y-97350178D01*
X139068748Y-97499157D01*
X139236798Y-97558769D01*
X139118798Y-97607647D01*
X138917833Y-97741927D01*
X138746927Y-97912833D01*
X138612647Y-98113798D01*
X138520153Y-98337097D01*
X138473000Y-98574151D01*
X138473000Y-98815849D01*
X138520153Y-99052903D01*
X138612647Y-99276202D01*
X138746927Y-99477167D01*
X138917833Y-99648073D01*
X139118798Y-99782353D01*
X139342097Y-99874847D01*
X139579151Y-99922000D01*
X139820849Y-99922000D01*
X140057903Y-99874847D01*
X140281202Y-99782353D01*
X140482167Y-99648073D01*
X140653073Y-99477167D01*
X140787353Y-99276202D01*
X140879847Y-99052903D01*
X140927000Y-98815849D01*
X140927000Y-98574151D01*
X140879847Y-98337097D01*
X140787353Y-98113798D01*
X140653073Y-97912833D01*
X140482167Y-97741927D01*
X140281202Y-97607647D01*
X140163202Y-97558769D01*
X140331252Y-97499157D01*
X140581355Y-97350178D01*
X140797588Y-97155269D01*
X140971641Y-96921920D01*
X141096825Y-96659099D01*
X141141476Y-96511890D01*
X141020155Y-96282000D01*
X139827000Y-96282000D01*
X139827000Y-96302000D01*
X139573000Y-96302000D01*
X139573000Y-96282000D01*
X138379845Y-96282000D01*
X138258524Y-96511890D01*
X123914073Y-96511890D01*
X123972167Y-96473073D01*
X124143073Y-96302167D01*
X124156286Y-96282391D01*
X134421538Y-96282391D01*
X134546269Y-96473000D01*
X135763000Y-96473000D01*
X135763000Y-95365000D01*
X136017000Y-95365000D01*
X136017000Y-96473000D01*
X137233731Y-96473000D01*
X137358462Y-96282391D01*
X137354591Y-96244718D01*
X137262421Y-96019467D01*
X137128078Y-95816526D01*
X137109820Y-95798110D01*
X138258524Y-95798110D01*
X138379845Y-96028000D01*
X139573000Y-96028000D01*
X139573000Y-94834186D01*
X139827000Y-94834186D01*
X139827000Y-96028000D01*
X141020155Y-96028000D01*
X141141476Y-95798110D01*
X141096825Y-95650901D01*
X140971641Y-95388080D01*
X140797588Y-95154731D01*
X140581355Y-94959822D01*
X140331252Y-94810843D01*
X140056891Y-94713519D01*
X139827000Y-94834186D01*
X139573000Y-94834186D01*
X139343109Y-94713519D01*
X139068748Y-94810843D01*
X138818645Y-94959822D01*
X138602412Y-95154731D01*
X138428359Y-95388080D01*
X138303175Y-95650901D01*
X138258524Y-95798110D01*
X137109820Y-95798110D01*
X136956725Y-95643693D01*
X136754946Y-95507610D01*
X136530496Y-95413507D01*
X136292000Y-95365000D01*
X136017000Y-95365000D01*
X135763000Y-95365000D01*
X135488000Y-95365000D01*
X135249504Y-95413507D01*
X135025054Y-95507610D01*
X134823275Y-95643693D01*
X134651922Y-95816526D01*
X134517579Y-96019467D01*
X134425409Y-96244718D01*
X134421538Y-96282391D01*
X124156286Y-96282391D01*
X124277353Y-96101202D01*
X124369847Y-95877903D01*
X124417000Y-95640849D01*
X124417000Y-95399151D01*
X124369847Y-95162097D01*
X124277353Y-94938798D01*
X124143073Y-94737833D01*
X123972167Y-94566927D01*
X123771202Y-94432647D01*
X123547903Y-94340153D01*
X123310849Y-94293000D01*
X123069151Y-94293000D01*
X122832097Y-94340153D01*
X122608798Y-94432647D01*
X122407833Y-94566927D01*
X122236927Y-94737833D01*
X122102647Y-94938798D01*
X122010153Y-95162097D01*
X121963000Y-95399151D01*
X121878824Y-95399151D01*
X121878824Y-94670000D01*
X121871545Y-94596095D01*
X121849988Y-94525030D01*
X121814981Y-94459537D01*
X121767869Y-94402131D01*
X121710463Y-94355019D01*
X121644970Y-94320012D01*
X121573905Y-94298455D01*
X121500000Y-94291176D01*
X119800000Y-94291176D01*
X119726095Y-94298455D01*
X119655030Y-94320012D01*
X119589537Y-94355019D01*
X119532131Y-94402131D01*
X119485019Y-94459537D01*
X119450012Y-94525030D01*
X119428455Y-94596095D01*
X119421176Y-94670000D01*
X117940006Y-94670000D01*
X117971769Y-94593318D01*
X118017000Y-94365924D01*
X118017000Y-94134076D01*
X117971769Y-93906682D01*
X117929768Y-93805282D01*
X128023000Y-93805282D01*
X128023000Y-94194718D01*
X128098975Y-94576670D01*
X128248005Y-94936461D01*
X128464364Y-95260264D01*
X128739736Y-95535636D01*
X129063539Y-95751995D01*
X129423330Y-95901025D01*
X129805282Y-95977000D01*
X130194718Y-95977000D01*
X130576670Y-95901025D01*
X130936461Y-95751995D01*
X131260264Y-95535636D01*
X131535636Y-95260264D01*
X131751995Y-94936461D01*
X131901025Y-94576670D01*
X131977000Y-94194718D01*
X131977000Y-93805282D01*
X131901025Y-93423330D01*
X131751995Y-93063539D01*
X131535636Y-92739736D01*
X131260264Y-92464364D01*
X130936461Y-92248005D01*
X130576670Y-92098975D01*
X130194718Y-92023000D01*
X129805282Y-92023000D01*
X129423330Y-92098975D01*
X129063539Y-92248005D01*
X128739736Y-92464364D01*
X128464364Y-92739736D01*
X128248005Y-93063539D01*
X128098975Y-93423330D01*
X128023000Y-93805282D01*
X117929768Y-93805282D01*
X117883044Y-93692481D01*
X117754236Y-93499706D01*
X117590294Y-93335764D01*
X117397519Y-93206956D01*
X117183318Y-93118231D01*
X116955924Y-93073000D01*
X116724076Y-93073000D01*
X116496682Y-93118231D01*
X116282481Y-93206956D01*
X116089706Y-93335764D01*
X115925764Y-93499706D01*
X115796956Y-93692481D01*
X115708231Y-93906682D01*
X115663000Y-94134076D01*
X110398824Y-94134076D01*
X110398824Y-93450000D01*
X110391545Y-93376095D01*
X110369988Y-93305030D01*
X110334981Y-93239537D01*
X110287869Y-93182131D01*
X110230463Y-93135019D01*
X110164970Y-93100012D01*
X110093905Y-93078455D01*
X110020000Y-93071176D01*
X108420000Y-93071176D01*
X108346095Y-93078455D01*
X108275030Y-93100012D01*
X108209537Y-93135019D01*
X108152131Y-93182131D01*
X108105019Y-93239537D01*
X108070012Y-93305030D01*
X108048455Y-93376095D01*
X108041176Y-93450000D01*
X105219295Y-93450000D01*
X105271769Y-93323318D01*
X105317000Y-93095924D01*
X105317000Y-92864076D01*
X105271769Y-92636682D01*
X105183044Y-92422481D01*
X105054236Y-92229706D01*
X104890294Y-92065764D01*
X104697519Y-91936956D01*
X104483318Y-91848231D01*
X104255924Y-91803000D01*
X104024076Y-91803000D01*
X103796682Y-91848231D01*
X103582481Y-91936956D01*
X103389706Y-92065764D01*
X103225764Y-92229706D01*
X103096956Y-92422481D01*
X103008231Y-92636682D01*
X102963000Y-92864076D01*
X101507000Y-92864076D01*
X101461769Y-92636682D01*
X101373044Y-92422481D01*
X101244236Y-92229706D01*
X101080294Y-92065764D01*
X100887519Y-91936956D01*
X100673318Y-91848231D01*
X100445924Y-91803000D01*
X100214076Y-91803000D01*
X99986682Y-91848231D01*
X99772481Y-91936956D01*
X99579706Y-92065764D01*
X99415764Y-92229706D01*
X99286956Y-92422481D01*
X99198231Y-92636682D01*
X99153000Y-92864076D01*
X92925356Y-92864076D01*
X92912865Y-92860977D01*
X92637983Y-92848090D01*
X92365867Y-92889078D01*
X92106977Y-92982364D01*
X91991020Y-93044344D01*
X91924040Y-93284435D01*
X88211834Y-93284435D01*
X88216545Y-93268905D01*
X88223824Y-93195000D01*
X88223824Y-91495000D01*
X88216545Y-91421095D01*
X88194988Y-91350030D01*
X88159981Y-91284537D01*
X88112869Y-91227131D01*
X88055463Y-91180019D01*
X87989970Y-91145012D01*
X87918905Y-91123455D01*
X87845000Y-91116176D01*
X86145000Y-91116176D01*
X86071095Y-91123455D01*
X86000030Y-91145012D01*
X85934537Y-91180019D01*
X85877131Y-91227131D01*
X85830019Y-91284537D01*
X85795012Y-91350030D01*
X85773455Y-91421095D01*
X85766176Y-91495000D01*
X85766176Y-91658380D01*
X85650178Y-91463645D01*
X85455269Y-91247412D01*
X85221920Y-91073359D01*
X84959099Y-90948175D01*
X84811890Y-90903524D01*
X84582000Y-91024845D01*
X84328000Y-91024845D01*
X84098110Y-90903524D01*
X83950901Y-90948175D01*
X83688080Y-91073359D01*
X83454731Y-91247412D01*
X83259822Y-91463645D01*
X83110843Y-91713748D01*
X83013519Y-91988109D01*
X79402000Y-91988109D01*
X79402000Y-90402000D01*
X142598000Y-90402000D01*
X142598001Y-105598000D01*
%TA.AperFunction,Conductor*%
D20*
G36*
X142598001Y-105598000D02*
G01*
X79402000Y-105598000D01*
X79402000Y-101885000D01*
X83421176Y-101885000D01*
X83421176Y-103635000D01*
X83445268Y-103879609D01*
X83516618Y-104114818D01*
X83632483Y-104331587D01*
X83788413Y-104521587D01*
X83978413Y-104677517D01*
X84195182Y-104793382D01*
X84430391Y-104864732D01*
X84675000Y-104888824D01*
X86425000Y-104888824D01*
X86669609Y-104864732D01*
X86904818Y-104793382D01*
X87121587Y-104677517D01*
X87311587Y-104521587D01*
X87467517Y-104331587D01*
X87583382Y-104114818D01*
X87654732Y-103879609D01*
X87678824Y-103635000D01*
X87678824Y-103024076D01*
X99153000Y-103024076D01*
X99153000Y-103255924D01*
X99198231Y-103483318D01*
X99286956Y-103697519D01*
X99415764Y-103890294D01*
X99579706Y-104054236D01*
X99772481Y-104183044D01*
X99986682Y-104271769D01*
X100214076Y-104317000D01*
X100445924Y-104317000D01*
X100673318Y-104271769D01*
X100887519Y-104183044D01*
X101080294Y-104054236D01*
X101244236Y-103890294D01*
X101373044Y-103697519D01*
X101461769Y-103483318D01*
X101507000Y-103255924D01*
X101507000Y-103024076D01*
X102963000Y-103024076D01*
X102963000Y-103255924D01*
X103008231Y-103483318D01*
X103096956Y-103697519D01*
X103225764Y-103890294D01*
X103389706Y-104054236D01*
X103582481Y-104183044D01*
X103796682Y-104271769D01*
X104024076Y-104317000D01*
X104255924Y-104317000D01*
X104483318Y-104271769D01*
X104697519Y-104183044D01*
X104890294Y-104054236D01*
X105054236Y-103890294D01*
X105183044Y-103697519D01*
X105271769Y-103483318D01*
X105317000Y-103255924D01*
X105317000Y-103024076D01*
X105271769Y-102796682D01*
X105183044Y-102582481D01*
X105054236Y-102389706D01*
X104890294Y-102225764D01*
X104880230Y-102219039D01*
X107828096Y-102219039D01*
X107868754Y-102353087D01*
X107988963Y-102607420D01*
X108156481Y-102833414D01*
X108364869Y-103022385D01*
X108606119Y-103167070D01*
X108870960Y-103261909D01*
X109093000Y-103140624D01*
X109093000Y-101997000D01*
X109347000Y-101997000D01*
X109347000Y-103140624D01*
X109569040Y-103261909D01*
X109833881Y-103167070D01*
X110075131Y-103022385D01*
X110283519Y-102833414D01*
X110451037Y-102607420D01*
X110571246Y-102353087D01*
X110611904Y-102219039D01*
X110489915Y-101997000D01*
X109347000Y-101997000D01*
X109093000Y-101997000D01*
X107950085Y-101997000D01*
X107828096Y-102219039D01*
X104880230Y-102219039D01*
X104697519Y-102096956D01*
X104483318Y-102008231D01*
X104255924Y-101963000D01*
X104024076Y-101963000D01*
X103796682Y-102008231D01*
X103582481Y-102096956D01*
X103389706Y-102225764D01*
X103225764Y-102389706D01*
X103096956Y-102582481D01*
X103008231Y-102796682D01*
X102963000Y-103024076D01*
X101507000Y-103024076D01*
X101461769Y-102796682D01*
X101373044Y-102582481D01*
X101244236Y-102389706D01*
X101080294Y-102225764D01*
X100887519Y-102096956D01*
X100673318Y-102008231D01*
X100445924Y-101963000D01*
X100214076Y-101963000D01*
X99986682Y-102008231D01*
X99772481Y-102096956D01*
X99579706Y-102225764D01*
X99415764Y-102389706D01*
X99286956Y-102582481D01*
X99198231Y-102796682D01*
X99153000Y-103024076D01*
X87678824Y-103024076D01*
X87678824Y-101885000D01*
X87654732Y-101640391D01*
X87583382Y-101405182D01*
X87467517Y-101188413D01*
X87311587Y-100998413D01*
X87121587Y-100842483D01*
X86904818Y-100726618D01*
X86669609Y-100655268D01*
X86425000Y-100631176D01*
X84675000Y-100631176D01*
X84430391Y-100655268D01*
X84195182Y-100726618D01*
X83978413Y-100842483D01*
X83788413Y-100998413D01*
X83632483Y-101188413D01*
X83516618Y-101405182D01*
X83445268Y-101640391D01*
X83421176Y-101885000D01*
X79402000Y-101885000D01*
X79402000Y-100489000D01*
X91468001Y-100489000D01*
X91468001Y-100711000D01*
X91511311Y-100928734D01*
X91596267Y-101133835D01*
X91719603Y-101318421D01*
X91876580Y-101475398D01*
X92061166Y-101598734D01*
X92266267Y-101683690D01*
X92484001Y-101727000D01*
X92706001Y-101727000D01*
X92923735Y-101683690D01*
X93128836Y-101598734D01*
X93191306Y-101556993D01*
X95217613Y-101556993D01*
X95283138Y-101795860D01*
X95530117Y-101911760D01*
X95794961Y-101977250D01*
X96067493Y-101989812D01*
X96337239Y-101948965D01*
X96593833Y-101856277D01*
X96706864Y-101795860D01*
X96718326Y-101754076D01*
X115663000Y-101754076D01*
X115663000Y-101985924D01*
X115708231Y-102213318D01*
X115796956Y-102427519D01*
X115925764Y-102620294D01*
X116089706Y-102784236D01*
X116282481Y-102913044D01*
X116496682Y-103001769D01*
X116724076Y-103047000D01*
X116955924Y-103047000D01*
X117183318Y-103001769D01*
X117397519Y-102913044D01*
X117472861Y-102862702D01*
X127496903Y-102862702D01*
X127568486Y-103106671D01*
X127823996Y-103227571D01*
X128098184Y-103296300D01*
X128380512Y-103310217D01*
X128660130Y-103268787D01*
X128926292Y-103173603D01*
X129051514Y-103106671D01*
X129123097Y-102862702D01*
X128310000Y-102049605D01*
X127496903Y-102862702D01*
X117472861Y-102862702D01*
X117590294Y-102784236D01*
X117754236Y-102620294D01*
X117883044Y-102427519D01*
X117971769Y-102213318D01*
X118017000Y-101985924D01*
X118017000Y-101754076D01*
X117971769Y-101526682D01*
X117883044Y-101312481D01*
X117754236Y-101119706D01*
X117590294Y-100955764D01*
X117397519Y-100826956D01*
X117183318Y-100738231D01*
X116955924Y-100693000D01*
X116724076Y-100693000D01*
X116496682Y-100738231D01*
X116282481Y-100826956D01*
X116089706Y-100955764D01*
X115925764Y-101119706D01*
X115796956Y-101312481D01*
X115708231Y-101526682D01*
X115663000Y-101754076D01*
X96718326Y-101754076D01*
X96772389Y-101556993D01*
X96736357Y-101520961D01*
X107828096Y-101520961D01*
X107950085Y-101743000D01*
X109093000Y-101743000D01*
X109093000Y-101723000D01*
X109347000Y-101723000D01*
X109347000Y-101743000D01*
X110489915Y-101743000D01*
X110611904Y-101520961D01*
X110571246Y-101386913D01*
X110451037Y-101132580D01*
X110283519Y-100906586D01*
X110075131Y-100717615D01*
X109833881Y-100572930D01*
X109569040Y-100478091D01*
X109347002Y-100599375D01*
X109347002Y-100504796D01*
X109563318Y-100461769D01*
X109777519Y-100373044D01*
X109970294Y-100244236D01*
X110134236Y-100080294D01*
X110263044Y-99887519D01*
X110351769Y-99673318D01*
X110397000Y-99445924D01*
X110397000Y-99214076D01*
X115663000Y-99214076D01*
X115663000Y-99445924D01*
X115708231Y-99673318D01*
X115796956Y-99887519D01*
X115925764Y-100080294D01*
X116089706Y-100244236D01*
X116282481Y-100373044D01*
X116496682Y-100461769D01*
X116724076Y-100507000D01*
X116955924Y-100507000D01*
X117095931Y-100479151D01*
X119423000Y-100479151D01*
X119423000Y-100720849D01*
X119470153Y-100957903D01*
X119562647Y-101181202D01*
X119696927Y-101382167D01*
X119867833Y-101553073D01*
X120068798Y-101687353D01*
X120292097Y-101779847D01*
X120529151Y-101827000D01*
X120770849Y-101827000D01*
X121007903Y-101779847D01*
X121231202Y-101687353D01*
X121432167Y-101553073D01*
X121603073Y-101382167D01*
X121737353Y-101181202D01*
X121783078Y-101070812D01*
X121793175Y-101104099D01*
X121918359Y-101366920D01*
X122092412Y-101600269D01*
X122308645Y-101795178D01*
X122558748Y-101944157D01*
X122833109Y-102041481D01*
X123063000Y-101920814D01*
X123063000Y-100727000D01*
X123317000Y-100727000D01*
X123317000Y-101920814D01*
X123546891Y-102041481D01*
X123821252Y-101944157D01*
X123827371Y-101940512D01*
X126869783Y-101940512D01*
X126911213Y-102220130D01*
X127006397Y-102486292D01*
X127073329Y-102611514D01*
X127317298Y-102683097D01*
X128130395Y-101870000D01*
X128489605Y-101870000D01*
X129302702Y-102683097D01*
X129546671Y-102611514D01*
X129631176Y-102432921D01*
X129631176Y-102670000D01*
X129638455Y-102743905D01*
X129660012Y-102814970D01*
X129695019Y-102880463D01*
X129742131Y-102937869D01*
X129799537Y-102984981D01*
X129865030Y-103019988D01*
X129936095Y-103041545D01*
X130010000Y-103048824D01*
X131610000Y-103048824D01*
X131683905Y-103041545D01*
X131754970Y-103019988D01*
X131820463Y-102984981D01*
X131877869Y-102937869D01*
X131924981Y-102880463D01*
X131959988Y-102814970D01*
X131981545Y-102743905D01*
X131988824Y-102670000D01*
X131988824Y-101070000D01*
X131981545Y-100996095D01*
X131959988Y-100925030D01*
X131924981Y-100859537D01*
X131877869Y-100802131D01*
X131820463Y-100755019D01*
X131754970Y-100720012D01*
X131683905Y-100698455D01*
X131610000Y-100691176D01*
X130010000Y-100691176D01*
X129936095Y-100698455D01*
X129865030Y-100720012D01*
X129799537Y-100755019D01*
X129742131Y-100802131D01*
X129695019Y-100859537D01*
X129660012Y-100925030D01*
X129638455Y-100996095D01*
X129631176Y-101070000D01*
X129631176Y-101302847D01*
X129613603Y-101253708D01*
X129546671Y-101128486D01*
X129302702Y-101056903D01*
X128489605Y-101870000D01*
X128130395Y-101870000D01*
X127317298Y-101056903D01*
X127073329Y-101128486D01*
X126952429Y-101383996D01*
X126883700Y-101658184D01*
X126869783Y-101940512D01*
X123827371Y-101940512D01*
X124071355Y-101795178D01*
X124287588Y-101600269D01*
X124461641Y-101366920D01*
X124586825Y-101104099D01*
X124631476Y-100956890D01*
X124589473Y-100877298D01*
X127496903Y-100877298D01*
X128310000Y-101690395D01*
X129123097Y-100877298D01*
X129051514Y-100633329D01*
X128796004Y-100512429D01*
X128521816Y-100443700D01*
X128239488Y-100429783D01*
X127959870Y-100471213D01*
X127693708Y-100566397D01*
X127568486Y-100633329D01*
X127496903Y-100877298D01*
X124589473Y-100877298D01*
X124510155Y-100727000D01*
X123317000Y-100727000D01*
X123063000Y-100727000D01*
X123043000Y-100727000D01*
X123043000Y-100473000D01*
X123063000Y-100473000D01*
X123063000Y-100453000D01*
X123317000Y-100453000D01*
X123317000Y-100473000D01*
X124510155Y-100473000D01*
X124627840Y-100249999D01*
X134636176Y-100249999D01*
X134636176Y-100950001D01*
X134648259Y-101072678D01*
X134684042Y-101190641D01*
X134742152Y-101299356D01*
X134820354Y-101394646D01*
X134915644Y-101472848D01*
X135024359Y-101530958D01*
X135142322Y-101566741D01*
X135264999Y-101578824D01*
X136515001Y-101578824D01*
X136637678Y-101566741D01*
X136755641Y-101530958D01*
X136864356Y-101472848D01*
X136959646Y-101394646D01*
X137037848Y-101299356D01*
X137095958Y-101190641D01*
X137131741Y-101072678D01*
X137143824Y-100950001D01*
X137143824Y-100385000D01*
X138471176Y-100385000D01*
X138471176Y-102085000D01*
X138478455Y-102158905D01*
X138500012Y-102229970D01*
X138535019Y-102295463D01*
X138582131Y-102352869D01*
X138639537Y-102399981D01*
X138705030Y-102434988D01*
X138776095Y-102456545D01*
X138850000Y-102463824D01*
X140550000Y-102463824D01*
X140623905Y-102456545D01*
X140694970Y-102434988D01*
X140760463Y-102399981D01*
X140817869Y-102352869D01*
X140864981Y-102295463D01*
X140899988Y-102229970D01*
X140921545Y-102158905D01*
X140928824Y-102085000D01*
X140928824Y-100385000D01*
X140921545Y-100311095D01*
X140899988Y-100240030D01*
X140864981Y-100174537D01*
X140817869Y-100117131D01*
X140760463Y-100070019D01*
X140694970Y-100035012D01*
X140623905Y-100013455D01*
X140550000Y-100006176D01*
X138850000Y-100006176D01*
X138776095Y-100013455D01*
X138705030Y-100035012D01*
X138639537Y-100070019D01*
X138582131Y-100117131D01*
X138535019Y-100174537D01*
X138500012Y-100240030D01*
X138478455Y-100311095D01*
X138471176Y-100385000D01*
X137143824Y-100385000D01*
X137143824Y-100249999D01*
X137131741Y-100127322D01*
X137095958Y-100009359D01*
X137037848Y-99900644D01*
X136959646Y-99805354D01*
X136864356Y-99727152D01*
X136755641Y-99669042D01*
X136637678Y-99633259D01*
X136515001Y-99621176D01*
X135264999Y-99621176D01*
X135142322Y-99633259D01*
X135024359Y-99669042D01*
X134915644Y-99727152D01*
X134820354Y-99805354D01*
X134742152Y-99900644D01*
X134684042Y-100009359D01*
X134648259Y-100127322D01*
X134636176Y-100249999D01*
X124627840Y-100249999D01*
X124631476Y-100243110D01*
X124586825Y-100095901D01*
X124461641Y-99833080D01*
X124287588Y-99599731D01*
X124071355Y-99404822D01*
X123821252Y-99255843D01*
X123653202Y-99196231D01*
X123771202Y-99147353D01*
X123972167Y-99013073D01*
X124143073Y-98842167D01*
X124277353Y-98641202D01*
X124369847Y-98417903D01*
X124417000Y-98180849D01*
X124417000Y-97939151D01*
X124369847Y-97702097D01*
X124277353Y-97478798D01*
X124143073Y-97277833D01*
X123972167Y-97106927D01*
X123771202Y-96972647D01*
X123638330Y-96917609D01*
X134421538Y-96917609D01*
X134425409Y-96955282D01*
X134517579Y-97180533D01*
X134651922Y-97383474D01*
X134823275Y-97556307D01*
X135025054Y-97692390D01*
X135145769Y-97743001D01*
X135069582Y-97783724D01*
X134920814Y-97905814D01*
X134798724Y-98054582D01*
X134708003Y-98224309D01*
X134652137Y-98408475D01*
X134633273Y-98600000D01*
X134652137Y-98791525D01*
X134708003Y-98975691D01*
X134798724Y-99145418D01*
X134920814Y-99294186D01*
X135069582Y-99416276D01*
X135239309Y-99506997D01*
X135423475Y-99562863D01*
X135567007Y-99577000D01*
X136212993Y-99577000D01*
X136356525Y-99562863D01*
X136540691Y-99506997D01*
X136710418Y-99416276D01*
X136859186Y-99294186D01*
X136981276Y-99145418D01*
X137071997Y-98975691D01*
X137127863Y-98791525D01*
X137146727Y-98600000D01*
X137127863Y-98408475D01*
X137071997Y-98224309D01*
X136981276Y-98054582D01*
X136859186Y-97905814D01*
X136710418Y-97783724D01*
X136634231Y-97743001D01*
X136754946Y-97692390D01*
X136956725Y-97556307D01*
X137128078Y-97383474D01*
X137262421Y-97180533D01*
X137354591Y-96955282D01*
X137358462Y-96917609D01*
X137233731Y-96727000D01*
X136017000Y-96727000D01*
X136017000Y-96747000D01*
X135763000Y-96747000D01*
X135763000Y-96727000D01*
X134546269Y-96727000D01*
X134421538Y-96917609D01*
X123638330Y-96917609D01*
X123547903Y-96880153D01*
X123310849Y-96833000D01*
X123069151Y-96833000D01*
X122832097Y-96880153D01*
X122608798Y-96972647D01*
X122407833Y-97106927D01*
X122236927Y-97277833D01*
X122102647Y-97478798D01*
X122010153Y-97702097D01*
X121963000Y-97939151D01*
X121963000Y-98180849D01*
X122010153Y-98417903D01*
X122102647Y-98641202D01*
X122236927Y-98842167D01*
X122407833Y-99013073D01*
X122608798Y-99147353D01*
X122726798Y-99196231D01*
X122558748Y-99255843D01*
X122308645Y-99404822D01*
X122092412Y-99599731D01*
X121918359Y-99833080D01*
X121793175Y-100095901D01*
X121783078Y-100129188D01*
X121737353Y-100018798D01*
X121603073Y-99817833D01*
X121432167Y-99646927D01*
X121231202Y-99512647D01*
X121007903Y-99420153D01*
X120770849Y-99373000D01*
X120529151Y-99373000D01*
X120292097Y-99420153D01*
X120068798Y-99512647D01*
X119867833Y-99646927D01*
X119696927Y-99817833D01*
X119562647Y-100018798D01*
X119470153Y-100242097D01*
X119423000Y-100479151D01*
X117095931Y-100479151D01*
X117183318Y-100461769D01*
X117397519Y-100373044D01*
X117590294Y-100244236D01*
X117754236Y-100080294D01*
X117883044Y-99887519D01*
X117971769Y-99673318D01*
X118017000Y-99445924D01*
X118017000Y-99214076D01*
X117971769Y-98986682D01*
X117883044Y-98772481D01*
X117754236Y-98579706D01*
X117590294Y-98415764D01*
X117397519Y-98286956D01*
X117183318Y-98198231D01*
X116955924Y-98153000D01*
X116724076Y-98153000D01*
X116496682Y-98198231D01*
X116282481Y-98286956D01*
X116089706Y-98415764D01*
X115925764Y-98579706D01*
X115796956Y-98772481D01*
X115708231Y-98986682D01*
X115663000Y-99214076D01*
X110397000Y-99214076D01*
X110351769Y-98986682D01*
X110263044Y-98772481D01*
X110134236Y-98579706D01*
X109970294Y-98415764D01*
X109777519Y-98286956D01*
X109563318Y-98198231D01*
X109335924Y-98153000D01*
X109104076Y-98153000D01*
X108876682Y-98198231D01*
X108662481Y-98286956D01*
X108469706Y-98415764D01*
X108305764Y-98579706D01*
X108176956Y-98772481D01*
X108088231Y-98986682D01*
X108043000Y-99214076D01*
X108043000Y-99445924D01*
X108088231Y-99673318D01*
X108176956Y-99887519D01*
X108305764Y-100080294D01*
X108469706Y-100244236D01*
X108662481Y-100373044D01*
X108876682Y-100461769D01*
X109092998Y-100504796D01*
X109092998Y-100599375D01*
X108870960Y-100478091D01*
X108606119Y-100572930D01*
X108364869Y-100717615D01*
X108156481Y-100906586D01*
X107988963Y-101132580D01*
X107868754Y-101386913D01*
X107828096Y-101520961D01*
X96736357Y-101520961D01*
X95995001Y-100779605D01*
X95217613Y-101556993D01*
X93191306Y-101556993D01*
X93313422Y-101475398D01*
X93470399Y-101318421D01*
X93593735Y-101133835D01*
X93678691Y-100928734D01*
X93722001Y-100711000D01*
X93722001Y-100672492D01*
X94605189Y-100672492D01*
X94646036Y-100942238D01*
X94738724Y-101198832D01*
X94799141Y-101311863D01*
X95038008Y-101377388D01*
X95815396Y-100600000D01*
X96174606Y-100600000D01*
X96951994Y-101377388D01*
X97190861Y-101311863D01*
X97306761Y-101064884D01*
X97372251Y-100800040D01*
X97384813Y-100527508D01*
X97343966Y-100257762D01*
X97251278Y-100001168D01*
X97190861Y-99888137D01*
X96951994Y-99822612D01*
X96174606Y-100600000D01*
X95815396Y-100600000D01*
X95038008Y-99822612D01*
X94799141Y-99888137D01*
X94683241Y-100135116D01*
X94617751Y-100399960D01*
X94605189Y-100672492D01*
X93722001Y-100672492D01*
X93722001Y-100489000D01*
X93678691Y-100271266D01*
X93593735Y-100066165D01*
X93470399Y-99881579D01*
X93313422Y-99724602D01*
X93191307Y-99643007D01*
X95217613Y-99643007D01*
X95995001Y-100420395D01*
X96772389Y-99643007D01*
X96706864Y-99404140D01*
X96459885Y-99288240D01*
X96195041Y-99222750D01*
X95922509Y-99210188D01*
X95652763Y-99251035D01*
X95396169Y-99343723D01*
X95283138Y-99404140D01*
X95217613Y-99643007D01*
X93191307Y-99643007D01*
X93128836Y-99601266D01*
X92923735Y-99516310D01*
X92706001Y-99473000D01*
X92484001Y-99473000D01*
X92266267Y-99516310D01*
X92061166Y-99601266D01*
X91876580Y-99724602D01*
X91719603Y-99881579D01*
X91596267Y-100066165D01*
X91511311Y-100271266D01*
X91468001Y-100489000D01*
X79402000Y-100489000D01*
X79402000Y-99810000D01*
X80411928Y-99810000D01*
X80424188Y-99934482D01*
X80460498Y-100054180D01*
X80519463Y-100164494D01*
X80598815Y-100261185D01*
X80695506Y-100340537D01*
X80805820Y-100399502D01*
X80925518Y-100435812D01*
X81050000Y-100448072D01*
X82264250Y-100445000D01*
X82423000Y-100286250D01*
X82423000Y-98187000D01*
X82677000Y-98187000D01*
X82677000Y-100286250D01*
X82835750Y-100445000D01*
X84050000Y-100448072D01*
X84174482Y-100435812D01*
X84294180Y-100399502D01*
X84404494Y-100340537D01*
X84501185Y-100261185D01*
X84580537Y-100164494D01*
X84639502Y-100054180D01*
X84675812Y-99934482D01*
X84688072Y-99810000D01*
X84685000Y-98345750D01*
X84526250Y-98187000D01*
X82677000Y-98187000D01*
X82423000Y-98187000D01*
X80573750Y-98187000D01*
X80415000Y-98345750D01*
X80411928Y-99810000D01*
X79402000Y-99810000D01*
X79402000Y-96310000D01*
X80411928Y-96310000D01*
X80415000Y-97774250D01*
X80573750Y-97933000D01*
X82423000Y-97933000D01*
X82423000Y-95833750D01*
X82677000Y-95833750D01*
X82677000Y-97933000D01*
X84526250Y-97933000D01*
X84685000Y-97774250D01*
X84688072Y-96310000D01*
X86421176Y-96310000D01*
X86421176Y-99810000D01*
X86428455Y-99883905D01*
X86450012Y-99954970D01*
X86485019Y-100020463D01*
X86532131Y-100077869D01*
X86589537Y-100124981D01*
X86655030Y-100159988D01*
X86726095Y-100181545D01*
X86800000Y-100188824D01*
X90300000Y-100188824D01*
X90373905Y-100181545D01*
X90444970Y-100159988D01*
X90510463Y-100124981D01*
X90567869Y-100077869D01*
X90614981Y-100020463D01*
X90649988Y-99954970D01*
X90671545Y-99883905D01*
X90678824Y-99810000D01*
X90678824Y-97755565D01*
X91924040Y-97755565D01*
X91991020Y-97995656D01*
X92240048Y-98112756D01*
X92507135Y-98179023D01*
X92782017Y-98191910D01*
X93054133Y-98150922D01*
X93313023Y-98057636D01*
X93428980Y-97995656D01*
X93495960Y-97755565D01*
X92710000Y-96969605D01*
X91924040Y-97755565D01*
X90678824Y-97755565D01*
X90678824Y-96862017D01*
X91308090Y-96862017D01*
X91349078Y-97134133D01*
X91442364Y-97393023D01*
X91504344Y-97508980D01*
X91744435Y-97575960D01*
X92530395Y-96790000D01*
X92889605Y-96790000D01*
X93675565Y-97575960D01*
X93915656Y-97508980D01*
X94032756Y-97259952D01*
X94099023Y-96992865D01*
X94111000Y-96737393D01*
X94111000Y-96902182D01*
X94154771Y-97122234D01*
X94240631Y-97329519D01*
X94365281Y-97516070D01*
X94523930Y-97674719D01*
X94710481Y-97799369D01*
X94917766Y-97885229D01*
X95137818Y-97929000D01*
X95362182Y-97929000D01*
X95582234Y-97885229D01*
X95789519Y-97799369D01*
X95976070Y-97674719D01*
X96134719Y-97516070D01*
X96259369Y-97329519D01*
X96345229Y-97122234D01*
X96389000Y-96902182D01*
X96389000Y-96677818D01*
X96388256Y-96674076D01*
X108043000Y-96674076D01*
X108043000Y-96905924D01*
X108088231Y-97133318D01*
X108176956Y-97347519D01*
X108305764Y-97540294D01*
X108469706Y-97704236D01*
X108662481Y-97833044D01*
X108876682Y-97921769D01*
X109104076Y-97967000D01*
X109335924Y-97967000D01*
X109563318Y-97921769D01*
X109777519Y-97833044D01*
X109970294Y-97704236D01*
X110134236Y-97540294D01*
X110263044Y-97347519D01*
X110351769Y-97133318D01*
X110397000Y-96905924D01*
X110397000Y-96674076D01*
X115663000Y-96674076D01*
X115663000Y-96905924D01*
X115708231Y-97133318D01*
X115796956Y-97347519D01*
X115925764Y-97540294D01*
X116089706Y-97704236D01*
X116282481Y-97833044D01*
X116496682Y-97921769D01*
X116724076Y-97967000D01*
X116955924Y-97967000D01*
X117095931Y-97939151D01*
X119423000Y-97939151D01*
X119423000Y-98180849D01*
X119470153Y-98417903D01*
X119562647Y-98641202D01*
X119696927Y-98842167D01*
X119867833Y-99013073D01*
X120068798Y-99147353D01*
X120292097Y-99239847D01*
X120529151Y-99287000D01*
X120770849Y-99287000D01*
X121007903Y-99239847D01*
X121231202Y-99147353D01*
X121432167Y-99013073D01*
X121603073Y-98842167D01*
X121737353Y-98641202D01*
X121829847Y-98417903D01*
X121877000Y-98180849D01*
X121877000Y-97939151D01*
X121829847Y-97702097D01*
X121737353Y-97478798D01*
X121603073Y-97277833D01*
X121432167Y-97106927D01*
X121231202Y-96972647D01*
X121007903Y-96880153D01*
X120770849Y-96833000D01*
X120529151Y-96833000D01*
X120292097Y-96880153D01*
X120068798Y-96972647D01*
X119867833Y-97106927D01*
X119696927Y-97277833D01*
X119562647Y-97478798D01*
X119470153Y-97702097D01*
X119423000Y-97939151D01*
X117095931Y-97939151D01*
X117183318Y-97921769D01*
X117397519Y-97833044D01*
X117590294Y-97704236D01*
X117754236Y-97540294D01*
X117883044Y-97347519D01*
X117971769Y-97133318D01*
X118017000Y-96905924D01*
X118017000Y-96674076D01*
X117971769Y-96446682D01*
X117883044Y-96232481D01*
X117754236Y-96039706D01*
X117590294Y-95875764D01*
X117397519Y-95746956D01*
X117183318Y-95658231D01*
X116955924Y-95613000D01*
X116724076Y-95613000D01*
X116496682Y-95658231D01*
X116282481Y-95746956D01*
X116089706Y-95875764D01*
X115925764Y-96039706D01*
X115796956Y-96232481D01*
X115708231Y-96446682D01*
X115663000Y-96674076D01*
X110397000Y-96674076D01*
X110351769Y-96446682D01*
X110263044Y-96232481D01*
X110134236Y-96039706D01*
X109970294Y-95875764D01*
X109777519Y-95746956D01*
X109563318Y-95658231D01*
X109335924Y-95613000D01*
X109104076Y-95613000D01*
X108876682Y-95658231D01*
X108662481Y-95746956D01*
X108469706Y-95875764D01*
X108305764Y-96039706D01*
X108176956Y-96232481D01*
X108088231Y-96446682D01*
X108043000Y-96674076D01*
X96388256Y-96674076D01*
X96345229Y-96457766D01*
X96259369Y-96250481D01*
X96134719Y-96063930D01*
X95976070Y-95905281D01*
X95789519Y-95780631D01*
X95582234Y-95694771D01*
X95362182Y-95651000D01*
X95137818Y-95651000D01*
X94917766Y-95694771D01*
X94710481Y-95780631D01*
X94523930Y-95905281D01*
X94365281Y-96063930D01*
X94240631Y-96250481D01*
X94154771Y-96457766D01*
X94111000Y-96677818D01*
X94111000Y-96711942D01*
X94070922Y-96445867D01*
X93977636Y-96186977D01*
X93915656Y-96071020D01*
X93675565Y-96004040D01*
X92889605Y-96790000D01*
X92530395Y-96790000D01*
X91744435Y-96004040D01*
X91504344Y-96071020D01*
X91387244Y-96320048D01*
X91320977Y-96587135D01*
X91308090Y-96862017D01*
X90678824Y-96862017D01*
X90678824Y-96310000D01*
X90671545Y-96236095D01*
X90649988Y-96165030D01*
X90614981Y-96099537D01*
X90567869Y-96042131D01*
X90510463Y-95995019D01*
X90444970Y-95960012D01*
X90373905Y-95938455D01*
X90300000Y-95931176D01*
X86800000Y-95931176D01*
X86726095Y-95938455D01*
X86655030Y-95960012D01*
X86589537Y-95995019D01*
X86532131Y-96042131D01*
X86485019Y-96099537D01*
X86450012Y-96165030D01*
X86428455Y-96236095D01*
X86421176Y-96310000D01*
X84688072Y-96310000D01*
X84675812Y-96185518D01*
X84639502Y-96065820D01*
X84580537Y-95955506D01*
X84501185Y-95858815D01*
X84404494Y-95779463D01*
X84294180Y-95720498D01*
X84174482Y-95684188D01*
X84050000Y-95671928D01*
X82835750Y-95675000D01*
X82677000Y-95833750D01*
X82423000Y-95833750D01*
X82264250Y-95675000D01*
X81050000Y-95671928D01*
X80925518Y-95684188D01*
X80805820Y-95720498D01*
X80695506Y-95779463D01*
X80598815Y-95858815D01*
X80519463Y-95955506D01*
X80460498Y-96065820D01*
X80424188Y-96185518D01*
X80411928Y-96310000D01*
X79402000Y-96310000D01*
X79402000Y-95215565D01*
X91924040Y-95215565D01*
X91991020Y-95455656D01*
X92121644Y-95517079D01*
X92106977Y-95522364D01*
X91991020Y-95584344D01*
X91924040Y-95824435D01*
X92710000Y-96610395D01*
X93495960Y-95824435D01*
X93428980Y-95584344D01*
X93298356Y-95522921D01*
X93313023Y-95517636D01*
X93428980Y-95455656D01*
X93495960Y-95215565D01*
X92710000Y-94429605D01*
X91924040Y-95215565D01*
X79402000Y-95215565D01*
X79402000Y-94322017D01*
X91308090Y-94322017D01*
X91349078Y-94594133D01*
X91442364Y-94853023D01*
X91504344Y-94968980D01*
X91744435Y-95035960D01*
X92530395Y-94250000D01*
X92889605Y-94250000D01*
X93675565Y-95035960D01*
X93915656Y-94968980D01*
X94032756Y-94719952D01*
X94099023Y-94452865D01*
X94111000Y-94197393D01*
X94111000Y-94362182D01*
X94154771Y-94582234D01*
X94240631Y-94789519D01*
X94365281Y-94976070D01*
X94523930Y-95134719D01*
X94710481Y-95259369D01*
X94917766Y-95345229D01*
X95137818Y-95389000D01*
X95362182Y-95389000D01*
X95582234Y-95345229D01*
X95789519Y-95259369D01*
X95976070Y-95134719D01*
X96134719Y-94976070D01*
X96259369Y-94789519D01*
X96345229Y-94582234D01*
X96389000Y-94362182D01*
X96389000Y-94137818D01*
X96345229Y-93917766D01*
X96259369Y-93710481D01*
X96134719Y-93523930D01*
X95976070Y-93365281D01*
X95789519Y-93240631D01*
X95582234Y-93154771D01*
X95362182Y-93111000D01*
X95137818Y-93111000D01*
X94917766Y-93154771D01*
X94710481Y-93240631D01*
X94523930Y-93365281D01*
X94365281Y-93523930D01*
X94240631Y-93710481D01*
X94154771Y-93917766D01*
X94111000Y-94137818D01*
X94111000Y-94171942D01*
X94070922Y-93905867D01*
X93977636Y-93646977D01*
X93915656Y-93531020D01*
X93675565Y-93464040D01*
X92889605Y-94250000D01*
X92530395Y-94250000D01*
X91744435Y-93464040D01*
X91504344Y-93531020D01*
X91387244Y-93780048D01*
X91320977Y-94047135D01*
X91308090Y-94322017D01*
X79402000Y-94322017D01*
X79402000Y-92701891D01*
X83013519Y-92701891D01*
X83110843Y-92976252D01*
X83259822Y-93226355D01*
X83454731Y-93442588D01*
X83688080Y-93616641D01*
X83950901Y-93741825D01*
X84098110Y-93786476D01*
X84328000Y-93665155D01*
X84328000Y-92472000D01*
X83134186Y-92472000D01*
X83013519Y-92701891D01*
X79402000Y-92701891D01*
X79402000Y-91988109D01*
X83013519Y-91988109D01*
X83134186Y-92218000D01*
X84328000Y-92218000D01*
X84328000Y-91024845D01*
X84582000Y-91024845D01*
X84582000Y-92218000D01*
X84602000Y-92218000D01*
X84602000Y-92472000D01*
X84582000Y-92472000D01*
X84582000Y-93665155D01*
X84811890Y-93786476D01*
X84959099Y-93741825D01*
X85221920Y-93616641D01*
X85455269Y-93442588D01*
X85650178Y-93226355D01*
X85766176Y-93031620D01*
X85766176Y-93195000D01*
X85773455Y-93268905D01*
X85795012Y-93339970D01*
X85830019Y-93405463D01*
X85877131Y-93462869D01*
X85934537Y-93509981D01*
X86000030Y-93544988D01*
X86071095Y-93566545D01*
X86145000Y-93573824D01*
X87845000Y-93573824D01*
X87918905Y-93566545D01*
X87989970Y-93544988D01*
X88055463Y-93509981D01*
X88112869Y-93462869D01*
X88159981Y-93405463D01*
X88194988Y-93339970D01*
X88211834Y-93284435D01*
X91924040Y-93284435D01*
X92710000Y-94070395D01*
X93495960Y-93284435D01*
X93428980Y-93044344D01*
X93179952Y-92927244D01*
X92925356Y-92864076D01*
X99153000Y-92864076D01*
X99153000Y-93095924D01*
X99198231Y-93323318D01*
X99286956Y-93537519D01*
X99415764Y-93730294D01*
X99579706Y-93894236D01*
X99772481Y-94023044D01*
X99986682Y-94111769D01*
X100214076Y-94157000D01*
X100445924Y-94157000D01*
X100673318Y-94111769D01*
X100887519Y-94023044D01*
X101080294Y-93894236D01*
X101244236Y-93730294D01*
X101373044Y-93537519D01*
X101461769Y-93323318D01*
X101507000Y-93095924D01*
X101507000Y-92864076D01*
X102963000Y-92864076D01*
X102963000Y-93095924D01*
X103008231Y-93323318D01*
X103096956Y-93537519D01*
X103225764Y-93730294D01*
X103389706Y-93894236D01*
X103582481Y-94023044D01*
X103796682Y-94111769D01*
X104024076Y-94157000D01*
X104255924Y-94157000D01*
X104483318Y-94111769D01*
X104697519Y-94023044D01*
X104890294Y-93894236D01*
X105054236Y-93730294D01*
X105183044Y-93537519D01*
X105219295Y-93450000D01*
X108041176Y-93450000D01*
X108041176Y-95050000D01*
X108048455Y-95123905D01*
X108070012Y-95194970D01*
X108105019Y-95260463D01*
X108152131Y-95317869D01*
X108209537Y-95364981D01*
X108275030Y-95399988D01*
X108346095Y-95421545D01*
X108420000Y-95428824D01*
X110020000Y-95428824D01*
X110093905Y-95421545D01*
X110164970Y-95399988D01*
X110230463Y-95364981D01*
X110287869Y-95317869D01*
X110334981Y-95260463D01*
X110369988Y-95194970D01*
X110391545Y-95123905D01*
X110398824Y-95050000D01*
X110398824Y-94134076D01*
X115663000Y-94134076D01*
X115663000Y-94365924D01*
X115708231Y-94593318D01*
X115796956Y-94807519D01*
X115925764Y-95000294D01*
X116089706Y-95164236D01*
X116282481Y-95293044D01*
X116496682Y-95381769D01*
X116724076Y-95427000D01*
X116955924Y-95427000D01*
X117183318Y-95381769D01*
X117397519Y-95293044D01*
X117590294Y-95164236D01*
X117754236Y-95000294D01*
X117883044Y-94807519D01*
X117940006Y-94670000D01*
X119421176Y-94670000D01*
X119421176Y-96370000D01*
X119428455Y-96443905D01*
X119450012Y-96514970D01*
X119485019Y-96580463D01*
X119532131Y-96637869D01*
X119589537Y-96684981D01*
X119655030Y-96719988D01*
X119726095Y-96741545D01*
X119800000Y-96748824D01*
X121500000Y-96748824D01*
X121573905Y-96741545D01*
X121644970Y-96719988D01*
X121710463Y-96684981D01*
X121767869Y-96637869D01*
X121814981Y-96580463D01*
X121849988Y-96514970D01*
X121871545Y-96443905D01*
X121878824Y-96370000D01*
X121878824Y-95399151D01*
X121963000Y-95399151D01*
X121963000Y-95640849D01*
X122010153Y-95877903D01*
X122102647Y-96101202D01*
X122236927Y-96302167D01*
X122407833Y-96473073D01*
X122608798Y-96607353D01*
X122832097Y-96699847D01*
X123069151Y-96747000D01*
X123310849Y-96747000D01*
X123547903Y-96699847D01*
X123771202Y-96607353D01*
X123914073Y-96511890D01*
X138258524Y-96511890D01*
X138303175Y-96659099D01*
X138428359Y-96921920D01*
X138602412Y-97155269D01*
X138818645Y-97350178D01*
X139068748Y-97499157D01*
X139236798Y-97558769D01*
X139118798Y-97607647D01*
X138917833Y-97741927D01*
X138746927Y-97912833D01*
X138612647Y-98113798D01*
X138520153Y-98337097D01*
X138473000Y-98574151D01*
X138473000Y-98815849D01*
X138520153Y-99052903D01*
X138612647Y-99276202D01*
X138746927Y-99477167D01*
X138917833Y-99648073D01*
X139118798Y-99782353D01*
X139342097Y-99874847D01*
X139579151Y-99922000D01*
X139820849Y-99922000D01*
X140057903Y-99874847D01*
X140281202Y-99782353D01*
X140482167Y-99648073D01*
X140653073Y-99477167D01*
X140787353Y-99276202D01*
X140879847Y-99052903D01*
X140927000Y-98815849D01*
X140927000Y-98574151D01*
X140879847Y-98337097D01*
X140787353Y-98113798D01*
X140653073Y-97912833D01*
X140482167Y-97741927D01*
X140281202Y-97607647D01*
X140163202Y-97558769D01*
X140331252Y-97499157D01*
X140581355Y-97350178D01*
X140797588Y-97155269D01*
X140971641Y-96921920D01*
X141096825Y-96659099D01*
X141141476Y-96511890D01*
X141020155Y-96282000D01*
X139827000Y-96282000D01*
X139827000Y-96302000D01*
X139573000Y-96302000D01*
X139573000Y-96282000D01*
X138379845Y-96282000D01*
X138258524Y-96511890D01*
X123914073Y-96511890D01*
X123972167Y-96473073D01*
X124143073Y-96302167D01*
X124156286Y-96282391D01*
X134421538Y-96282391D01*
X134546269Y-96473000D01*
X135763000Y-96473000D01*
X135763000Y-95365000D01*
X136017000Y-95365000D01*
X136017000Y-96473000D01*
X137233731Y-96473000D01*
X137358462Y-96282391D01*
X137354591Y-96244718D01*
X137262421Y-96019467D01*
X137128078Y-95816526D01*
X137109820Y-95798110D01*
X138258524Y-95798110D01*
X138379845Y-96028000D01*
X139573000Y-96028000D01*
X139573000Y-94834186D01*
X139827000Y-94834186D01*
X139827000Y-96028000D01*
X141020155Y-96028000D01*
X141141476Y-95798110D01*
X141096825Y-95650901D01*
X140971641Y-95388080D01*
X140797588Y-95154731D01*
X140581355Y-94959822D01*
X140331252Y-94810843D01*
X140056891Y-94713519D01*
X139827000Y-94834186D01*
X139573000Y-94834186D01*
X139343109Y-94713519D01*
X139068748Y-94810843D01*
X138818645Y-94959822D01*
X138602412Y-95154731D01*
X138428359Y-95388080D01*
X138303175Y-95650901D01*
X138258524Y-95798110D01*
X137109820Y-95798110D01*
X136956725Y-95643693D01*
X136754946Y-95507610D01*
X136530496Y-95413507D01*
X136292000Y-95365000D01*
X136017000Y-95365000D01*
X135763000Y-95365000D01*
X135488000Y-95365000D01*
X135249504Y-95413507D01*
X135025054Y-95507610D01*
X134823275Y-95643693D01*
X134651922Y-95816526D01*
X134517579Y-96019467D01*
X134425409Y-96244718D01*
X134421538Y-96282391D01*
X124156286Y-96282391D01*
X124277353Y-96101202D01*
X124369847Y-95877903D01*
X124417000Y-95640849D01*
X124417000Y-95399151D01*
X124369847Y-95162097D01*
X124277353Y-94938798D01*
X124143073Y-94737833D01*
X123972167Y-94566927D01*
X123771202Y-94432647D01*
X123547903Y-94340153D01*
X123310849Y-94293000D01*
X123069151Y-94293000D01*
X122832097Y-94340153D01*
X122608798Y-94432647D01*
X122407833Y-94566927D01*
X122236927Y-94737833D01*
X122102647Y-94938798D01*
X122010153Y-95162097D01*
X121963000Y-95399151D01*
X121878824Y-95399151D01*
X121878824Y-94670000D01*
X121871545Y-94596095D01*
X121849988Y-94525030D01*
X121814981Y-94459537D01*
X121767869Y-94402131D01*
X121710463Y-94355019D01*
X121644970Y-94320012D01*
X121573905Y-94298455D01*
X121500000Y-94291176D01*
X119800000Y-94291176D01*
X119726095Y-94298455D01*
X119655030Y-94320012D01*
X119589537Y-94355019D01*
X119532131Y-94402131D01*
X119485019Y-94459537D01*
X119450012Y-94525030D01*
X119428455Y-94596095D01*
X119421176Y-94670000D01*
X117940006Y-94670000D01*
X117971769Y-94593318D01*
X118017000Y-94365924D01*
X118017000Y-94134076D01*
X117971769Y-93906682D01*
X117929768Y-93805282D01*
X128023000Y-93805282D01*
X128023000Y-94194718D01*
X128098975Y-94576670D01*
X128248005Y-94936461D01*
X128464364Y-95260264D01*
X128739736Y-95535636D01*
X129063539Y-95751995D01*
X129423330Y-95901025D01*
X129805282Y-95977000D01*
X130194718Y-95977000D01*
X130576670Y-95901025D01*
X130936461Y-95751995D01*
X131260264Y-95535636D01*
X131535636Y-95260264D01*
X131751995Y-94936461D01*
X131901025Y-94576670D01*
X131977000Y-94194718D01*
X131977000Y-93805282D01*
X131901025Y-93423330D01*
X131751995Y-93063539D01*
X131535636Y-92739736D01*
X131260264Y-92464364D01*
X130936461Y-92248005D01*
X130576670Y-92098975D01*
X130194718Y-92023000D01*
X129805282Y-92023000D01*
X129423330Y-92098975D01*
X129063539Y-92248005D01*
X128739736Y-92464364D01*
X128464364Y-92739736D01*
X128248005Y-93063539D01*
X128098975Y-93423330D01*
X128023000Y-93805282D01*
X117929768Y-93805282D01*
X117883044Y-93692481D01*
X117754236Y-93499706D01*
X117590294Y-93335764D01*
X117397519Y-93206956D01*
X117183318Y-93118231D01*
X116955924Y-93073000D01*
X116724076Y-93073000D01*
X116496682Y-93118231D01*
X116282481Y-93206956D01*
X116089706Y-93335764D01*
X115925764Y-93499706D01*
X115796956Y-93692481D01*
X115708231Y-93906682D01*
X115663000Y-94134076D01*
X110398824Y-94134076D01*
X110398824Y-93450000D01*
X110391545Y-93376095D01*
X110369988Y-93305030D01*
X110334981Y-93239537D01*
X110287869Y-93182131D01*
X110230463Y-93135019D01*
X110164970Y-93100012D01*
X110093905Y-93078455D01*
X110020000Y-93071176D01*
X108420000Y-93071176D01*
X108346095Y-93078455D01*
X108275030Y-93100012D01*
X108209537Y-93135019D01*
X108152131Y-93182131D01*
X108105019Y-93239537D01*
X108070012Y-93305030D01*
X108048455Y-93376095D01*
X108041176Y-93450000D01*
X105219295Y-93450000D01*
X105271769Y-93323318D01*
X105317000Y-93095924D01*
X105317000Y-92864076D01*
X105271769Y-92636682D01*
X105183044Y-92422481D01*
X105054236Y-92229706D01*
X104890294Y-92065764D01*
X104697519Y-91936956D01*
X104483318Y-91848231D01*
X104255924Y-91803000D01*
X104024076Y-91803000D01*
X103796682Y-91848231D01*
X103582481Y-91936956D01*
X103389706Y-92065764D01*
X103225764Y-92229706D01*
X103096956Y-92422481D01*
X103008231Y-92636682D01*
X102963000Y-92864076D01*
X101507000Y-92864076D01*
X101461769Y-92636682D01*
X101373044Y-92422481D01*
X101244236Y-92229706D01*
X101080294Y-92065764D01*
X100887519Y-91936956D01*
X100673318Y-91848231D01*
X100445924Y-91803000D01*
X100214076Y-91803000D01*
X99986682Y-91848231D01*
X99772481Y-91936956D01*
X99579706Y-92065764D01*
X99415764Y-92229706D01*
X99286956Y-92422481D01*
X99198231Y-92636682D01*
X99153000Y-92864076D01*
X92925356Y-92864076D01*
X92912865Y-92860977D01*
X92637983Y-92848090D01*
X92365867Y-92889078D01*
X92106977Y-92982364D01*
X91991020Y-93044344D01*
X91924040Y-93284435D01*
X88211834Y-93284435D01*
X88216545Y-93268905D01*
X88223824Y-93195000D01*
X88223824Y-91495000D01*
X88216545Y-91421095D01*
X88194988Y-91350030D01*
X88159981Y-91284537D01*
X88112869Y-91227131D01*
X88055463Y-91180019D01*
X87989970Y-91145012D01*
X87918905Y-91123455D01*
X87845000Y-91116176D01*
X86145000Y-91116176D01*
X86071095Y-91123455D01*
X86000030Y-91145012D01*
X85934537Y-91180019D01*
X85877131Y-91227131D01*
X85830019Y-91284537D01*
X85795012Y-91350030D01*
X85773455Y-91421095D01*
X85766176Y-91495000D01*
X85766176Y-91658380D01*
X85650178Y-91463645D01*
X85455269Y-91247412D01*
X85221920Y-91073359D01*
X84959099Y-90948175D01*
X84811890Y-90903524D01*
X84582000Y-91024845D01*
X84328000Y-91024845D01*
X84098110Y-90903524D01*
X83950901Y-90948175D01*
X83688080Y-91073359D01*
X83454731Y-91247412D01*
X83259822Y-91463645D01*
X83110843Y-91713748D01*
X83013519Y-91988109D01*
X79402000Y-91988109D01*
X79402000Y-90402000D01*
X142598000Y-90402000D01*
X142598001Y-105598000D01*
G37*
%TD.AperFunction*%
%TD*%
M02*
