%TF.GenerationSoftware,KiCad,Pcbnew,5.99.0+really5.1.10+dfsg1-1*%
%TF.CreationDate,2022-02-16T19:45:23+00:00*%
%TF.ProjectId,mayor,6d61796f-722e-46b6-9963-61645f706362,rev?*%
%TF.SameCoordinates,Original*%
%TF.FileFunction,Legend,Top*%
%TF.FilePolarity,Positive*%
%FSLAX46Y46*%
G04 Gerber Fmt 4.6, Leading zero omitted, Abs format (unit mm)*
G04 Created by KiCad (PCBNEW 5.99.0+really5.1.10+dfsg1-1) date 2022-02-16 19:45:23*
%MOMM*%
%LPD*%
G01*
G04 APERTURE LIST*
%ADD10C,0.150000*%
%ADD11C,0.120000*%
%ADD12C,3.200000*%
%ADD13R,1.700000X1.700000*%
%ADD14O,1.700000X1.700000*%
%ADD15R,1.600000X1.600000*%
%ADD16O,1.600000X1.600000*%
%ADD17C,1.600000*%
%ADD18R,3.500000X3.500000*%
%ADD19O,1.750000X1.200000*%
%ADD20C,1.500000*%
%ADD21C,1.524000*%
G04 APERTURE END LIST*
D10*
X120285714Y-93452380D02*
X119714285Y-93452380D01*
X120000000Y-93452380D02*
X120000000Y-92452380D01*
X119904761Y-92595238D01*
X119809523Y-92690476D01*
X119714285Y-92738095D01*
X139692142Y-92480000D02*
X139596904Y-92432380D01*
X139454047Y-92432380D01*
X139311190Y-92480000D01*
X139215952Y-92575238D01*
X139168333Y-92670476D01*
X139120714Y-92860952D01*
X139120714Y-93003809D01*
X139168333Y-93194285D01*
X139215952Y-93289523D01*
X139311190Y-93384761D01*
X139454047Y-93432380D01*
X139549285Y-93432380D01*
X139692142Y-93384761D01*
X139739761Y-93337142D01*
X139739761Y-93003809D01*
X139549285Y-93003809D01*
X140168333Y-92765714D02*
X140168333Y-93432380D01*
X140168333Y-92860952D02*
X140215952Y-92813333D01*
X140311190Y-92765714D01*
X140454047Y-92765714D01*
X140549285Y-92813333D01*
X140596904Y-92908571D01*
X140596904Y-93432380D01*
X141501666Y-93432380D02*
X141501666Y-92432380D01*
X141501666Y-93384761D02*
X141406428Y-93432380D01*
X141215952Y-93432380D01*
X141120714Y-93384761D01*
X141073095Y-93337142D01*
X141025476Y-93241904D01*
X141025476Y-92956190D01*
X141073095Y-92860952D01*
X141120714Y-92813333D01*
X141215952Y-92765714D01*
X141406428Y-92765714D01*
X141501666Y-92813333D01*
X140144523Y-103862380D02*
X139668333Y-103862380D01*
X139620714Y-104338571D01*
X139668333Y-104290952D01*
X139763571Y-104243333D01*
X140001666Y-104243333D01*
X140096904Y-104290952D01*
X140144523Y-104338571D01*
X140192142Y-104433809D01*
X140192142Y-104671904D01*
X140144523Y-104767142D01*
X140096904Y-104814761D01*
X140001666Y-104862380D01*
X139763571Y-104862380D01*
X139668333Y-104814761D01*
X139620714Y-104767142D01*
X140477857Y-103862380D02*
X140811190Y-104862380D01*
X141144523Y-103862380D01*
X92860952Y-104862380D02*
X92384761Y-104862380D01*
X92384761Y-103862380D01*
X93194285Y-104862380D02*
X93194285Y-104195714D01*
X93194285Y-103862380D02*
X93146666Y-103910000D01*
X93194285Y-103957619D01*
X93241904Y-103910000D01*
X93194285Y-103862380D01*
X93194285Y-103957619D01*
X94099047Y-104195714D02*
X94099047Y-105005238D01*
X94051428Y-105100476D01*
X94003809Y-105148095D01*
X93908571Y-105195714D01*
X93765714Y-105195714D01*
X93670476Y-105148095D01*
X94099047Y-104814761D02*
X94003809Y-104862380D01*
X93813333Y-104862380D01*
X93718095Y-104814761D01*
X93670476Y-104767142D01*
X93622857Y-104671904D01*
X93622857Y-104386190D01*
X93670476Y-104290952D01*
X93718095Y-104243333D01*
X93813333Y-104195714D01*
X94003809Y-104195714D01*
X94099047Y-104243333D01*
X94575238Y-104862380D02*
X94575238Y-103862380D01*
X95003809Y-104862380D02*
X95003809Y-104338571D01*
X94956190Y-104243333D01*
X94860952Y-104195714D01*
X94718095Y-104195714D01*
X94622857Y-104243333D01*
X94575238Y-104290952D01*
X95337142Y-104195714D02*
X95718095Y-104195714D01*
X95480000Y-103862380D02*
X95480000Y-104719523D01*
X95527619Y-104814761D01*
X95622857Y-104862380D01*
X95718095Y-104862380D01*
X92908571Y-91162380D02*
X93480000Y-91162380D01*
X93194285Y-92162380D02*
X93194285Y-91162380D01*
X93813333Y-92162380D02*
X93813333Y-91495714D01*
X93813333Y-91162380D02*
X93765714Y-91210000D01*
X93813333Y-91257619D01*
X93860952Y-91210000D01*
X93813333Y-91162380D01*
X93813333Y-91257619D01*
X94432380Y-92162380D02*
X94337142Y-92114761D01*
X94289523Y-92019523D01*
X94289523Y-91162380D01*
X94670476Y-91495714D02*
X95051428Y-91495714D01*
X94813333Y-91162380D02*
X94813333Y-92019523D01*
X94860952Y-92114761D01*
X94956190Y-92162380D01*
X95051428Y-92162380D01*
D11*
%TO.C,J2*%
X119320000Y-101930000D02*
X124520000Y-101930000D01*
X119320000Y-96790000D02*
X119320000Y-101930000D01*
X124520000Y-94190000D02*
X124520000Y-101930000D01*
X119320000Y-96790000D02*
X121920000Y-96790000D01*
X121920000Y-96790000D02*
X121920000Y-94190000D01*
X121920000Y-94190000D02*
X124520000Y-94190000D01*
X119320000Y-95520000D02*
X119320000Y-94190000D01*
X119320000Y-94190000D02*
X120650000Y-94190000D01*
%TO.C,U1*%
X112030000Y-92920000D02*
X110380000Y-92920000D01*
X110380000Y-92920000D02*
X110380000Y-103200000D01*
X110380000Y-103200000D02*
X115680000Y-103200000D01*
X115680000Y-103200000D02*
X115680000Y-92920000D01*
X115680000Y-92920000D02*
X114030000Y-92920000D01*
X114030000Y-92920000D02*
G75*
G02*
X112030000Y-92920000I-1000000J0D01*
G01*
%TO.C,C1*%
X132180000Y-101870000D02*
G75*
G03*
X132180000Y-101870000I-2620000J0D01*
G01*
X129560000Y-104450000D02*
X129560000Y-99290000D01*
X129520000Y-104450000D02*
X129520000Y-99290000D01*
X129480000Y-104449000D02*
X129480000Y-99291000D01*
X129440000Y-104448000D02*
X129440000Y-99292000D01*
X129400000Y-104446000D02*
X129400000Y-99294000D01*
X129360000Y-104443000D02*
X129360000Y-99297000D01*
X129320000Y-104439000D02*
X129320000Y-102910000D01*
X129320000Y-100830000D02*
X129320000Y-99301000D01*
X129280000Y-104435000D02*
X129280000Y-102910000D01*
X129280000Y-100830000D02*
X129280000Y-99305000D01*
X129240000Y-104431000D02*
X129240000Y-102910000D01*
X129240000Y-100830000D02*
X129240000Y-99309000D01*
X129200000Y-104426000D02*
X129200000Y-102910000D01*
X129200000Y-100830000D02*
X129200000Y-99314000D01*
X129160000Y-104420000D02*
X129160000Y-102910000D01*
X129160000Y-100830000D02*
X129160000Y-99320000D01*
X129120000Y-104413000D02*
X129120000Y-102910000D01*
X129120000Y-100830000D02*
X129120000Y-99327000D01*
X129080000Y-104406000D02*
X129080000Y-102910000D01*
X129080000Y-100830000D02*
X129080000Y-99334000D01*
X129040000Y-104398000D02*
X129040000Y-102910000D01*
X129040000Y-100830000D02*
X129040000Y-99342000D01*
X129000000Y-104390000D02*
X129000000Y-102910000D01*
X129000000Y-100830000D02*
X129000000Y-99350000D01*
X128960000Y-104381000D02*
X128960000Y-102910000D01*
X128960000Y-100830000D02*
X128960000Y-99359000D01*
X128920000Y-104371000D02*
X128920000Y-102910000D01*
X128920000Y-100830000D02*
X128920000Y-99369000D01*
X128880000Y-104361000D02*
X128880000Y-102910000D01*
X128880000Y-100830000D02*
X128880000Y-99379000D01*
X128839000Y-104350000D02*
X128839000Y-102910000D01*
X128839000Y-100830000D02*
X128839000Y-99390000D01*
X128799000Y-104338000D02*
X128799000Y-102910000D01*
X128799000Y-100830000D02*
X128799000Y-99402000D01*
X128759000Y-104325000D02*
X128759000Y-102910000D01*
X128759000Y-100830000D02*
X128759000Y-99415000D01*
X128719000Y-104312000D02*
X128719000Y-102910000D01*
X128719000Y-100830000D02*
X128719000Y-99428000D01*
X128679000Y-104298000D02*
X128679000Y-102910000D01*
X128679000Y-100830000D02*
X128679000Y-99442000D01*
X128639000Y-104284000D02*
X128639000Y-102910000D01*
X128639000Y-100830000D02*
X128639000Y-99456000D01*
X128599000Y-104268000D02*
X128599000Y-102910000D01*
X128599000Y-100830000D02*
X128599000Y-99472000D01*
X128559000Y-104252000D02*
X128559000Y-102910000D01*
X128559000Y-100830000D02*
X128559000Y-99488000D01*
X128519000Y-104235000D02*
X128519000Y-102910000D01*
X128519000Y-100830000D02*
X128519000Y-99505000D01*
X128479000Y-104218000D02*
X128479000Y-102910000D01*
X128479000Y-100830000D02*
X128479000Y-99522000D01*
X128439000Y-104199000D02*
X128439000Y-102910000D01*
X128439000Y-100830000D02*
X128439000Y-99541000D01*
X128399000Y-104180000D02*
X128399000Y-102910000D01*
X128399000Y-100830000D02*
X128399000Y-99560000D01*
X128359000Y-104160000D02*
X128359000Y-102910000D01*
X128359000Y-100830000D02*
X128359000Y-99580000D01*
X128319000Y-104138000D02*
X128319000Y-102910000D01*
X128319000Y-100830000D02*
X128319000Y-99602000D01*
X128279000Y-104117000D02*
X128279000Y-102910000D01*
X128279000Y-100830000D02*
X128279000Y-99623000D01*
X128239000Y-104094000D02*
X128239000Y-102910000D01*
X128239000Y-100830000D02*
X128239000Y-99646000D01*
X128199000Y-104070000D02*
X128199000Y-102910000D01*
X128199000Y-100830000D02*
X128199000Y-99670000D01*
X128159000Y-104045000D02*
X128159000Y-102910000D01*
X128159000Y-100830000D02*
X128159000Y-99695000D01*
X128119000Y-104019000D02*
X128119000Y-102910000D01*
X128119000Y-100830000D02*
X128119000Y-99721000D01*
X128079000Y-103992000D02*
X128079000Y-102910000D01*
X128079000Y-100830000D02*
X128079000Y-99748000D01*
X128039000Y-103965000D02*
X128039000Y-102910000D01*
X128039000Y-100830000D02*
X128039000Y-99775000D01*
X127999000Y-103935000D02*
X127999000Y-102910000D01*
X127999000Y-100830000D02*
X127999000Y-99805000D01*
X127959000Y-103905000D02*
X127959000Y-102910000D01*
X127959000Y-100830000D02*
X127959000Y-99835000D01*
X127919000Y-103874000D02*
X127919000Y-102910000D01*
X127919000Y-100830000D02*
X127919000Y-99866000D01*
X127879000Y-103841000D02*
X127879000Y-102910000D01*
X127879000Y-100830000D02*
X127879000Y-99899000D01*
X127839000Y-103807000D02*
X127839000Y-102910000D01*
X127839000Y-100830000D02*
X127839000Y-99933000D01*
X127799000Y-103771000D02*
X127799000Y-102910000D01*
X127799000Y-100830000D02*
X127799000Y-99969000D01*
X127759000Y-103734000D02*
X127759000Y-102910000D01*
X127759000Y-100830000D02*
X127759000Y-100006000D01*
X127719000Y-103696000D02*
X127719000Y-102910000D01*
X127719000Y-100830000D02*
X127719000Y-100044000D01*
X127679000Y-103655000D02*
X127679000Y-102910000D01*
X127679000Y-100830000D02*
X127679000Y-100085000D01*
X127639000Y-103613000D02*
X127639000Y-102910000D01*
X127639000Y-100830000D02*
X127639000Y-100127000D01*
X127599000Y-103569000D02*
X127599000Y-102910000D01*
X127599000Y-100830000D02*
X127599000Y-100171000D01*
X127559000Y-103523000D02*
X127559000Y-102910000D01*
X127559000Y-100830000D02*
X127559000Y-100217000D01*
X127519000Y-103475000D02*
X127519000Y-102910000D01*
X127519000Y-100830000D02*
X127519000Y-100265000D01*
X127479000Y-103424000D02*
X127479000Y-102910000D01*
X127479000Y-100830000D02*
X127479000Y-100316000D01*
X127439000Y-103370000D02*
X127439000Y-102910000D01*
X127439000Y-100830000D02*
X127439000Y-100370000D01*
X127399000Y-103313000D02*
X127399000Y-102910000D01*
X127399000Y-100830000D02*
X127399000Y-100427000D01*
X127359000Y-103253000D02*
X127359000Y-102910000D01*
X127359000Y-100830000D02*
X127359000Y-100487000D01*
X127319000Y-103189000D02*
X127319000Y-102910000D01*
X127319000Y-100830000D02*
X127319000Y-100551000D01*
X127279000Y-103121000D02*
X127279000Y-102910000D01*
X127279000Y-100830000D02*
X127279000Y-100619000D01*
X127239000Y-103048000D02*
X127239000Y-100692000D01*
X127199000Y-102968000D02*
X127199000Y-100772000D01*
X127159000Y-102881000D02*
X127159000Y-100859000D01*
X127119000Y-102785000D02*
X127119000Y-100955000D01*
X127079000Y-102675000D02*
X127079000Y-101065000D01*
X127039000Y-102547000D02*
X127039000Y-101193000D01*
X126999000Y-102388000D02*
X126999000Y-101352000D01*
X126959000Y-102154000D02*
X126959000Y-101586000D01*
X132364775Y-103345000D02*
X131864775Y-103345000D01*
X132114775Y-103595000D02*
X132114775Y-103095000D01*
%TO.C,J1*%
X89650000Y-94310000D02*
X89650000Y-93260000D01*
X88600000Y-93260000D02*
X89650000Y-93260000D01*
X83550000Y-102660000D02*
X74750000Y-102660000D01*
X74750000Y-102660000D02*
X74750000Y-93460000D01*
X89450000Y-99960000D02*
X89450000Y-102660000D01*
X89450000Y-102660000D02*
X87550000Y-102660000D01*
X74750000Y-93460000D02*
X89450000Y-93460000D01*
X89450000Y-93460000D02*
X89450000Y-96060000D01*
%TO.C,J3*%
X136030000Y-101460000D02*
X136030000Y-101740000D01*
X136030000Y-101740000D02*
X134430000Y-101740000D01*
X134430000Y-101740000D02*
X134430000Y-102660000D01*
X134430000Y-102660000D02*
X142250000Y-102660000D01*
X142250000Y-102660000D02*
X142250000Y-94540000D01*
X142250000Y-94540000D02*
X134430000Y-94540000D01*
X134430000Y-94540000D02*
X134430000Y-95460000D01*
X134430000Y-95460000D02*
X136030000Y-95460000D01*
X136030000Y-95460000D02*
X136030000Y-95740000D01*
X142250000Y-100100000D02*
X137890000Y-100100000D01*
X137890000Y-100100000D02*
X137890000Y-97100000D01*
X137890000Y-97100000D02*
X142250000Y-97100000D01*
X136030000Y-102660000D02*
X136030000Y-101740000D01*
X136030000Y-94540000D02*
X136030000Y-95460000D01*
X138390000Y-101900000D02*
X139990000Y-101900000D01*
X139990000Y-101900000D02*
X139990000Y-100900000D01*
X139990000Y-100900000D02*
X138390000Y-100900000D01*
X138390000Y-100900000D02*
X138390000Y-101900000D01*
X138390000Y-95300000D02*
X139990000Y-95300000D01*
X139990000Y-95300000D02*
X139990000Y-96300000D01*
X139990000Y-96300000D02*
X138390000Y-96300000D01*
X138390000Y-96300000D02*
X138390000Y-95300000D01*
X139990000Y-100900000D02*
X142250000Y-100900000D01*
X139990000Y-101400000D02*
X142250000Y-101400000D01*
X136030000Y-101460000D02*
X134815000Y-101460000D01*
%TO.C,R1*%
X105510000Y-94790000D02*
X102770000Y-94790000D01*
X102770000Y-94790000D02*
X102770000Y-101330000D01*
X102770000Y-101330000D02*
X105510000Y-101330000D01*
X105510000Y-101330000D02*
X105510000Y-94790000D01*
X104140000Y-94020000D02*
X104140000Y-94790000D01*
X104140000Y-102100000D02*
X104140000Y-101330000D01*
%TO.C,R2*%
X92745001Y-102750000D02*
X95795001Y-102750000D01*
X92745001Y-98450000D02*
X95795001Y-98450000D01*
X92766767Y-98434474D02*
G75*
G03*
X92745001Y-102750000I1528234J-2165526D01*
G01*
X95839514Y-102718249D02*
G75*
G03*
X95795001Y-98450000I-1544513J2118249D01*
G01*
%TO.C,R3*%
X100330000Y-102100000D02*
X100330000Y-101330000D01*
X100330000Y-94020000D02*
X100330000Y-94790000D01*
X101700000Y-101330000D02*
X101700000Y-94790000D01*
X98960000Y-101330000D02*
X101700000Y-101330000D01*
X98960000Y-94790000D02*
X98960000Y-101330000D01*
X101700000Y-94790000D02*
X98960000Y-94790000D01*
%TO.C,SW1*%
X91480000Y-93020000D02*
X96480000Y-93020000D01*
X96480000Y-93020000D02*
X96480000Y-98020000D01*
X96480000Y-98020000D02*
X91480000Y-98020000D01*
X91480000Y-98020000D02*
X91480000Y-93020000D01*
%TO.C,J4*%
X83125000Y-91015000D02*
X83125000Y-93675000D01*
X85725000Y-91015000D02*
X83125000Y-91015000D01*
X85725000Y-93675000D02*
X83125000Y-93675000D01*
X85725000Y-91015000D02*
X85725000Y-93675000D01*
X86995000Y-91015000D02*
X88325000Y-91015000D01*
X88325000Y-91015000D02*
X88325000Y-92345000D01*
%TO.C,J5*%
X141030000Y-94825000D02*
X138370000Y-94825000D01*
X141030000Y-99965000D02*
X141030000Y-94825000D01*
X138370000Y-99965000D02*
X138370000Y-94825000D01*
X141030000Y-99965000D02*
X138370000Y-99965000D01*
X141030000Y-101235000D02*
X141030000Y-102565000D01*
X141030000Y-102565000D02*
X139700000Y-102565000D01*
%TO.C,J2*%
D10*
X123666666Y-102452380D02*
X123666666Y-103166666D01*
X123619047Y-103309523D01*
X123523809Y-103404761D01*
X123380952Y-103452380D01*
X123285714Y-103452380D01*
X124095238Y-102547619D02*
X124142857Y-102500000D01*
X124238095Y-102452380D01*
X124476190Y-102452380D01*
X124571428Y-102500000D01*
X124619047Y-102547619D01*
X124666666Y-102642857D01*
X124666666Y-102738095D01*
X124619047Y-102880952D01*
X124047619Y-103452380D01*
X124666666Y-103452380D01*
%TO.C,U1*%
X112268095Y-91372380D02*
X112268095Y-92181904D01*
X112315714Y-92277142D01*
X112363333Y-92324761D01*
X112458571Y-92372380D01*
X112649047Y-92372380D01*
X112744285Y-92324761D01*
X112791904Y-92277142D01*
X112839523Y-92181904D01*
X112839523Y-91372380D01*
X113839523Y-92372380D02*
X113268095Y-92372380D01*
X113553809Y-92372380D02*
X113553809Y-91372380D01*
X113458571Y-91515238D01*
X113363333Y-91610476D01*
X113268095Y-91658095D01*
%TO.C,C1*%
X126087142Y-102036666D02*
X126134761Y-102084285D01*
X126182380Y-102227142D01*
X126182380Y-102322380D01*
X126134761Y-102465238D01*
X126039523Y-102560476D01*
X125944285Y-102608095D01*
X125753809Y-102655714D01*
X125610952Y-102655714D01*
X125420476Y-102608095D01*
X125325238Y-102560476D01*
X125230000Y-102465238D01*
X125182380Y-102322380D01*
X125182380Y-102227142D01*
X125230000Y-102084285D01*
X125277619Y-102036666D01*
X126182380Y-101084285D02*
X126182380Y-101655714D01*
X126182380Y-101370000D02*
X125182380Y-101370000D01*
X125325238Y-101465238D01*
X125420476Y-101560476D01*
X125468095Y-101655714D01*
%TO.C,J1*%
X79766666Y-103262380D02*
X79766666Y-103976666D01*
X79719047Y-104119523D01*
X79623809Y-104214761D01*
X79480952Y-104262380D01*
X79385714Y-104262380D01*
X80766666Y-104262380D02*
X80195238Y-104262380D01*
X80480952Y-104262380D02*
X80480952Y-103262380D01*
X80385714Y-103405238D01*
X80290476Y-103500476D01*
X80195238Y-103548095D01*
%TO.C,J3*%
X132792380Y-98933333D02*
X133506666Y-98933333D01*
X133649523Y-98980952D01*
X133744761Y-99076190D01*
X133792380Y-99219047D01*
X133792380Y-99314285D01*
X132792380Y-98552380D02*
X132792380Y-97933333D01*
X133173333Y-98266666D01*
X133173333Y-98123809D01*
X133220952Y-98028571D01*
X133268571Y-97980952D01*
X133363809Y-97933333D01*
X133601904Y-97933333D01*
X133697142Y-97980952D01*
X133744761Y-98028571D01*
X133792380Y-98123809D01*
X133792380Y-98409523D01*
X133744761Y-98504761D01*
X133697142Y-98552380D01*
%TO.C,R1*%
X104592380Y-98226666D02*
X104116190Y-98560000D01*
X104592380Y-98798095D02*
X103592380Y-98798095D01*
X103592380Y-98417142D01*
X103640000Y-98321904D01*
X103687619Y-98274285D01*
X103782857Y-98226666D01*
X103925714Y-98226666D01*
X104020952Y-98274285D01*
X104068571Y-98321904D01*
X104116190Y-98417142D01*
X104116190Y-98798095D01*
X104592380Y-97274285D02*
X104592380Y-97845714D01*
X104592380Y-97560000D02*
X103592380Y-97560000D01*
X103735238Y-97655238D01*
X103830476Y-97750476D01*
X103878095Y-97845714D01*
%TO.C,R3*%
X100782380Y-98226666D02*
X100306190Y-98560000D01*
X100782380Y-98798095D02*
X99782380Y-98798095D01*
X99782380Y-98417142D01*
X99830000Y-98321904D01*
X99877619Y-98274285D01*
X99972857Y-98226666D01*
X100115714Y-98226666D01*
X100210952Y-98274285D01*
X100258571Y-98321904D01*
X100306190Y-98417142D01*
X100306190Y-98798095D01*
X99782380Y-97893333D02*
X99782380Y-97274285D01*
X100163333Y-97607619D01*
X100163333Y-97464761D01*
X100210952Y-97369523D01*
X100258571Y-97321904D01*
X100353809Y-97274285D01*
X100591904Y-97274285D01*
X100687142Y-97321904D01*
X100734761Y-97369523D01*
X100782380Y-97464761D01*
X100782380Y-97750476D01*
X100734761Y-97845714D01*
X100687142Y-97893333D01*
%TD*%
%LPC*%
D12*
%TO.C,REF\u002A\u002A*%
X130000000Y-94000000D03*
%TD*%
D13*
%TO.C,J2*%
X120650000Y-95520000D03*
D14*
X123190000Y-95520000D03*
X120650000Y-98060000D03*
X123190000Y-98060000D03*
X120650000Y-100600000D03*
X123190000Y-100600000D03*
%TD*%
D15*
%TO.C,U1*%
X109220000Y-94250000D03*
D16*
X116840000Y-101870000D03*
X109220000Y-96790000D03*
X116840000Y-99330000D03*
X109220000Y-99330000D03*
X116840000Y-96790000D03*
X109220000Y-101870000D03*
X116840000Y-94250000D03*
%TD*%
D15*
%TO.C,C1*%
X130810000Y-101870000D03*
D17*
X128310000Y-101870000D03*
%TD*%
D18*
%TO.C,J1*%
X88550000Y-98060000D03*
G36*
G01*
X81050000Y-99060000D02*
X81050000Y-97060000D01*
G75*
G02*
X81800000Y-96310000I750000J0D01*
G01*
X83300000Y-96310000D01*
G75*
G02*
X84050000Y-97060000I0J-750000D01*
G01*
X84050000Y-99060000D01*
G75*
G02*
X83300000Y-99810000I-750000J0D01*
G01*
X81800000Y-99810000D01*
G75*
G02*
X81050000Y-99060000I0J750000D01*
G01*
G37*
G36*
G01*
X83800000Y-103635000D02*
X83800000Y-101885000D01*
G75*
G02*
X84675000Y-101010000I875000J0D01*
G01*
X86425000Y-101010000D01*
G75*
G02*
X87300000Y-101885000I0J-875000D01*
G01*
X87300000Y-103635000D01*
G75*
G02*
X86425000Y-104510000I-875000J0D01*
G01*
X84675000Y-104510000D01*
G75*
G02*
X83800000Y-103635000I0J875000D01*
G01*
G37*
%TD*%
%TO.C,J3*%
G36*
G01*
X136515001Y-101200000D02*
X135264999Y-101200000D01*
G75*
G02*
X135015000Y-100950001I0J249999D01*
G01*
X135015000Y-100249999D01*
G75*
G02*
X135264999Y-100000000I249999J0D01*
G01*
X136515001Y-100000000D01*
G75*
G02*
X136765000Y-100249999I0J-249999D01*
G01*
X136765000Y-100950001D01*
G75*
G02*
X136515001Y-101200000I-249999J0D01*
G01*
G37*
D19*
X135890000Y-98600000D03*
X135890000Y-96600000D03*
%TD*%
D17*
%TO.C,R1*%
X104140000Y-92980000D03*
D16*
X104140000Y-103140000D03*
%TD*%
D20*
%TO.C,R2*%
X92595001Y-100600000D03*
X95995001Y-100600000D03*
%TD*%
D16*
%TO.C,R3*%
X100330000Y-103140000D03*
D17*
X100330000Y-92980000D03*
%TD*%
D21*
%TO.C,SW1*%
X95250000Y-96790000D03*
X95250000Y-94250000D03*
X92710000Y-96790000D03*
X92710000Y-94250000D03*
%TD*%
D13*
%TO.C,J4*%
X86995000Y-92345000D03*
D14*
X84455000Y-92345000D03*
%TD*%
D13*
%TO.C,J5*%
X139700000Y-101235000D03*
D14*
X139700000Y-98695000D03*
X139700000Y-96155000D03*
%TD*%
M02*
