%FSLAX45Y45*%
G04 Gerber Fmt 4.5, Leading zero omitted, Abs format (unit mm)*
G04 Created by KiCad (PCBNEW 5.99.0+really5.1.10+dfsg1-1) date 2022-02-16 19:47:37*
%MOMM*%
%LPD*%
G01*
G04 APERTURE LIST*
%TA.AperFunction,Profile*%
%ADD10C,0.050000*%
%TD*%
%ADD11C,0.200000*%
%ADD12C,0.300000*%
G04 APERTURE END LIST*
D10*
X7900000Y-10600000D02*
X7900000Y-9000000D01*
X14300000Y-10600000D02*
X7900000Y-10600000D01*
X14300000Y-9000000D02*
X14300000Y-10600000D01*
X7900000Y-9000000D02*
X14300000Y-9000000D01*
D11*
X13551500Y-9622500D02*
X13626500Y-9697500D01*
X13626500Y-9622500D02*
X13551500Y-9697500D01*
X13551500Y-9822500D02*
X13626500Y-9897500D01*
X13626500Y-9822500D02*
X13551500Y-9897500D01*
X13551500Y-10022500D02*
X13626500Y-10097500D01*
X13626500Y-10022500D02*
X13551500Y-10097500D01*
X9309100Y-9425000D02*
G75*
G03*
X9309100Y-9425000I-38100J0D01*
G01*
X9309100Y-9679000D02*
G75*
G03*
X9309100Y-9679000I-38100J0D01*
G01*
X9563100Y-9425000D02*
G75*
G03*
X9563100Y-9425000I-38100J0D01*
G01*
X9563100Y-9679000D02*
G75*
G03*
X9563100Y-9679000I-38100J0D01*
G01*
X9259500Y-10020000D02*
X9259500Y-10100000D01*
X9219500Y-10060000D02*
X9299500Y-10060000D01*
X9599500Y-10020000D02*
X9599500Y-10100000D01*
X9559500Y-10060000D02*
X9639500Y-10060000D01*
X10033000Y-9258000D02*
X10033000Y-9338000D01*
X9993000Y-9298000D02*
X10073000Y-9298000D01*
X10033000Y-10274000D02*
X10033000Y-10354000D01*
X9993000Y-10314000D02*
X10073000Y-10314000D01*
X10414000Y-9258000D02*
X10414000Y-9338000D01*
X10374000Y-9298000D02*
X10454000Y-9298000D01*
X10414000Y-10274000D02*
X10414000Y-10354000D01*
X10374000Y-10314000D02*
X10454000Y-10314000D01*
X10922000Y-9385000D02*
X10922000Y-9465000D01*
X10882000Y-9425000D02*
X10962000Y-9425000D01*
X10922000Y-9639000D02*
X10922000Y-9719000D01*
X10882000Y-9679000D02*
X10962000Y-9679000D01*
X10922000Y-9893000D02*
X10922000Y-9973000D01*
X10882000Y-9933000D02*
X10962000Y-9933000D01*
X10922000Y-10147000D02*
X10922000Y-10227000D01*
X10882000Y-10187000D02*
X10962000Y-10187000D01*
X11684000Y-9385000D02*
X11684000Y-9465000D01*
X11644000Y-9425000D02*
X11724000Y-9425000D01*
X11684000Y-9639000D02*
X11684000Y-9719000D01*
X11644000Y-9679000D02*
X11724000Y-9679000D01*
X11684000Y-9893000D02*
X11684000Y-9973000D01*
X11644000Y-9933000D02*
X11724000Y-9933000D01*
X11684000Y-10147000D02*
X11684000Y-10227000D01*
X11644000Y-10187000D02*
X11724000Y-10187000D01*
X12831000Y-10147000D02*
X12831000Y-10227000D01*
X12791000Y-10187000D02*
X12871000Y-10187000D01*
X13081000Y-10147000D02*
X13081000Y-10227000D01*
X13041000Y-10187000D02*
X13121000Y-10187000D01*
X8290356Y-9841356D02*
X8290356Y-9770644D01*
X8219644Y-9770644D01*
X8219644Y-9841356D01*
X8290356Y-9841356D01*
X8215000Y-9706000D02*
X8215000Y-9906000D01*
X8295000Y-9706000D02*
X8295000Y-9906000D01*
X8215000Y-9906000D02*
G75*
G03*
X8295000Y-9906000I40000J0D01*
G01*
X8295000Y-9706000D02*
G75*
G03*
X8215000Y-9706000I-40000J0D01*
G01*
X8480856Y-9269856D02*
X8480856Y-9199144D01*
X8410144Y-9199144D01*
X8410144Y-9269856D01*
X8480856Y-9269856D01*
X8590356Y-10311356D02*
X8590356Y-10240644D01*
X8519644Y-10240644D01*
X8519644Y-10311356D01*
X8590356Y-10311356D01*
X8455000Y-10316000D02*
X8655000Y-10316000D01*
X8455000Y-10236000D02*
X8655000Y-10236000D01*
X8655000Y-10316000D02*
G75*
G03*
X8655000Y-10236000I0J40000D01*
G01*
X8455000Y-10236000D02*
G75*
G03*
X8455000Y-10316000I0J-40000D01*
G01*
X8734856Y-9269856D02*
X8734856Y-9199144D01*
X8664144Y-9199144D01*
X8664144Y-9269856D01*
X8734856Y-9269856D01*
X8890356Y-9841356D02*
X8890356Y-9770644D01*
X8819644Y-9770644D01*
X8819644Y-9841356D01*
X8890356Y-9841356D01*
X8815000Y-9706000D02*
X8815000Y-9906000D01*
X8895000Y-9706000D02*
X8895000Y-9906000D01*
X8815000Y-9906000D02*
G75*
G03*
X8895000Y-9906000I40000J0D01*
G01*
X8895000Y-9706000D02*
G75*
G03*
X8815000Y-9706000I-40000J0D01*
G01*
X12100356Y-9587356D02*
X12100356Y-9516644D01*
X12029644Y-9516644D01*
X12029644Y-9587356D01*
X12100356Y-9587356D01*
X12100356Y-9841356D02*
X12100356Y-9770644D01*
X12029644Y-9770644D01*
X12029644Y-9841356D01*
X12100356Y-9841356D01*
X12100356Y-10095356D02*
X12100356Y-10024644D01*
X12029644Y-10024644D01*
X12029644Y-10095356D01*
X12100356Y-10095356D01*
X12354356Y-9587356D02*
X12354356Y-9516644D01*
X12283644Y-9516644D01*
X12283644Y-9587356D01*
X12354356Y-9587356D01*
X12354356Y-9841356D02*
X12354356Y-9770644D01*
X12283644Y-9770644D01*
X12283644Y-9841356D01*
X12354356Y-9841356D01*
X12354356Y-10095356D02*
X12354356Y-10024644D01*
X12283644Y-10024644D01*
X12283644Y-10095356D01*
X12354356Y-10095356D01*
X14005356Y-9650856D02*
X14005356Y-9580144D01*
X13934644Y-9580144D01*
X13934644Y-9650856D01*
X14005356Y-9650856D01*
X14005356Y-9904856D02*
X14005356Y-9834144D01*
X13934644Y-9834144D01*
X13934644Y-9904856D01*
X14005356Y-9904856D01*
X14005356Y-10158856D02*
X14005356Y-10088144D01*
X13934644Y-10088144D01*
X13934644Y-10158856D01*
X14005356Y-10158856D01*
D12*
X8183928Y-11068214D02*
X8183928Y-10768214D01*
X8255357Y-10768214D01*
X8298214Y-10782500D01*
X8326786Y-10811072D01*
X8341071Y-10839643D01*
X8355357Y-10896786D01*
X8355357Y-10939643D01*
X8341071Y-10996786D01*
X8326786Y-11025357D01*
X8298214Y-11053929D01*
X8255357Y-11068214D01*
X8183928Y-11068214D01*
X8483928Y-11068214D02*
X8483928Y-10868214D01*
X8483928Y-10925357D02*
X8498214Y-10896786D01*
X8512500Y-10882500D01*
X8541071Y-10868214D01*
X8569643Y-10868214D01*
X8669643Y-11068214D02*
X8669643Y-10868214D01*
X8669643Y-10768214D02*
X8655357Y-10782500D01*
X8669643Y-10796786D01*
X8683928Y-10782500D01*
X8669643Y-10768214D01*
X8669643Y-10796786D01*
X8855357Y-11068214D02*
X8826786Y-11053929D01*
X8812500Y-11025357D01*
X8812500Y-10768214D01*
X9012500Y-11068214D02*
X8983928Y-11053929D01*
X8969643Y-11025357D01*
X8969643Y-10768214D01*
X9355357Y-11068214D02*
X9355357Y-10768214D01*
X9455357Y-10982500D01*
X9555357Y-10768214D01*
X9555357Y-11068214D01*
X9826786Y-11068214D02*
X9826786Y-10911072D01*
X9812500Y-10882500D01*
X9783928Y-10868214D01*
X9726786Y-10868214D01*
X9698214Y-10882500D01*
X9826786Y-11053929D02*
X9798214Y-11068214D01*
X9726786Y-11068214D01*
X9698214Y-11053929D01*
X9683928Y-11025357D01*
X9683928Y-10996786D01*
X9698214Y-10968214D01*
X9726786Y-10953929D01*
X9798214Y-10953929D01*
X9826786Y-10939643D01*
X9969643Y-10868214D02*
X9969643Y-11168214D01*
X9969643Y-10882500D02*
X9998214Y-10868214D01*
X10055357Y-10868214D01*
X10083928Y-10882500D01*
X10098214Y-10896786D01*
X10112500Y-10925357D01*
X10112500Y-11011072D01*
X10098214Y-11039643D01*
X10083928Y-11053929D01*
X10055357Y-11068214D01*
X9998214Y-11068214D01*
X9969643Y-11053929D01*
X10241071Y-11039643D02*
X10255357Y-11053929D01*
X10241071Y-11068214D01*
X10226786Y-11053929D01*
X10241071Y-11039643D01*
X10241071Y-11068214D01*
X10241071Y-10882500D02*
X10255357Y-10896786D01*
X10241071Y-10911072D01*
X10226786Y-10896786D01*
X10241071Y-10882500D01*
X10241071Y-10911072D01*
X7822500Y-11525000D02*
X7897500Y-11600000D01*
X7897500Y-11525000D02*
X7822500Y-11600000D01*
X8241071Y-11398214D02*
X8269643Y-11398214D01*
X8298214Y-11412500D01*
X8312500Y-11426786D01*
X8326786Y-11455357D01*
X8341071Y-11512500D01*
X8341071Y-11583929D01*
X8326786Y-11641071D01*
X8312500Y-11669643D01*
X8298214Y-11683929D01*
X8269643Y-11698214D01*
X8241071Y-11698214D01*
X8212500Y-11683929D01*
X8198214Y-11669643D01*
X8183928Y-11641071D01*
X8169643Y-11583929D01*
X8169643Y-11512500D01*
X8183928Y-11455357D01*
X8198214Y-11426786D01*
X8212500Y-11412500D01*
X8241071Y-11398214D01*
X8469643Y-11669643D02*
X8483928Y-11683929D01*
X8469643Y-11698214D01*
X8455357Y-11683929D01*
X8469643Y-11669643D01*
X8469643Y-11698214D01*
X8583928Y-11398214D02*
X8783928Y-11398214D01*
X8655357Y-11698214D01*
X9041071Y-11398214D02*
X8898214Y-11398214D01*
X8883928Y-11541071D01*
X8898214Y-11526786D01*
X8926786Y-11512500D01*
X8998214Y-11512500D01*
X9026786Y-11526786D01*
X9041071Y-11541071D01*
X9055357Y-11569643D01*
X9055357Y-11641071D01*
X9041071Y-11669643D01*
X9026786Y-11683929D01*
X8998214Y-11698214D01*
X8926786Y-11698214D01*
X8898214Y-11683929D01*
X8883928Y-11669643D01*
X9241071Y-11398214D02*
X9269643Y-11398214D01*
X9298214Y-11412500D01*
X9312500Y-11426786D01*
X9326786Y-11455357D01*
X9341071Y-11512500D01*
X9341071Y-11583929D01*
X9326786Y-11641071D01*
X9312500Y-11669643D01*
X9298214Y-11683929D01*
X9269643Y-11698214D01*
X9241071Y-11698214D01*
X9212500Y-11683929D01*
X9198214Y-11669643D01*
X9183928Y-11641071D01*
X9169643Y-11583929D01*
X9169643Y-11512500D01*
X9183928Y-11455357D01*
X9198214Y-11426786D01*
X9212500Y-11412500D01*
X9241071Y-11398214D01*
X9469643Y-11698214D02*
X9469643Y-11498214D01*
X9469643Y-11526786D02*
X9483928Y-11512500D01*
X9512500Y-11498214D01*
X9555357Y-11498214D01*
X9583928Y-11512500D01*
X9598214Y-11541071D01*
X9598214Y-11698214D01*
X9598214Y-11541071D02*
X9612500Y-11512500D01*
X9641071Y-11498214D01*
X9683928Y-11498214D01*
X9712500Y-11512500D01*
X9726786Y-11541071D01*
X9726786Y-11698214D01*
X9869643Y-11698214D02*
X9869643Y-11498214D01*
X9869643Y-11526786D02*
X9883928Y-11512500D01*
X9912500Y-11498214D01*
X9955357Y-11498214D01*
X9983928Y-11512500D01*
X9998214Y-11541071D01*
X9998214Y-11698214D01*
X9998214Y-11541071D02*
X10012500Y-11512500D01*
X10041071Y-11498214D01*
X10083928Y-11498214D01*
X10112500Y-11512500D01*
X10126786Y-11541071D01*
X10126786Y-11698214D01*
X10712500Y-11383929D02*
X10455357Y-11769643D01*
X11098214Y-11398214D02*
X11126786Y-11398214D01*
X11155357Y-11412500D01*
X11169643Y-11426786D01*
X11183928Y-11455357D01*
X11198214Y-11512500D01*
X11198214Y-11583929D01*
X11183928Y-11641071D01*
X11169643Y-11669643D01*
X11155357Y-11683929D01*
X11126786Y-11698214D01*
X11098214Y-11698214D01*
X11069643Y-11683929D01*
X11055357Y-11669643D01*
X11041071Y-11641071D01*
X11026786Y-11583929D01*
X11026786Y-11512500D01*
X11041071Y-11455357D01*
X11055357Y-11426786D01*
X11069643Y-11412500D01*
X11098214Y-11398214D01*
X11326786Y-11669643D02*
X11341071Y-11683929D01*
X11326786Y-11698214D01*
X11312500Y-11683929D01*
X11326786Y-11669643D01*
X11326786Y-11698214D01*
X11526786Y-11398214D02*
X11555357Y-11398214D01*
X11583928Y-11412500D01*
X11598214Y-11426786D01*
X11612500Y-11455357D01*
X11626786Y-11512500D01*
X11626786Y-11583929D01*
X11612500Y-11641071D01*
X11598214Y-11669643D01*
X11583928Y-11683929D01*
X11555357Y-11698214D01*
X11526786Y-11698214D01*
X11498214Y-11683929D01*
X11483928Y-11669643D01*
X11469643Y-11641071D01*
X11455357Y-11583929D01*
X11455357Y-11512500D01*
X11469643Y-11455357D01*
X11483928Y-11426786D01*
X11498214Y-11412500D01*
X11526786Y-11398214D01*
X11741071Y-11426786D02*
X11755357Y-11412500D01*
X11783928Y-11398214D01*
X11855357Y-11398214D01*
X11883928Y-11412500D01*
X11898214Y-11426786D01*
X11912500Y-11455357D01*
X11912500Y-11483929D01*
X11898214Y-11526786D01*
X11726786Y-11698214D01*
X11912500Y-11698214D01*
X12055357Y-11698214D02*
X12112500Y-11698214D01*
X12141071Y-11683929D01*
X12155357Y-11669643D01*
X12183928Y-11626786D01*
X12198214Y-11569643D01*
X12198214Y-11455357D01*
X12183928Y-11426786D01*
X12169643Y-11412500D01*
X12141071Y-11398214D01*
X12083928Y-11398214D01*
X12055357Y-11412500D01*
X12041071Y-11426786D01*
X12026786Y-11455357D01*
X12026786Y-11526786D01*
X12041071Y-11555357D01*
X12055357Y-11569643D01*
X12083928Y-11583929D01*
X12141071Y-11583929D01*
X12169643Y-11569643D01*
X12183928Y-11555357D01*
X12198214Y-11526786D01*
X12469643Y-11398214D02*
X12326786Y-11398214D01*
X12312500Y-11541071D01*
X12326786Y-11526786D01*
X12355357Y-11512500D01*
X12426786Y-11512500D01*
X12455357Y-11526786D01*
X12469643Y-11541071D01*
X12483928Y-11569643D01*
X12483928Y-11641071D01*
X12469643Y-11669643D01*
X12455357Y-11683929D01*
X12426786Y-11698214D01*
X12355357Y-11698214D01*
X12326786Y-11683929D01*
X12312500Y-11669643D01*
X12598214Y-11398214D02*
X12598214Y-11455357D01*
X12712500Y-11398214D02*
X12712500Y-11455357D01*
X13155357Y-11812500D02*
X13141071Y-11798214D01*
X13112500Y-11755357D01*
X13098214Y-11726786D01*
X13083928Y-11683929D01*
X13069643Y-11612500D01*
X13069643Y-11555357D01*
X13083928Y-11483929D01*
X13098214Y-11441071D01*
X13112500Y-11412500D01*
X13141071Y-11369643D01*
X13155357Y-11355357D01*
X13241071Y-11398214D02*
X13426786Y-11398214D01*
X13326786Y-11512500D01*
X13369643Y-11512500D01*
X13398214Y-11526786D01*
X13412500Y-11541071D01*
X13426786Y-11569643D01*
X13426786Y-11641071D01*
X13412500Y-11669643D01*
X13398214Y-11683929D01*
X13369643Y-11698214D01*
X13283928Y-11698214D01*
X13255357Y-11683929D01*
X13241071Y-11669643D01*
X13783928Y-11698214D02*
X13783928Y-11398214D01*
X13912500Y-11698214D02*
X13912500Y-11541071D01*
X13898214Y-11512500D01*
X13869643Y-11498214D01*
X13826786Y-11498214D01*
X13798214Y-11512500D01*
X13783928Y-11526786D01*
X14098214Y-11698214D02*
X14069643Y-11683929D01*
X14055357Y-11669643D01*
X14041071Y-11641071D01*
X14041071Y-11555357D01*
X14055357Y-11526786D01*
X14069643Y-11512500D01*
X14098214Y-11498214D01*
X14141071Y-11498214D01*
X14169643Y-11512500D01*
X14183928Y-11526786D01*
X14198214Y-11555357D01*
X14198214Y-11641071D01*
X14183928Y-11669643D01*
X14169643Y-11683929D01*
X14141071Y-11698214D01*
X14098214Y-11698214D01*
X14369643Y-11698214D02*
X14341071Y-11683929D01*
X14326786Y-11655357D01*
X14326786Y-11398214D01*
X14598214Y-11683929D02*
X14569643Y-11698214D01*
X14512500Y-11698214D01*
X14483928Y-11683929D01*
X14469643Y-11655357D01*
X14469643Y-11541071D01*
X14483928Y-11512500D01*
X14512500Y-11498214D01*
X14569643Y-11498214D01*
X14598214Y-11512500D01*
X14612500Y-11541071D01*
X14612500Y-11569643D01*
X14469643Y-11598214D01*
X14726786Y-11683929D02*
X14755357Y-11698214D01*
X14812500Y-11698214D01*
X14841071Y-11683929D01*
X14855357Y-11655357D01*
X14855357Y-11641071D01*
X14841071Y-11612500D01*
X14812500Y-11598214D01*
X14769643Y-11598214D01*
X14741071Y-11583929D01*
X14726786Y-11555357D01*
X14726786Y-11541071D01*
X14741071Y-11512500D01*
X14769643Y-11498214D01*
X14812500Y-11498214D01*
X14841071Y-11512500D01*
X14955357Y-11812500D02*
X14969643Y-11798214D01*
X14998214Y-11755357D01*
X15012500Y-11726786D01*
X15026786Y-11683929D01*
X15041071Y-11612500D01*
X15041071Y-11555357D01*
X15026786Y-11483929D01*
X15012500Y-11441071D01*
X14998214Y-11412500D01*
X14969643Y-11369643D01*
X14955357Y-11355357D01*
X7897500Y-11958500D02*
G75*
G03*
X7897500Y-11958500I-38100J0D01*
G01*
X8241071Y-11794214D02*
X8269643Y-11794214D01*
X8298214Y-11808500D01*
X8312500Y-11822786D01*
X8326786Y-11851357D01*
X8341071Y-11908500D01*
X8341071Y-11979929D01*
X8326786Y-12037071D01*
X8312500Y-12065643D01*
X8298214Y-12079929D01*
X8269643Y-12094214D01*
X8241071Y-12094214D01*
X8212500Y-12079929D01*
X8198214Y-12065643D01*
X8183928Y-12037071D01*
X8169643Y-11979929D01*
X8169643Y-11908500D01*
X8183928Y-11851357D01*
X8198214Y-11822786D01*
X8212500Y-11808500D01*
X8241071Y-11794214D01*
X8469643Y-12065643D02*
X8483928Y-12079929D01*
X8469643Y-12094214D01*
X8455357Y-12079929D01*
X8469643Y-12065643D01*
X8469643Y-12094214D01*
X8583928Y-11794214D02*
X8783928Y-11794214D01*
X8655357Y-12094214D01*
X9026786Y-11794214D02*
X8969643Y-11794214D01*
X8941071Y-11808500D01*
X8926786Y-11822786D01*
X8898214Y-11865643D01*
X8883928Y-11922786D01*
X8883928Y-12037071D01*
X8898214Y-12065643D01*
X8912500Y-12079929D01*
X8941071Y-12094214D01*
X8998214Y-12094214D01*
X9026786Y-12079929D01*
X9041071Y-12065643D01*
X9055357Y-12037071D01*
X9055357Y-11965643D01*
X9041071Y-11937071D01*
X9026786Y-11922786D01*
X8998214Y-11908500D01*
X8941071Y-11908500D01*
X8912500Y-11922786D01*
X8898214Y-11937071D01*
X8883928Y-11965643D01*
X9169643Y-11822786D02*
X9183928Y-11808500D01*
X9212500Y-11794214D01*
X9283928Y-11794214D01*
X9312500Y-11808500D01*
X9326786Y-11822786D01*
X9341071Y-11851357D01*
X9341071Y-11879929D01*
X9326786Y-11922786D01*
X9155357Y-12094214D01*
X9341071Y-12094214D01*
X9469643Y-12094214D02*
X9469643Y-11894214D01*
X9469643Y-11922786D02*
X9483928Y-11908500D01*
X9512500Y-11894214D01*
X9555357Y-11894214D01*
X9583928Y-11908500D01*
X9598214Y-11937071D01*
X9598214Y-12094214D01*
X9598214Y-11937071D02*
X9612500Y-11908500D01*
X9641071Y-11894214D01*
X9683928Y-11894214D01*
X9712500Y-11908500D01*
X9726786Y-11937071D01*
X9726786Y-12094214D01*
X9869643Y-12094214D02*
X9869643Y-11894214D01*
X9869643Y-11922786D02*
X9883928Y-11908500D01*
X9912500Y-11894214D01*
X9955357Y-11894214D01*
X9983928Y-11908500D01*
X9998214Y-11937071D01*
X9998214Y-12094214D01*
X9998214Y-11937071D02*
X10012500Y-11908500D01*
X10041071Y-11894214D01*
X10083928Y-11894214D01*
X10112500Y-11908500D01*
X10126786Y-11937071D01*
X10126786Y-12094214D01*
X10712500Y-11779929D02*
X10455357Y-12165643D01*
X11098214Y-11794214D02*
X11126786Y-11794214D01*
X11155357Y-11808500D01*
X11169643Y-11822786D01*
X11183928Y-11851357D01*
X11198214Y-11908500D01*
X11198214Y-11979929D01*
X11183928Y-12037071D01*
X11169643Y-12065643D01*
X11155357Y-12079929D01*
X11126786Y-12094214D01*
X11098214Y-12094214D01*
X11069643Y-12079929D01*
X11055357Y-12065643D01*
X11041071Y-12037071D01*
X11026786Y-11979929D01*
X11026786Y-11908500D01*
X11041071Y-11851357D01*
X11055357Y-11822786D01*
X11069643Y-11808500D01*
X11098214Y-11794214D01*
X11326786Y-12065643D02*
X11341071Y-12079929D01*
X11326786Y-12094214D01*
X11312500Y-12079929D01*
X11326786Y-12065643D01*
X11326786Y-12094214D01*
X11526786Y-11794214D02*
X11555357Y-11794214D01*
X11583928Y-11808500D01*
X11598214Y-11822786D01*
X11612500Y-11851357D01*
X11626786Y-11908500D01*
X11626786Y-11979929D01*
X11612500Y-12037071D01*
X11598214Y-12065643D01*
X11583928Y-12079929D01*
X11555357Y-12094214D01*
X11526786Y-12094214D01*
X11498214Y-12079929D01*
X11483928Y-12065643D01*
X11469643Y-12037071D01*
X11455357Y-11979929D01*
X11455357Y-11908500D01*
X11469643Y-11851357D01*
X11483928Y-11822786D01*
X11498214Y-11808500D01*
X11526786Y-11794214D01*
X11726786Y-11794214D02*
X11912500Y-11794214D01*
X11812500Y-11908500D01*
X11855357Y-11908500D01*
X11883928Y-11922786D01*
X11898214Y-11937071D01*
X11912500Y-11965643D01*
X11912500Y-12037071D01*
X11898214Y-12065643D01*
X11883928Y-12079929D01*
X11855357Y-12094214D01*
X11769643Y-12094214D01*
X11741071Y-12079929D01*
X11726786Y-12065643D01*
X12098214Y-11794214D02*
X12126786Y-11794214D01*
X12155357Y-11808500D01*
X12169643Y-11822786D01*
X12183928Y-11851357D01*
X12198214Y-11908500D01*
X12198214Y-11979929D01*
X12183928Y-12037071D01*
X12169643Y-12065643D01*
X12155357Y-12079929D01*
X12126786Y-12094214D01*
X12098214Y-12094214D01*
X12069643Y-12079929D01*
X12055357Y-12065643D01*
X12041071Y-12037071D01*
X12026786Y-11979929D01*
X12026786Y-11908500D01*
X12041071Y-11851357D01*
X12055357Y-11822786D01*
X12069643Y-11808500D01*
X12098214Y-11794214D01*
X12383928Y-11794214D02*
X12412500Y-11794214D01*
X12441071Y-11808500D01*
X12455357Y-11822786D01*
X12469643Y-11851357D01*
X12483928Y-11908500D01*
X12483928Y-11979929D01*
X12469643Y-12037071D01*
X12455357Y-12065643D01*
X12441071Y-12079929D01*
X12412500Y-12094214D01*
X12383928Y-12094214D01*
X12355357Y-12079929D01*
X12341071Y-12065643D01*
X12326786Y-12037071D01*
X12312500Y-11979929D01*
X12312500Y-11908500D01*
X12326786Y-11851357D01*
X12341071Y-11822786D01*
X12355357Y-11808500D01*
X12383928Y-11794214D01*
X12598214Y-11794214D02*
X12598214Y-11851357D01*
X12712500Y-11794214D02*
X12712500Y-11851357D01*
X13155357Y-12208500D02*
X13141071Y-12194214D01*
X13112500Y-12151357D01*
X13098214Y-12122786D01*
X13083928Y-12079929D01*
X13069643Y-12008500D01*
X13069643Y-11951357D01*
X13083928Y-11879929D01*
X13098214Y-11837071D01*
X13112500Y-11808500D01*
X13141071Y-11765643D01*
X13155357Y-11751357D01*
X13398214Y-11894214D02*
X13398214Y-12094214D01*
X13326786Y-11779929D02*
X13255357Y-11994214D01*
X13441071Y-11994214D01*
X13783928Y-12094214D02*
X13783928Y-11794214D01*
X13912500Y-12094214D02*
X13912500Y-11937071D01*
X13898214Y-11908500D01*
X13869643Y-11894214D01*
X13826786Y-11894214D01*
X13798214Y-11908500D01*
X13783928Y-11922786D01*
X14098214Y-12094214D02*
X14069643Y-12079929D01*
X14055357Y-12065643D01*
X14041071Y-12037071D01*
X14041071Y-11951357D01*
X14055357Y-11922786D01*
X14069643Y-11908500D01*
X14098214Y-11894214D01*
X14141071Y-11894214D01*
X14169643Y-11908500D01*
X14183928Y-11922786D01*
X14198214Y-11951357D01*
X14198214Y-12037071D01*
X14183928Y-12065643D01*
X14169643Y-12079929D01*
X14141071Y-12094214D01*
X14098214Y-12094214D01*
X14369643Y-12094214D02*
X14341071Y-12079929D01*
X14326786Y-12051357D01*
X14326786Y-11794214D01*
X14598214Y-12079929D02*
X14569643Y-12094214D01*
X14512500Y-12094214D01*
X14483928Y-12079929D01*
X14469643Y-12051357D01*
X14469643Y-11937071D01*
X14483928Y-11908500D01*
X14512500Y-11894214D01*
X14569643Y-11894214D01*
X14598214Y-11908500D01*
X14612500Y-11937071D01*
X14612500Y-11965643D01*
X14469643Y-11994214D01*
X14726786Y-12079929D02*
X14755357Y-12094214D01*
X14812500Y-12094214D01*
X14841071Y-12079929D01*
X14855357Y-12051357D01*
X14855357Y-12037071D01*
X14841071Y-12008500D01*
X14812500Y-11994214D01*
X14769643Y-11994214D01*
X14741071Y-11979929D01*
X14726786Y-11951357D01*
X14726786Y-11937071D01*
X14741071Y-11908500D01*
X14769643Y-11894214D01*
X14812500Y-11894214D01*
X14841071Y-11908500D01*
X14955357Y-12208500D02*
X14969643Y-12194214D01*
X14998214Y-12151357D01*
X15012500Y-12122786D01*
X15026786Y-12079929D01*
X15041071Y-12008500D01*
X15041071Y-11951357D01*
X15026786Y-11879929D01*
X15012500Y-11837071D01*
X14998214Y-11808500D01*
X14969643Y-11765643D01*
X14955357Y-11751357D01*
X7857500Y-12314500D02*
X7857500Y-12394500D01*
X7817500Y-12354500D02*
X7897500Y-12354500D01*
X8241071Y-12190214D02*
X8269643Y-12190214D01*
X8298214Y-12204500D01*
X8312500Y-12218786D01*
X8326786Y-12247357D01*
X8341071Y-12304500D01*
X8341071Y-12375929D01*
X8326786Y-12433071D01*
X8312500Y-12461643D01*
X8298214Y-12475929D01*
X8269643Y-12490214D01*
X8241071Y-12490214D01*
X8212500Y-12475929D01*
X8198214Y-12461643D01*
X8183928Y-12433071D01*
X8169643Y-12375929D01*
X8169643Y-12304500D01*
X8183928Y-12247357D01*
X8198214Y-12218786D01*
X8212500Y-12204500D01*
X8241071Y-12190214D01*
X8469643Y-12461643D02*
X8483928Y-12475929D01*
X8469643Y-12490214D01*
X8455357Y-12475929D01*
X8469643Y-12461643D01*
X8469643Y-12490214D01*
X8655357Y-12318786D02*
X8626786Y-12304500D01*
X8612500Y-12290214D01*
X8598214Y-12261643D01*
X8598214Y-12247357D01*
X8612500Y-12218786D01*
X8626786Y-12204500D01*
X8655357Y-12190214D01*
X8712500Y-12190214D01*
X8741071Y-12204500D01*
X8755357Y-12218786D01*
X8769643Y-12247357D01*
X8769643Y-12261643D01*
X8755357Y-12290214D01*
X8741071Y-12304500D01*
X8712500Y-12318786D01*
X8655357Y-12318786D01*
X8626786Y-12333071D01*
X8612500Y-12347357D01*
X8598214Y-12375929D01*
X8598214Y-12433071D01*
X8612500Y-12461643D01*
X8626786Y-12475929D01*
X8655357Y-12490214D01*
X8712500Y-12490214D01*
X8741071Y-12475929D01*
X8755357Y-12461643D01*
X8769643Y-12433071D01*
X8769643Y-12375929D01*
X8755357Y-12347357D01*
X8741071Y-12333071D01*
X8712500Y-12318786D01*
X8955357Y-12190214D02*
X8983928Y-12190214D01*
X9012500Y-12204500D01*
X9026786Y-12218786D01*
X9041071Y-12247357D01*
X9055357Y-12304500D01*
X9055357Y-12375929D01*
X9041071Y-12433071D01*
X9026786Y-12461643D01*
X9012500Y-12475929D01*
X8983928Y-12490214D01*
X8955357Y-12490214D01*
X8926786Y-12475929D01*
X8912500Y-12461643D01*
X8898214Y-12433071D01*
X8883928Y-12375929D01*
X8883928Y-12304500D01*
X8898214Y-12247357D01*
X8912500Y-12218786D01*
X8926786Y-12204500D01*
X8955357Y-12190214D01*
X9241071Y-12190214D02*
X9269643Y-12190214D01*
X9298214Y-12204500D01*
X9312500Y-12218786D01*
X9326786Y-12247357D01*
X9341071Y-12304500D01*
X9341071Y-12375929D01*
X9326786Y-12433071D01*
X9312500Y-12461643D01*
X9298214Y-12475929D01*
X9269643Y-12490214D01*
X9241071Y-12490214D01*
X9212500Y-12475929D01*
X9198214Y-12461643D01*
X9183928Y-12433071D01*
X9169643Y-12375929D01*
X9169643Y-12304500D01*
X9183928Y-12247357D01*
X9198214Y-12218786D01*
X9212500Y-12204500D01*
X9241071Y-12190214D01*
X9469643Y-12490214D02*
X9469643Y-12290214D01*
X9469643Y-12318786D02*
X9483928Y-12304500D01*
X9512500Y-12290214D01*
X9555357Y-12290214D01*
X9583928Y-12304500D01*
X9598214Y-12333071D01*
X9598214Y-12490214D01*
X9598214Y-12333071D02*
X9612500Y-12304500D01*
X9641071Y-12290214D01*
X9683928Y-12290214D01*
X9712500Y-12304500D01*
X9726786Y-12333071D01*
X9726786Y-12490214D01*
X9869643Y-12490214D02*
X9869643Y-12290214D01*
X9869643Y-12318786D02*
X9883928Y-12304500D01*
X9912500Y-12290214D01*
X9955357Y-12290214D01*
X9983928Y-12304500D01*
X9998214Y-12333071D01*
X9998214Y-12490214D01*
X9998214Y-12333071D02*
X10012500Y-12304500D01*
X10041071Y-12290214D01*
X10083928Y-12290214D01*
X10112500Y-12304500D01*
X10126786Y-12333071D01*
X10126786Y-12490214D01*
X10712500Y-12175929D02*
X10455357Y-12561643D01*
X11098214Y-12190214D02*
X11126786Y-12190214D01*
X11155357Y-12204500D01*
X11169643Y-12218786D01*
X11183928Y-12247357D01*
X11198214Y-12304500D01*
X11198214Y-12375929D01*
X11183928Y-12433071D01*
X11169643Y-12461643D01*
X11155357Y-12475929D01*
X11126786Y-12490214D01*
X11098214Y-12490214D01*
X11069643Y-12475929D01*
X11055357Y-12461643D01*
X11041071Y-12433071D01*
X11026786Y-12375929D01*
X11026786Y-12304500D01*
X11041071Y-12247357D01*
X11055357Y-12218786D01*
X11069643Y-12204500D01*
X11098214Y-12190214D01*
X11326786Y-12461643D02*
X11341071Y-12475929D01*
X11326786Y-12490214D01*
X11312500Y-12475929D01*
X11326786Y-12461643D01*
X11326786Y-12490214D01*
X11526786Y-12190214D02*
X11555357Y-12190214D01*
X11583928Y-12204500D01*
X11598214Y-12218786D01*
X11612500Y-12247357D01*
X11626786Y-12304500D01*
X11626786Y-12375929D01*
X11612500Y-12433071D01*
X11598214Y-12461643D01*
X11583928Y-12475929D01*
X11555357Y-12490214D01*
X11526786Y-12490214D01*
X11498214Y-12475929D01*
X11483928Y-12461643D01*
X11469643Y-12433071D01*
X11455357Y-12375929D01*
X11455357Y-12304500D01*
X11469643Y-12247357D01*
X11483928Y-12218786D01*
X11498214Y-12204500D01*
X11526786Y-12190214D01*
X11726786Y-12190214D02*
X11912500Y-12190214D01*
X11812500Y-12304500D01*
X11855357Y-12304500D01*
X11883928Y-12318786D01*
X11898214Y-12333071D01*
X11912500Y-12361643D01*
X11912500Y-12433071D01*
X11898214Y-12461643D01*
X11883928Y-12475929D01*
X11855357Y-12490214D01*
X11769643Y-12490214D01*
X11741071Y-12475929D01*
X11726786Y-12461643D01*
X12198214Y-12490214D02*
X12026786Y-12490214D01*
X12112500Y-12490214D02*
X12112500Y-12190214D01*
X12083928Y-12233071D01*
X12055357Y-12261643D01*
X12026786Y-12275929D01*
X12469643Y-12190214D02*
X12326786Y-12190214D01*
X12312500Y-12333071D01*
X12326786Y-12318786D01*
X12355357Y-12304500D01*
X12426786Y-12304500D01*
X12455357Y-12318786D01*
X12469643Y-12333071D01*
X12483928Y-12361643D01*
X12483928Y-12433071D01*
X12469643Y-12461643D01*
X12455357Y-12475929D01*
X12426786Y-12490214D01*
X12355357Y-12490214D01*
X12326786Y-12475929D01*
X12312500Y-12461643D01*
X12598214Y-12190214D02*
X12598214Y-12247357D01*
X12712500Y-12190214D02*
X12712500Y-12247357D01*
X13155357Y-12604500D02*
X13141071Y-12590214D01*
X13112500Y-12547357D01*
X13098214Y-12518786D01*
X13083928Y-12475929D01*
X13069643Y-12404500D01*
X13069643Y-12347357D01*
X13083928Y-12275929D01*
X13098214Y-12233071D01*
X13112500Y-12204500D01*
X13141071Y-12161643D01*
X13155357Y-12147357D01*
X13426786Y-12490214D02*
X13255357Y-12490214D01*
X13341071Y-12490214D02*
X13341071Y-12190214D01*
X13312500Y-12233071D01*
X13283928Y-12261643D01*
X13255357Y-12275929D01*
X13683928Y-12190214D02*
X13626786Y-12190214D01*
X13598214Y-12204500D01*
X13583928Y-12218786D01*
X13555357Y-12261643D01*
X13541071Y-12318786D01*
X13541071Y-12433071D01*
X13555357Y-12461643D01*
X13569643Y-12475929D01*
X13598214Y-12490214D01*
X13655357Y-12490214D01*
X13683928Y-12475929D01*
X13698214Y-12461643D01*
X13712500Y-12433071D01*
X13712500Y-12361643D01*
X13698214Y-12333071D01*
X13683928Y-12318786D01*
X13655357Y-12304500D01*
X13598214Y-12304500D01*
X13569643Y-12318786D01*
X13555357Y-12333071D01*
X13541071Y-12361643D01*
X14069643Y-12490214D02*
X14069643Y-12190214D01*
X14198214Y-12490214D02*
X14198214Y-12333071D01*
X14183928Y-12304500D01*
X14155357Y-12290214D01*
X14112500Y-12290214D01*
X14083928Y-12304500D01*
X14069643Y-12318786D01*
X14383928Y-12490214D02*
X14355357Y-12475929D01*
X14341071Y-12461643D01*
X14326786Y-12433071D01*
X14326786Y-12347357D01*
X14341071Y-12318786D01*
X14355357Y-12304500D01*
X14383928Y-12290214D01*
X14426786Y-12290214D01*
X14455357Y-12304500D01*
X14469643Y-12318786D01*
X14483928Y-12347357D01*
X14483928Y-12433071D01*
X14469643Y-12461643D01*
X14455357Y-12475929D01*
X14426786Y-12490214D01*
X14383928Y-12490214D01*
X14655357Y-12490214D02*
X14626786Y-12475929D01*
X14612500Y-12447357D01*
X14612500Y-12190214D01*
X14883928Y-12475929D02*
X14855357Y-12490214D01*
X14798214Y-12490214D01*
X14769643Y-12475929D01*
X14755357Y-12447357D01*
X14755357Y-12333071D01*
X14769643Y-12304500D01*
X14798214Y-12290214D01*
X14855357Y-12290214D01*
X14883928Y-12304500D01*
X14898214Y-12333071D01*
X14898214Y-12361643D01*
X14755357Y-12390214D01*
X15012500Y-12475929D02*
X15041071Y-12490214D01*
X15098214Y-12490214D01*
X15126786Y-12475929D01*
X15141071Y-12447357D01*
X15141071Y-12433071D01*
X15126786Y-12404500D01*
X15098214Y-12390214D01*
X15055357Y-12390214D01*
X15026786Y-12375929D01*
X15012500Y-12347357D01*
X15012500Y-12333071D01*
X15026786Y-12304500D01*
X15055357Y-12290214D01*
X15098214Y-12290214D01*
X15126786Y-12304500D01*
X15241071Y-12604500D02*
X15255357Y-12590214D01*
X15283928Y-12547357D01*
X15298214Y-12518786D01*
X15312500Y-12475929D01*
X15326786Y-12404500D01*
X15326786Y-12347357D01*
X15312500Y-12275929D01*
X15298214Y-12233071D01*
X15283928Y-12204500D01*
X15255357Y-12161643D01*
X15241071Y-12147357D01*
X7882856Y-12785856D02*
X7882856Y-12715144D01*
X7812144Y-12715144D01*
X7812144Y-12785856D01*
X7882856Y-12785856D01*
X8341071Y-12886214D02*
X8169643Y-12886214D01*
X8255357Y-12886214D02*
X8255357Y-12586214D01*
X8226786Y-12629071D01*
X8198214Y-12657643D01*
X8169643Y-12671929D01*
X8469643Y-12857643D02*
X8483928Y-12871929D01*
X8469643Y-12886214D01*
X8455357Y-12871929D01*
X8469643Y-12857643D01*
X8469643Y-12886214D01*
X8669643Y-12586214D02*
X8698214Y-12586214D01*
X8726786Y-12600500D01*
X8741071Y-12614786D01*
X8755357Y-12643357D01*
X8769643Y-12700500D01*
X8769643Y-12771929D01*
X8755357Y-12829071D01*
X8741071Y-12857643D01*
X8726786Y-12871929D01*
X8698214Y-12886214D01*
X8669643Y-12886214D01*
X8641071Y-12871929D01*
X8626786Y-12857643D01*
X8612500Y-12829071D01*
X8598214Y-12771929D01*
X8598214Y-12700500D01*
X8612500Y-12643357D01*
X8626786Y-12614786D01*
X8641071Y-12600500D01*
X8669643Y-12586214D01*
X8955357Y-12586214D02*
X8983928Y-12586214D01*
X9012500Y-12600500D01*
X9026786Y-12614786D01*
X9041071Y-12643357D01*
X9055357Y-12700500D01*
X9055357Y-12771929D01*
X9041071Y-12829071D01*
X9026786Y-12857643D01*
X9012500Y-12871929D01*
X8983928Y-12886214D01*
X8955357Y-12886214D01*
X8926786Y-12871929D01*
X8912500Y-12857643D01*
X8898214Y-12829071D01*
X8883928Y-12771929D01*
X8883928Y-12700500D01*
X8898214Y-12643357D01*
X8912500Y-12614786D01*
X8926786Y-12600500D01*
X8955357Y-12586214D01*
X9241071Y-12586214D02*
X9269643Y-12586214D01*
X9298214Y-12600500D01*
X9312500Y-12614786D01*
X9326786Y-12643357D01*
X9341071Y-12700500D01*
X9341071Y-12771929D01*
X9326786Y-12829071D01*
X9312500Y-12857643D01*
X9298214Y-12871929D01*
X9269643Y-12886214D01*
X9241071Y-12886214D01*
X9212500Y-12871929D01*
X9198214Y-12857643D01*
X9183928Y-12829071D01*
X9169643Y-12771929D01*
X9169643Y-12700500D01*
X9183928Y-12643357D01*
X9198214Y-12614786D01*
X9212500Y-12600500D01*
X9241071Y-12586214D01*
X9469643Y-12886214D02*
X9469643Y-12686214D01*
X9469643Y-12714786D02*
X9483928Y-12700500D01*
X9512500Y-12686214D01*
X9555357Y-12686214D01*
X9583928Y-12700500D01*
X9598214Y-12729071D01*
X9598214Y-12886214D01*
X9598214Y-12729071D02*
X9612500Y-12700500D01*
X9641071Y-12686214D01*
X9683928Y-12686214D01*
X9712500Y-12700500D01*
X9726786Y-12729071D01*
X9726786Y-12886214D01*
X9869643Y-12886214D02*
X9869643Y-12686214D01*
X9869643Y-12714786D02*
X9883928Y-12700500D01*
X9912500Y-12686214D01*
X9955357Y-12686214D01*
X9983928Y-12700500D01*
X9998214Y-12729071D01*
X9998214Y-12886214D01*
X9998214Y-12729071D02*
X10012500Y-12700500D01*
X10041071Y-12686214D01*
X10083928Y-12686214D01*
X10112500Y-12700500D01*
X10126786Y-12729071D01*
X10126786Y-12886214D01*
X10712500Y-12571929D02*
X10455357Y-12957643D01*
X11098214Y-12586214D02*
X11126786Y-12586214D01*
X11155357Y-12600500D01*
X11169643Y-12614786D01*
X11183928Y-12643357D01*
X11198214Y-12700500D01*
X11198214Y-12771929D01*
X11183928Y-12829071D01*
X11169643Y-12857643D01*
X11155357Y-12871929D01*
X11126786Y-12886214D01*
X11098214Y-12886214D01*
X11069643Y-12871929D01*
X11055357Y-12857643D01*
X11041071Y-12829071D01*
X11026786Y-12771929D01*
X11026786Y-12700500D01*
X11041071Y-12643357D01*
X11055357Y-12614786D01*
X11069643Y-12600500D01*
X11098214Y-12586214D01*
X11326786Y-12857643D02*
X11341071Y-12871929D01*
X11326786Y-12886214D01*
X11312500Y-12871929D01*
X11326786Y-12857643D01*
X11326786Y-12886214D01*
X11526786Y-12586214D02*
X11555357Y-12586214D01*
X11583928Y-12600500D01*
X11598214Y-12614786D01*
X11612500Y-12643357D01*
X11626786Y-12700500D01*
X11626786Y-12771929D01*
X11612500Y-12829071D01*
X11598214Y-12857643D01*
X11583928Y-12871929D01*
X11555357Y-12886214D01*
X11526786Y-12886214D01*
X11498214Y-12871929D01*
X11483928Y-12857643D01*
X11469643Y-12829071D01*
X11455357Y-12771929D01*
X11455357Y-12700500D01*
X11469643Y-12643357D01*
X11483928Y-12614786D01*
X11498214Y-12600500D01*
X11526786Y-12586214D01*
X11726786Y-12586214D02*
X11912500Y-12586214D01*
X11812500Y-12700500D01*
X11855357Y-12700500D01*
X11883928Y-12714786D01*
X11898214Y-12729071D01*
X11912500Y-12757643D01*
X11912500Y-12829071D01*
X11898214Y-12857643D01*
X11883928Y-12871929D01*
X11855357Y-12886214D01*
X11769643Y-12886214D01*
X11741071Y-12871929D01*
X11726786Y-12857643D01*
X12055357Y-12886214D02*
X12112500Y-12886214D01*
X12141071Y-12871929D01*
X12155357Y-12857643D01*
X12183928Y-12814786D01*
X12198214Y-12757643D01*
X12198214Y-12643357D01*
X12183928Y-12614786D01*
X12169643Y-12600500D01*
X12141071Y-12586214D01*
X12083928Y-12586214D01*
X12055357Y-12600500D01*
X12041071Y-12614786D01*
X12026786Y-12643357D01*
X12026786Y-12714786D01*
X12041071Y-12743357D01*
X12055357Y-12757643D01*
X12083928Y-12771929D01*
X12141071Y-12771929D01*
X12169643Y-12757643D01*
X12183928Y-12743357D01*
X12198214Y-12714786D01*
X12455357Y-12686214D02*
X12455357Y-12886214D01*
X12383928Y-12571929D02*
X12312500Y-12786214D01*
X12498214Y-12786214D01*
X12598214Y-12586214D02*
X12598214Y-12643357D01*
X12712500Y-12586214D02*
X12712500Y-12643357D01*
X13155357Y-13000500D02*
X13141071Y-12986214D01*
X13112500Y-12943357D01*
X13098214Y-12914786D01*
X13083928Y-12871929D01*
X13069643Y-12800500D01*
X13069643Y-12743357D01*
X13083928Y-12671929D01*
X13098214Y-12629071D01*
X13112500Y-12600500D01*
X13141071Y-12557643D01*
X13155357Y-12543357D01*
X13426786Y-12886214D02*
X13255357Y-12886214D01*
X13341071Y-12886214D02*
X13341071Y-12586214D01*
X13312500Y-12629071D01*
X13283928Y-12657643D01*
X13255357Y-12671929D01*
X13712500Y-12886214D02*
X13541071Y-12886214D01*
X13626786Y-12886214D02*
X13626786Y-12586214D01*
X13598214Y-12629071D01*
X13569643Y-12657643D01*
X13541071Y-12671929D01*
X14069643Y-12886214D02*
X14069643Y-12586214D01*
X14198214Y-12886214D02*
X14198214Y-12729071D01*
X14183928Y-12700500D01*
X14155357Y-12686214D01*
X14112500Y-12686214D01*
X14083928Y-12700500D01*
X14069643Y-12714786D01*
X14383928Y-12886214D02*
X14355357Y-12871929D01*
X14341071Y-12857643D01*
X14326786Y-12829071D01*
X14326786Y-12743357D01*
X14341071Y-12714786D01*
X14355357Y-12700500D01*
X14383928Y-12686214D01*
X14426786Y-12686214D01*
X14455357Y-12700500D01*
X14469643Y-12714786D01*
X14483928Y-12743357D01*
X14483928Y-12829071D01*
X14469643Y-12857643D01*
X14455357Y-12871929D01*
X14426786Y-12886214D01*
X14383928Y-12886214D01*
X14655357Y-12886214D02*
X14626786Y-12871929D01*
X14612500Y-12843357D01*
X14612500Y-12586214D01*
X14883928Y-12871929D02*
X14855357Y-12886214D01*
X14798214Y-12886214D01*
X14769643Y-12871929D01*
X14755357Y-12843357D01*
X14755357Y-12729071D01*
X14769643Y-12700500D01*
X14798214Y-12686214D01*
X14855357Y-12686214D01*
X14883928Y-12700500D01*
X14898214Y-12729071D01*
X14898214Y-12757643D01*
X14755357Y-12786214D01*
X15012500Y-12871929D02*
X15041071Y-12886214D01*
X15098214Y-12886214D01*
X15126786Y-12871929D01*
X15141071Y-12843357D01*
X15141071Y-12829071D01*
X15126786Y-12800500D01*
X15098214Y-12786214D01*
X15055357Y-12786214D01*
X15026786Y-12771929D01*
X15012500Y-12743357D01*
X15012500Y-12729071D01*
X15026786Y-12700500D01*
X15055357Y-12686214D01*
X15098214Y-12686214D01*
X15126786Y-12700500D01*
X15498214Y-12771929D02*
X15726786Y-12771929D01*
X15612500Y-12886214D02*
X15612500Y-12657643D01*
X16069643Y-12586214D02*
X16255357Y-12586214D01*
X16155357Y-12700500D01*
X16198214Y-12700500D01*
X16226786Y-12714786D01*
X16241071Y-12729071D01*
X16255357Y-12757643D01*
X16255357Y-12829071D01*
X16241071Y-12857643D01*
X16226786Y-12871929D01*
X16198214Y-12886214D01*
X16112500Y-12886214D01*
X16083928Y-12871929D01*
X16069643Y-12857643D01*
X16598214Y-12871929D02*
X16626786Y-12886214D01*
X16683928Y-12886214D01*
X16712500Y-12871929D01*
X16726786Y-12843357D01*
X16726786Y-12829071D01*
X16712500Y-12800500D01*
X16683928Y-12786214D01*
X16641071Y-12786214D01*
X16612500Y-12771929D01*
X16598214Y-12743357D01*
X16598214Y-12729071D01*
X16612500Y-12700500D01*
X16641071Y-12686214D01*
X16683928Y-12686214D01*
X16712500Y-12700500D01*
X16898214Y-12886214D02*
X16869643Y-12871929D01*
X16855357Y-12843357D01*
X16855357Y-12586214D01*
X17055357Y-12886214D02*
X17026786Y-12871929D01*
X17012500Y-12857643D01*
X16998214Y-12829071D01*
X16998214Y-12743357D01*
X17012500Y-12714786D01*
X17026786Y-12700500D01*
X17055357Y-12686214D01*
X17098214Y-12686214D01*
X17126786Y-12700500D01*
X17141071Y-12714786D01*
X17155357Y-12743357D01*
X17155357Y-12829071D01*
X17141071Y-12857643D01*
X17126786Y-12871929D01*
X17098214Y-12886214D01*
X17055357Y-12886214D01*
X17241071Y-12686214D02*
X17355357Y-12686214D01*
X17283928Y-12586214D02*
X17283928Y-12843357D01*
X17298214Y-12871929D01*
X17326786Y-12886214D01*
X17355357Y-12886214D01*
X17441071Y-12871929D02*
X17469643Y-12886214D01*
X17526786Y-12886214D01*
X17555357Y-12871929D01*
X17569643Y-12843357D01*
X17569643Y-12829071D01*
X17555357Y-12800500D01*
X17526786Y-12786214D01*
X17483928Y-12786214D01*
X17455357Y-12771929D01*
X17441071Y-12743357D01*
X17441071Y-12729071D01*
X17455357Y-12700500D01*
X17483928Y-12686214D01*
X17526786Y-12686214D01*
X17555357Y-12700500D01*
X17669643Y-13000500D02*
X17683928Y-12986214D01*
X17712500Y-12943357D01*
X17726786Y-12914786D01*
X17741071Y-12871929D01*
X17755357Y-12800500D01*
X17755357Y-12743357D01*
X17741071Y-12671929D01*
X17726786Y-12629071D01*
X17712500Y-12600500D01*
X17683928Y-12557643D01*
X17669643Y-12543357D01*
M02*
