M48
; DRILL file {KiCad 5.99.0+really5.1.10+dfsg1-1} date Wed Feb 16 19:47:12 2022
; FORMAT={-:-/ absolute / metric / decimal}
; #@! TF.CreationDate,2022-02-16T19:47:12+00:00
; #@! TF.GenerationSoftware,Kicad,Pcbnew,5.99.0+really5.1.10+dfsg1-1
; #@! TF.FileFunction,Plated,1,2,PTH
FMAT,2
METRIC
T1C0.750
T2C0.762
T3C0.800
T4C1.000
%
G90
G05
T1
X135.89Y-96.6
X135.89Y-98.6
X135.89Y-100.6
T2
X92.71Y-94.25
X92.71Y-96.79
X95.25Y-94.25
X95.25Y-96.79
T3
X92.595Y-100.6
X95.995Y-100.6
X100.33Y-92.98
X100.33Y-103.14
X104.14Y-92.98
X104.14Y-103.14
X109.22Y-94.25
X109.22Y-96.79
X109.22Y-99.33
X109.22Y-101.87
X116.84Y-94.25
X116.84Y-96.79
X116.84Y-99.33
X116.84Y-101.87
X128.31Y-101.87
X130.81Y-101.87
T4
X84.455Y-92.345
X86.995Y-92.345
X120.65Y-95.52
X120.65Y-98.06
X120.65Y-100.6
X123.19Y-95.52
X123.19Y-98.06
X123.19Y-100.6
X139.7Y-96.155
X139.7Y-98.695
X139.7Y-101.235
T4
X82.55Y-97.06G85X82.55Y-99.06
G05
X84.55Y-102.76G85X86.55Y-102.76
G05
X88.55Y-97.06G85X88.55Y-99.06
G05
T0
M30
